{"glyphs":{"0":{"ha":849,"x_min":79,"x_max":769,"o":"m 769 407 q 725 190 769 285 q 602 40 681 94 q 424 -14 524 -14 q 246 40 324 -14 q 124 190 168 94 q 79 407 79 285 q 124 624 79 529 q 246 774 168 719 q 424 829 324 829 q 602 774 524 829 q 725 624 681 719 q 769 407 769 529 m 699 407 q 664 593 699 513 q 567 719 629 674 q 424 764 506 764 q 281 719 343 764 q 183 593 218 674 q 149 407 149 513 q 183 222 149 301 q 281 97 218 142 q 424 51 343 51 q 567 97 506 51 q 664 222 629 142 q 699 407 699 301 z "},"1":{"ha":567,"x_min":63,"x_max":538,"o":"m 538 64 l 538 0 l 94 0 l 94 64 l 292 64 l 292 706 q 253 669 279 689 q 193 632 226 650 q 125 603 160 614 q 63 592 90 592 l 63 661 q 135 680 97 661 q 208 723 174 699 q 266 768 243 747 q 292 793 289 789 l 361 793 l 361 64 l 538 64 z "},"2":{"ha":706,"x_min":63,"x_max":639,"o":"m 63 0 q 70 86 63 39 q 101 183 78 133 q 171 281 124 233 q 296 364 218 328 q 380 403 336 383 q 463 447 424 422 q 525 506 501 472 q 549 588 549 540 q 527 661 549 625 q 461 720 506 697 q 350 743 417 743 q 265 729 303 743 q 198 696 226 715 q 150 658 169 676 q 122 628 131 639 l 75 675 q 102 701 81 681 q 160 747 124 722 q 247 789 197 771 q 360 807 297 807 q 503 776 444 807 q 592 697 561 746 q 624 593 624 649 q 597 493 624 535 q 531 422 571 451 q 448 371 492 392 q 368 335 404 350 q 256 268 300 304 q 187 194 213 232 q 149 124 161 157 q 133 64 138 92 l 639 64 l 639 0 l 63 0 z "},"3":{"ha":735,"x_min":57,"x_max":667,"o":"m 458 328 q 569 284 522 319 q 641 194 615 249 q 667 72 667 140 q 627 -72 667 -10 q 517 -169 588 -135 q 356 -204 447 -204 q 172 -160 251 -204 q 57 -37 93 -115 l 108 4 q 199 -101 135 -61 q 357 -140 264 -140 q 530 -83 465 -140 q 594 75 594 -26 q 528 236 594 176 q 342 296 463 296 l 308 296 l 308 357 l 344 357 q 517 408 457 357 q 576 543 576 460 q 548 647 576 604 q 470 713 519 689 q 357 736 421 736 q 212 698 275 736 q 119 594 149 660 l 72 633 q 137 721 94 683 q 238 779 179 758 q 363 800 296 800 q 510 768 446 800 q 612 680 575 736 q 649 550 649 624 q 626 447 649 494 q 560 367 603 399 q 458 328 517 336 z "},"4":{"ha":744,"x_min":29,"x_max":701,"o":"m 510 -176 l 510 82 l 29 82 l 29 143 l 531 793 l 579 793 l 579 146 l 701 146 l 701 82 l 579 82 l 579 -176 l 510 -176 m 107 146 l 515 146 l 515 681 l 107 146 z "},"5":{"ha":753,"x_min":50,"x_max":701,"o":"m 365 -207 q 176 -153 260 -207 q 50 -12 92 -100 l 101 17 q 210 -99 139 -56 q 365 -143 281 -143 q 500 -110 440 -143 q 595 -19 560 -78 q 631 117 631 40 q 596 247 631 190 q 503 335 561 304 q 374 367 446 367 q 241 335 304 367 q 138 246 178 304 l 71 246 l 181 793 l 653 793 l 653 728 l 233 728 l 156 338 q 256 406 197 382 q 381 431 315 431 q 542 390 469 431 q 658 280 615 350 q 701 117 701 210 q 656 -53 701 21 q 533 -167 610 -126 q 365 -207 457 -207 z "},"6":{"ha":833,"x_min":75,"x_max":772,"o":"m 772 324 q 727 492 772 417 q 606 614 682 568 q 435 660 529 660 q 310 635 368 660 q 208 565 251 610 q 143 460 164 519 q 179 715 143 610 q 281 875 215 819 q 433 931 347 931 q 583 885 517 931 q 676 764 649 839 l 725 801 q 610 942 688 890 q 433 993 532 993 q 246 928 326 993 q 120 728 165 863 q 75 388 75 594 q 120 174 75 264 q 245 35 165 83 q 426 -14 325 -14 q 602 31 524 -14 q 726 153 681 76 q 772 324 772 231 m 428 49 q 290 86 353 49 q 188 187 226 124 q 150 324 150 250 q 188 463 150 400 q 289 563 225 525 q 428 600 353 600 q 566 563 503 600 q 667 462 629 525 q 706 324 706 399 q 668 185 706 249 q 567 85 631 122 q 428 49 504 49 z "},"7":{"ha":743,"x_min":56,"x_max":721,"o":"m 610 744 l 56 744 l 56 810 l 721 810 l 219 -176 l 140 -176 l 610 744 z "},"8":{"ha":818,"x_min":71,"x_max":746,"o":"m 746 269 q 699 122 746 185 q 574 24 651 58 q 404 -10 496 -10 q 231 29 306 -10 q 113 133 156 68 q 71 274 71 197 q 102 390 71 339 q 181 477 133 442 q 281 529 229 513 q 194 577 233 547 q 130 649 154 607 q 106 740 106 690 q 132 846 106 800 q 203 923 158 892 q 301 970 247 954 q 410 986 354 986 q 517 970 464 986 q 615 923 571 954 q 686 847 660 892 q 713 742 713 801 q 688 649 713 690 q 624 577 664 607 q 536 529 583 547 q 642 473 594 510 q 717 385 689 436 q 746 269 746 333 m 676 275 q 652 369 676 328 q 588 440 628 411 q 501 483 549 468 q 407 499 454 499 q 281 470 342 499 q 181 392 221 442 q 142 274 142 342 q 166 180 142 221 q 229 110 190 139 q 316 66 268 81 q 411 51 364 51 q 536 79 475 51 q 637 158 597 107 q 676 275 676 208 m 176 738 q 212 638 176 679 q 301 576 247 597 q 408 556 356 556 q 516 577 463 556 q 606 640 569 599 q 642 740 642 682 q 608 839 642 799 q 520 901 574 879 q 407 922 467 922 q 295 900 349 922 q 209 837 242 878 q 176 738 176 796 z "},"9":{"ha":810,"x_min":51,"x_max":749,"o":"m 51 456 q 97 287 51 363 q 218 165 142 211 q 389 119 294 119 q 514 144 456 119 q 617 215 572 169 q 681 319 661 261 q 644 65 681 169 q 543 -96 608 -40 q 390 -151 478 -151 q 242 -106 308 -151 q 147 15 175 -60 l 99 -22 q 214 -162 136 -111 q 390 -214 292 -214 q 578 -149 497 -214 q 703 51 658 -83 q 749 392 749 185 q 703 606 749 517 q 579 744 658 696 q 397 793 500 793 q 222 748 301 793 q 97 626 143 703 q 51 456 51 549 m 396 731 q 534 693 471 731 q 635 593 597 656 q 674 456 674 531 q 636 317 674 381 q 535 217 599 254 q 396 179 472 179 q 258 217 321 179 q 156 317 194 254 q 118 456 118 381 q 156 594 118 532 q 256 693 193 656 q 396 731 319 731 z "},"A":{"ha":938,"x_min":19,"x_max":917,"o":"m 439 986 l 500 986 l 917 0 l 842 0 l 704 325 l 233 325 l 96 0 l 19 0 l 439 986 m 685 383 l 469 900 l 250 383 l 685 383 z "},"Á":{"ha":938,"x_min":19,"x_max":917,"o":"m 439 986 l 500 986 l 917 0 l 842 0 l 704 325 l 233 325 l 96 0 l 19 0 l 439 986 m 685 383 l 469 900 l 250 383 l 685 383 m 493 1133 l 444 1156 l 529 1274 l 610 1274 l 493 1133 z "},"Ă":{"ha":938,"x_min":19,"x_max":917,"o":"m 439 986 l 500 986 l 917 0 l 842 0 l 704 325 l 233 325 l 96 0 l 19 0 l 439 986 m 685 383 l 469 900 l 250 383 l 685 383 m 469 1185 q 520 1210 497 1185 q 547 1274 543 1236 l 593 1274 q 556 1183 593 1221 q 469 1146 519 1146 q 382 1183 418 1146 q 346 1274 346 1221 l 392 1274 q 415 1213 392 1240 q 469 1185 439 1185 z "},"Ắ":{"ha":938,"x_min":19,"x_max":917,"o":"m 439 986 l 500 986 l 917 0 l 842 0 l 704 325 l 233 325 l 96 0 l 19 0 l 439 986 m 685 383 l 469 900 l 250 383 l 685 383 z "},"Ặ":{"ha":938,"x_min":19,"x_max":917,"o":"m 439 986 l 500 986 l 917 0 l 842 0 l 704 325 l 233 325 l 96 0 l 19 0 l 439 986 m 685 383 l 469 900 l 250 383 l 685 383 m 450 -212 l 450 -89 l 514 -89 l 514 -212 l 450 -212 m 469 1185 q 520 1210 497 1185 q 547 1274 543 1236 l 593 1274 q 556 1183 593 1221 q 469 1146 519 1146 q 382 1183 418 1146 q 346 1274 346 1221 l 392 1274 q 415 1213 392 1240 q 469 1185 439 1185 z "},"Ằ":{"ha":938,"x_min":19,"x_max":917,"o":"m 439 986 l 500 986 l 917 0 l 842 0 l 704 325 l 233 325 l 96 0 l 19 0 l 439 986 m 685 383 l 469 900 l 250 383 l 685 383 z "},"Ẳ":{"ha":938,"x_min":19,"x_max":917,"o":"m 439 986 l 500 986 l 917 0 l 842 0 l 704 325 l 233 325 l 96 0 l 19 0 l 439 986 m 685 383 l 469 900 l 250 383 l 685 383 z "},"Ẵ":{"ha":938,"x_min":19,"x_max":917,"o":"m 439 986 l 500 986 l 917 0 l 842 0 l 704 325 l 233 325 l 96 0 l 19 0 l 439 986 m 685 383 l 469 900 l 250 383 l 685 383 z "},"Â":{"ha":938,"x_min":19,"x_max":917,"o":"m 439 986 l 500 986 l 917 0 l 842 0 l 704 325 l 233 325 l 96 0 l 19 0 l 439 986 m 685 383 l 469 900 l 250 383 l 685 383 m 310 1161 l 443 1274 l 494 1274 l 629 1161 l 588 1138 l 469 1225 l 351 1138 l 310 1161 z "},"Ấ":{"ha":938,"x_min":19,"x_max":917,"o":"m 439 986 l 500 986 l 917 0 l 842 0 l 704 325 l 233 325 l 96 0 l 19 0 l 439 986 m 685 383 l 469 900 l 250 383 l 685 383 z "},"Ậ":{"ha":938,"x_min":19,"x_max":917,"o":"m 439 986 l 500 986 l 917 0 l 842 0 l 704 325 l 233 325 l 96 0 l 19 0 l 439 986 m 685 383 l 469 900 l 250 383 l 685 383 m 450 -212 l 450 -89 l 514 -89 l 514 -212 l 450 -212 m 310 1161 l 443 1274 l 494 1274 l 629 1161 l 588 1138 l 469 1225 l 351 1138 l 310 1161 z "},"Ầ":{"ha":938,"x_min":19,"x_max":917,"o":"m 439 986 l 500 986 l 917 0 l 842 0 l 704 325 l 233 325 l 96 0 l 19 0 l 439 986 m 685 383 l 469 900 l 250 383 l 685 383 z "},"Ẩ":{"ha":938,"x_min":19,"x_max":917,"o":"m 439 986 l 500 986 l 917 0 l 842 0 l 704 325 l 233 325 l 96 0 l 19 0 l 439 986 m 685 383 l 469 900 l 250 383 l 685 383 z "},"Ẫ":{"ha":938,"x_min":19,"x_max":917,"o":"m 439 986 l 500 986 l 917 0 l 842 0 l 704 325 l 233 325 l 96 0 l 19 0 l 439 986 m 685 383 l 469 900 l 250 383 l 685 383 z "},"Ȁ":{"ha":938,"x_min":19,"x_max":917,"o":"m 439 986 l 500 986 l 917 0 l 842 0 l 704 325 l 233 325 l 96 0 l 19 0 l 439 986 m 685 383 l 469 900 l 250 383 l 685 383 m 429 1275 l 501 1275 l 585 1157 l 544 1135 l 429 1275 m 268 1275 l 342 1275 l 424 1157 l 383 1135 l 268 1275 z "},"Ä":{"ha":938,"x_min":19,"x_max":917,"o":"m 439 986 l 500 986 l 917 0 l 842 0 l 704 325 l 233 325 l 96 0 l 19 0 l 439 986 m 685 383 l 469 900 l 250 383 l 685 383 m 344 1150 l 344 1272 l 406 1272 l 406 1150 l 344 1150 m 533 1150 l 533 1272 l 594 1272 l 594 1150 l 533 1150 z "},"Ạ":{"ha":938,"x_min":19,"x_max":917,"o":"m 439 986 l 500 986 l 917 0 l 842 0 l 704 325 l 233 325 l 96 0 l 19 0 l 439 986 m 685 383 l 469 900 l 250 383 l 685 383 m 450 -212 l 450 -89 l 514 -89 l 514 -212 l 450 -212 z "},"À":{"ha":938,"x_min":19,"x_max":917,"o":"m 439 986 l 500 986 l 917 0 l 842 0 l 704 325 l 233 325 l 96 0 l 19 0 l 439 986 m 685 383 l 469 900 l 250 383 l 685 383 m 353 1275 l 432 1275 l 518 1157 l 471 1135 l 353 1275 z "},"Ả":{"ha":938,"x_min":19,"x_max":917,"o":"m 439 986 l 500 986 l 917 0 l 842 0 l 704 325 l 233 325 l 96 0 l 19 0 l 439 986 m 685 383 l 469 900 l 250 383 l 685 383 m 404 1215 l 374 1246 q 422 1279 399 1267 q 475 1292 444 1292 q 540 1267 517 1292 q 563 1207 563 1243 q 546 1155 563 1179 q 497 1100 529 1131 l 474 1126 q 506 1167 496 1150 q 517 1201 517 1185 q 505 1235 517 1221 q 469 1249 493 1249 q 438 1241 451 1249 q 404 1215 424 1233 z "},"Ȃ":{"ha":938,"x_min":19,"x_max":917,"o":"m 439 986 l 500 986 l 917 0 l 842 0 l 704 325 l 233 325 l 96 0 l 19 0 l 439 986 m 685 383 l 469 900 l 250 383 l 685 383 m 469 1235 q 415 1208 439 1235 q 392 1146 392 1181 l 346 1146 q 382 1236 346 1199 q 469 1274 418 1274 q 556 1236 519 1274 q 593 1146 593 1199 l 547 1146 q 520 1209 543 1183 q 469 1235 497 1235 z "},"Ā":{"ha":938,"x_min":19,"x_max":917,"o":"m 439 986 l 500 986 l 917 0 l 842 0 l 704 325 l 233 325 l 96 0 l 19 0 l 439 986 m 685 383 l 469 900 l 250 383 l 685 383 m 272 1193 l 272 1244 l 668 1244 l 668 1193 l 272 1193 z "},"Ą":{"ha":938,"x_min":19,"x_max":917,"o":"m 439 986 l 500 986 l 917 0 l 842 0 l 704 325 l 233 325 l 96 0 l 19 0 l 439 986 m 685 383 l 469 900 l 250 383 l 685 383 m 758 -143 q 788 -62 758 -101 q 879 21 818 -22 l 897 21 l 918 0 q 836 -74 861 -43 q 811 -133 811 -106 q 836 -174 811 -161 q 914 -196 861 -187 l 893 -243 q 810 -222 840 -236 q 769 -187 781 -207 q 758 -143 758 -167 z "},"Å":{"ha":938,"x_min":19,"x_max":917,"o":"m 439 986 l 500 986 l 917 0 l 842 0 l 704 325 l 233 325 l 96 0 l 19 0 l 439 986 m 685 383 l 469 900 l 250 383 l 685 383 m 353 1196 q 387 1276 353 1244 q 469 1308 421 1308 q 553 1276 521 1308 q 586 1196 586 1244 q 553 1116 586 1147 q 469 1085 521 1085 q 387 1116 421 1085 q 353 1196 353 1147 m 469 1267 q 419 1248 440 1267 q 399 1196 399 1229 q 419 1146 399 1167 q 469 1125 440 1125 q 519 1144 497 1125 q 540 1196 540 1164 q 519 1248 540 1229 q 469 1267 499 1267 z "},"Ǻ":{"ha":938,"x_min":19,"x_max":917,"o":"m 500 1158 l 451 1179 l 536 1294 l 617 1294 l 500 1158 m 439 986 l 500 986 l 917 0 l 842 0 l 704 325 l 233 325 l 96 0 l 19 0 l 439 986 m 685 383 l 469 900 l 250 383 l 685 383 m 353 1081 q 386 1161 353 1129 q 469 1193 419 1193 q 553 1161 519 1193 q 586 1081 586 1129 q 553 1001 586 1032 q 469 969 519 969 q 386 1001 419 969 q 353 1081 353 1032 m 469 1151 q 419 1133 440 1151 q 399 1081 399 1114 q 419 1031 399 1051 q 469 1010 440 1010 q 518 1029 496 1010 q 540 1081 540 1049 q 519 1133 540 1114 q 469 1151 499 1151 z "},"Ã":{"ha":938,"x_min":19,"x_max":917,"o":"m 439 986 l 500 986 l 917 0 l 842 0 l 704 325 l 233 325 l 96 0 l 19 0 l 439 986 m 685 383 l 469 900 l 250 383 l 685 383 m 553 1158 q 483 1172 511 1158 q 430 1200 454 1186 q 376 1214 406 1214 q 331 1199 346 1214 q 312 1167 317 1183 q 307 1147 307 1150 l 260 1147 q 264 1171 260 1153 q 281 1210 268 1189 q 316 1247 293 1231 q 376 1263 339 1263 q 440 1249 414 1263 q 492 1221 467 1235 q 553 1207 518 1207 q 606 1222 590 1207 q 627 1254 622 1238 q 632 1274 632 1271 l 681 1274 q 676 1249 681 1268 q 657 1210 671 1231 q 618 1174 643 1189 q 553 1158 593 1158 z "},"Æ":{"ha":1336,"x_min":-37,"x_max":1274,"o":"m 603 986 l 1261 986 l 1261 922 l 692 922 l 692 536 l 1186 536 l 1186 471 l 692 471 l 692 64 l 1274 64 l 1274 0 l 622 0 l 622 325 l 251 325 l 42 0 l -37 0 l 603 986 m 618 389 l 618 897 l 285 389 l 618 389 z "},"Ǽ":{"ha":1336,"x_min":-37,"x_max":1274,"o":"m 603 986 l 1261 986 l 1261 922 l 692 922 l 692 536 l 1186 536 l 1186 471 l 692 471 l 692 64 l 1274 64 l 1274 0 l 622 0 l 622 325 l 251 325 l 42 0 l -37 0 l 603 986 m 618 389 l 618 897 l 285 389 l 618 389 m 815 1133 l 767 1156 l 851 1274 l 932 1274 l 815 1133 z "},"B":{"ha":919,"x_min":129,"x_max":856,"o":"m 856 256 q 820 126 856 183 q 724 34 785 68 q 590 0 664 0 l 129 0 l 129 986 l 589 986 q 709 949 658 986 q 787 855 760 913 q 814 735 814 797 q 776 598 814 661 q 672 506 739 535 q 806 412 757 481 q 856 256 856 343 m 785 265 q 760 364 785 318 q 694 439 736 410 q 600 468 653 468 l 200 468 l 200 64 l 590 64 q 689 92 644 64 q 759 167 733 121 q 785 265 785 214 m 200 922 l 200 528 l 561 528 q 656 556 615 528 q 721 630 697 585 q 744 725 744 675 q 722 824 744 779 q 660 895 700 868 q 569 922 621 922 l 200 922 z "},"C":{"ha":958,"x_min":61,"x_max":913,"o":"m 61 500 q 92 676 61 589 q 183 834 124 763 q 330 949 243 906 q 528 992 417 992 q 753 931 660 992 q 892 776 846 871 l 833 743 q 748 851 799 811 q 639 909 697 892 q 522 926 581 926 q 356 889 429 926 q 233 789 283 851 q 158 650 183 726 q 132 496 132 574 q 163 330 132 408 q 247 190 193 251 q 372 93 300 129 q 526 57 443 57 q 648 77 586 57 q 764 140 710 97 q 851 250 818 182 l 913 221 q 817 96 881 147 q 675 18 753 44 q 521 -8 597 -8 q 336 35 421 -8 q 190 152 251 79 q 94 316 128 225 q 61 500 61 407 z "},"Ć":{"ha":958,"x_min":61,"x_max":913,"o":"m 61 500 q 92 676 61 589 q 183 834 124 763 q 330 949 243 906 q 528 992 417 992 q 753 931 660 992 q 892 776 846 871 l 833 743 q 748 851 799 811 q 639 909 697 892 q 522 926 581 926 q 356 889 429 926 q 233 789 283 851 q 158 650 183 726 q 132 496 132 574 q 163 330 132 408 q 247 190 193 251 q 372 93 300 129 q 526 57 443 57 q 648 77 586 57 q 764 140 710 97 q 851 250 818 182 l 913 221 q 817 96 881 147 q 675 18 753 44 q 521 -8 597 -8 q 336 35 421 -8 q 190 152 251 79 q 94 316 128 225 q 61 500 61 407 m 550 1133 l 501 1156 l 586 1274 l 667 1274 l 550 1133 z "},"Č":{"ha":958,"x_min":61,"x_max":913,"o":"m 61 500 q 92 676 61 589 q 183 834 124 763 q 330 949 243 906 q 528 992 417 992 q 753 931 660 992 q 892 776 846 871 l 833 743 q 748 851 799 811 q 639 909 697 892 q 522 926 581 926 q 356 889 429 926 q 233 789 283 851 q 158 650 183 726 q 132 496 132 574 q 163 330 132 408 q 247 190 193 251 q 372 93 300 129 q 526 57 443 57 q 648 77 586 57 q 764 140 710 97 q 851 250 818 182 l 913 221 q 817 96 881 147 q 675 18 753 44 q 521 -8 597 -8 q 336 35 421 -8 q 190 152 251 79 q 94 316 128 225 q 61 500 61 407 m 408 1274 l 526 1186 l 644 1274 l 686 1250 l 551 1138 l 500 1138 l 367 1250 l 408 1274 z "},"Ç":{"ha":958,"x_min":61,"x_max":913,"o":"m 61 500 q 92 676 61 589 q 183 834 124 763 q 330 949 243 906 q 528 992 417 992 q 753 931 660 992 q 892 776 846 871 l 833 743 q 748 851 799 811 q 639 909 697 892 q 522 926 581 926 q 356 889 429 926 q 233 789 283 851 q 158 650 183 726 q 132 496 132 574 q 163 330 132 408 q 247 190 193 251 q 372 93 300 129 q 526 57 443 57 q 648 77 586 57 q 764 140 710 97 q 851 250 818 182 l 913 221 q 817 96 881 147 q 675 18 753 44 q 521 -8 597 -8 q 336 35 421 -8 q 190 152 251 79 q 94 316 128 225 q 61 500 61 407 m 508 -242 q 431 -233 472 -242 q 351 -204 389 -224 l 375 -161 q 433 -184 406 -175 q 496 -193 461 -193 q 572 -175 546 -193 q 599 -119 599 -157 q 572 -55 599 -82 q 497 0 546 -28 l 532 21 q 617 -45 586 -11 q 649 -129 649 -79 q 610 -213 649 -185 q 508 -242 571 -242 z "},"Ḉ":{"ha":958,"x_min":61,"x_max":913,"o":"m 61 500 q 92 676 61 589 q 183 834 124 763 q 330 949 243 906 q 528 992 417 992 q 753 931 660 992 q 892 776 846 871 l 833 743 q 748 851 799 811 q 639 909 697 892 q 522 926 581 926 q 356 889 429 926 q 233 789 283 851 q 158 650 183 726 q 132 496 132 574 q 163 330 132 408 q 247 190 193 251 q 372 93 300 129 q 526 57 443 57 q 648 77 586 57 q 764 140 710 97 q 851 250 818 182 l 913 221 q 817 96 881 147 q 675 18 753 44 q 521 -8 597 -8 q 336 35 421 -8 q 190 152 251 79 q 94 316 128 225 q 61 500 61 407 m 508 -242 q 431 -233 472 -242 q 351 -204 389 -224 l 375 -161 q 433 -184 406 -175 q 496 -193 461 -193 q 572 -175 546 -193 q 599 -119 599 -157 q 572 -55 599 -82 q 497 0 546 -28 l 532 21 q 617 -45 586 -11 q 649 -129 649 -79 q 610 -213 649 -185 q 508 -242 571 -242 m 550 1133 l 501 1156 l 586 1274 l 667 1274 l 550 1133 z "},"Ĉ":{"ha":958,"x_min":61,"x_max":913,"o":"m 61 500 q 92 676 61 589 q 183 834 124 763 q 330 949 243 906 q 528 992 417 992 q 753 931 660 992 q 892 776 846 871 l 833 743 q 748 851 799 811 q 639 909 697 892 q 522 926 581 926 q 356 889 429 926 q 233 789 283 851 q 158 650 183 726 q 132 496 132 574 q 163 330 132 408 q 247 190 193 251 q 372 93 300 129 q 526 57 443 57 q 648 77 586 57 q 764 140 710 97 q 851 250 818 182 l 913 221 q 817 96 881 147 q 675 18 753 44 q 521 -8 597 -8 q 336 35 421 -8 q 190 152 251 79 q 94 316 128 225 q 61 500 61 407 m 367 1161 l 500 1274 l 551 1274 l 686 1161 l 644 1138 l 526 1225 l 408 1138 l 367 1161 z "},"Ċ":{"ha":958,"x_min":61,"x_max":913,"o":"m 61 500 q 92 676 61 589 q 183 834 124 763 q 330 949 243 906 q 528 992 417 992 q 753 931 660 992 q 892 776 846 871 l 833 743 q 748 851 799 811 q 639 909 697 892 q 522 926 581 926 q 356 889 429 926 q 233 789 283 851 q 158 650 183 726 q 132 496 132 574 q 163 330 132 408 q 247 190 193 251 q 372 93 300 129 q 526 57 443 57 q 648 77 586 57 q 764 140 710 97 q 851 250 818 182 l 913 221 q 817 96 881 147 q 675 18 753 44 q 521 -8 597 -8 q 336 35 421 -8 q 190 152 251 79 q 94 316 128 225 q 61 500 61 407 m 494 1149 l 494 1274 l 558 1274 l 558 1149 l 494 1149 z "},"D":{"ha":990,"x_min":129,"x_max":925,"o":"m 129 0 l 129 986 l 457 986 q 717 920 614 986 q 873 742 821 854 q 925 494 925 631 q 868 233 925 344 q 706 61 811 122 q 457 0 600 0 l 129 0 m 854 494 q 808 715 854 618 q 673 867 761 813 q 457 922 585 922 l 200 922 l 200 64 l 457 64 q 675 121 586 64 q 809 276 764 178 q 854 494 854 374 z "},"Ð":{"ha":1000,"x_min":49,"x_max":935,"o":"m 49 467 l 49 525 l 457 525 l 457 467 l 49 467 m 138 0 l 138 986 l 465 986 q 726 920 622 986 q 883 742 831 854 q 935 494 935 631 q 877 233 935 344 q 715 61 819 122 q 465 0 610 0 l 138 0 m 863 494 q 817 715 863 618 q 682 867 771 813 q 465 922 593 922 l 208 922 l 208 64 l 465 64 q 684 121 596 64 q 817 276 772 178 q 863 494 863 374 z "},"Ď":{"ha":990,"x_min":129,"x_max":925,"o":"m 129 0 l 129 986 l 457 986 q 717 920 614 986 q 873 742 821 854 q 925 494 925 631 q 868 233 925 344 q 706 61 811 122 q 457 0 600 0 l 129 0 m 854 494 q 808 715 854 618 q 673 867 761 813 q 457 922 585 922 l 200 922 l 200 64 l 457 64 q 675 121 586 64 q 809 276 764 178 q 854 494 854 374 m 364 1274 l 482 1186 l 600 1274 l 642 1250 l 507 1138 l 456 1138 l 322 1250 l 364 1274 z "},"Đ":{"ha":1000,"x_min":49,"x_max":935,"o":"m 49 467 l 49 525 l 457 525 l 457 467 l 49 467 m 138 0 l 138 986 l 465 986 q 726 920 622 986 q 883 742 831 854 q 935 494 935 631 q 877 233 935 344 q 715 61 819 122 q 465 0 610 0 l 138 0 m 863 494 q 817 715 863 618 q 682 867 771 813 q 465 922 593 922 l 208 922 l 208 64 l 465 64 q 684 121 596 64 q 817 276 772 178 q 863 494 863 374 z "},"Ḍ":{"ha":990,"x_min":129,"x_max":925,"o":"m 129 0 l 129 986 l 457 986 q 717 920 614 986 q 873 742 821 854 q 925 494 925 631 q 868 233 925 344 q 706 61 811 122 q 457 0 600 0 l 129 0 m 854 494 q 808 715 854 618 q 673 867 761 813 q 457 922 585 922 l 200 922 l 200 64 l 457 64 q 675 121 586 64 q 809 276 764 178 q 854 494 854 374 m 464 -212 l 464 -89 l 528 -89 l 528 -212 l 464 -212 z "},"Ḏ":{"ha":990,"x_min":129,"x_max":925,"o":"m 129 0 l 129 986 l 457 986 q 717 920 614 986 q 873 742 821 854 q 925 494 925 631 q 868 233 925 344 q 706 61 811 122 q 457 0 600 0 l 129 0 m 854 494 q 808 715 854 618 q 673 867 761 813 q 457 922 585 922 l 200 922 l 200 64 l 457 64 q 675 121 586 64 q 809 276 764 178 q 854 494 854 374 m 299 -161 l 299 -110 l 694 -110 l 694 -161 l 299 -161 z "},"E":{"ha":850,"x_min":129,"x_max":786,"o":"m 786 64 l 786 0 l 129 0 l 129 986 l 774 986 l 774 922 l 200 922 l 200 535 l 701 535 l 701 474 l 200 474 l 200 64 l 786 64 z "},"É":{"ha":850,"x_min":129,"x_max":786,"o":"m 786 64 l 786 0 l 129 0 l 129 986 l 774 986 l 774 922 l 200 922 l 200 535 l 701 535 l 701 474 l 200 474 l 200 64 l 786 64 m 496 1133 l 447 1156 l 532 1274 l 613 1274 l 496 1133 z "},"Ĕ":{"ha":850,"x_min":129,"x_max":786,"o":"m 786 64 l 786 0 l 129 0 l 129 986 l 774 986 l 774 922 l 200 922 l 200 535 l 701 535 l 701 474 l 200 474 l 200 64 l 786 64 m 472 1185 q 523 1210 500 1185 q 550 1274 546 1236 l 596 1274 q 559 1183 596 1221 q 472 1146 522 1146 q 385 1183 421 1146 q 349 1274 349 1221 l 394 1274 q 418 1213 394 1240 q 472 1185 442 1185 z "},"Ě":{"ha":850,"x_min":129,"x_max":786,"o":"m 786 64 l 786 0 l 129 0 l 129 986 l 774 986 l 774 922 l 200 922 l 200 535 l 701 535 l 701 474 l 200 474 l 200 64 l 786 64 m 354 1274 l 472 1186 l 590 1274 l 632 1250 l 497 1138 l 446 1138 l 313 1250 l 354 1274 z "},"Ḝ":{"ha":850,"x_min":129,"x_max":786,"o":"m 786 64 l 786 0 l 129 0 l 129 986 l 774 986 l 774 922 l 200 922 l 200 535 l 701 535 l 701 474 l 200 474 l 200 64 l 786 64 m 457 -242 q 379 -233 421 -242 q 300 -204 338 -224 l 324 -161 q 382 -184 354 -175 q 444 -193 410 -193 q 521 -175 494 -193 q 547 -119 547 -157 q 521 -55 547 -82 q 446 0 494 -28 l 481 21 q 566 -45 535 -11 q 597 -129 597 -79 q 558 -213 597 -185 q 457 -242 519 -242 m 472 1185 q 523 1210 500 1185 q 550 1274 546 1236 l 596 1274 q 559 1183 596 1221 q 472 1146 522 1146 q 385 1183 421 1146 q 349 1274 349 1221 l 394 1274 q 418 1213 394 1240 q 472 1185 442 1185 z "},"Ê":{"ha":850,"x_min":129,"x_max":786,"o":"m 786 64 l 786 0 l 129 0 l 129 986 l 774 986 l 774 922 l 200 922 l 200 535 l 701 535 l 701 474 l 200 474 l 200 64 l 786 64 m 313 1161 l 446 1274 l 497 1274 l 632 1161 l 590 1138 l 472 1225 l 354 1138 l 313 1161 z "},"Ế":{"ha":850,"x_min":129,"x_max":786,"o":"m 786 64 l 786 0 l 129 0 l 129 986 l 774 986 l 774 922 l 200 922 l 200 535 l 701 535 l 701 474 l 200 474 l 200 64 l 786 64 z "},"Ệ":{"ha":850,"x_min":129,"x_max":786,"o":"m 786 64 l 786 0 l 129 0 l 129 986 l 774 986 l 774 922 l 200 922 l 200 535 l 701 535 l 701 474 l 200 474 l 200 64 l 786 64 m 439 -212 l 439 -89 l 503 -89 l 503 -212 l 439 -212 m 313 1161 l 446 1274 l 497 1274 l 632 1161 l 590 1138 l 472 1225 l 354 1138 l 313 1161 z "},"Ề":{"ha":850,"x_min":129,"x_max":786,"o":"m 786 64 l 786 0 l 129 0 l 129 986 l 774 986 l 774 922 l 200 922 l 200 535 l 701 535 l 701 474 l 200 474 l 200 64 l 786 64 z "},"Ể":{"ha":850,"x_min":129,"x_max":786,"o":"m 786 64 l 786 0 l 129 0 l 129 986 l 774 986 l 774 922 l 200 922 l 200 535 l 701 535 l 701 474 l 200 474 l 200 64 l 786 64 z "},"Ễ":{"ha":850,"x_min":129,"x_max":786,"o":"m 786 64 l 786 0 l 129 0 l 129 986 l 774 986 l 774 922 l 200 922 l 200 535 l 701 535 l 701 474 l 200 474 l 200 64 l 786 64 z "},"Ȅ":{"ha":850,"x_min":129,"x_max":786,"o":"m 786 64 l 786 0 l 129 0 l 129 986 l 774 986 l 774 922 l 200 922 l 200 535 l 701 535 l 701 474 l 200 474 l 200 64 l 786 64 m 432 1275 l 504 1275 l 588 1157 l 547 1135 l 432 1275 m 271 1275 l 344 1275 l 426 1157 l 386 1135 l 271 1275 z "},"Ë":{"ha":850,"x_min":129,"x_max":786,"o":"m 786 64 l 786 0 l 129 0 l 129 986 l 774 986 l 774 922 l 200 922 l 200 535 l 701 535 l 701 474 l 200 474 l 200 64 l 786 64 m 346 1150 l 346 1272 l 407 1272 l 407 1150 l 346 1150 m 535 1150 l 535 1272 l 596 1272 l 596 1150 l 535 1150 z "},"Ė":{"ha":850,"x_min":129,"x_max":786,"o":"m 786 64 l 786 0 l 129 0 l 129 986 l 774 986 l 774 922 l 200 922 l 200 535 l 701 535 l 701 474 l 200 474 l 200 64 l 786 64 m 439 1149 l 439 1274 l 503 1274 l 503 1149 l 439 1149 z "},"Ẹ":{"ha":850,"x_min":129,"x_max":786,"o":"m 786 64 l 786 0 l 129 0 l 129 986 l 774 986 l 774 922 l 200 922 l 200 535 l 701 535 l 701 474 l 200 474 l 200 64 l 786 64 m 439 -212 l 439 -89 l 503 -89 l 503 -212 l 439 -212 z "},"È":{"ha":850,"x_min":129,"x_max":786,"o":"m 786 64 l 786 0 l 129 0 l 129 986 l 774 986 l 774 922 l 200 922 l 200 535 l 701 535 l 701 474 l 200 474 l 200 64 l 786 64 m 356 1275 l 435 1275 l 521 1157 l 474 1135 l 356 1275 z "},"Ẻ":{"ha":850,"x_min":129,"x_max":786,"o":"m 786 64 l 786 0 l 129 0 l 129 986 l 774 986 l 774 922 l 200 922 l 200 535 l 701 535 l 701 474 l 200 474 l 200 64 l 786 64 m 407 1215 l 376 1246 q 424 1279 401 1267 q 478 1292 447 1292 q 542 1267 519 1292 q 565 1207 565 1243 q 549 1155 565 1179 q 500 1100 532 1131 l 476 1126 q 509 1167 499 1150 q 519 1201 519 1185 q 508 1235 519 1221 q 472 1249 496 1249 q 440 1241 454 1249 q 407 1215 426 1233 z "},"Ȇ":{"ha":850,"x_min":129,"x_max":786,"o":"m 786 64 l 786 0 l 129 0 l 129 986 l 774 986 l 774 922 l 200 922 l 200 535 l 701 535 l 701 474 l 200 474 l 200 64 l 786 64 m 472 1235 q 418 1208 442 1235 q 394 1146 394 1181 l 349 1146 q 385 1236 349 1199 q 472 1274 421 1274 q 559 1236 522 1274 q 596 1146 596 1199 l 550 1146 q 523 1209 546 1183 q 472 1235 500 1235 z "},"Ē":{"ha":850,"x_min":129,"x_max":786,"o":"m 786 64 l 786 0 l 129 0 l 129 986 l 774 986 l 774 922 l 200 922 l 200 535 l 701 535 l 701 474 l 200 474 l 200 64 l 786 64 m 275 1193 l 275 1244 l 671 1244 l 671 1193 l 275 1193 z "},"Ḗ":{"ha":850,"x_min":129,"x_max":786,"o":"m 786 64 l 786 0 l 129 0 l 129 986 l 774 986 l 774 922 l 200 922 l 200 535 l 701 535 l 701 474 l 200 474 l 200 64 l 786 64 m 275 1193 l 275 1244 l 671 1244 l 671 1193 l 275 1193 m 496 1394 l 447 1417 l 532 1535 l 613 1535 l 496 1394 z "},"Ḕ":{"ha":850,"x_min":129,"x_max":786,"o":"m 786 64 l 786 0 l 129 0 l 129 986 l 774 986 l 774 922 l 200 922 l 200 535 l 701 535 l 701 474 l 200 474 l 200 64 l 786 64 m 275 1193 l 275 1244 l 671 1244 l 671 1193 l 275 1193 m 356 1536 l 435 1536 l 521 1418 l 474 1396 l 356 1536 z "},"Ę":{"ha":850,"x_min":129,"x_max":786,"o":"m 786 64 l 786 0 l 129 0 l 129 986 l 774 986 l 774 922 l 200 922 l 200 535 l 701 535 l 701 474 l 200 474 l 200 64 l 786 64 m 626 -143 q 656 -62 626 -101 q 747 21 686 -22 l 765 21 l 786 0 q 704 -74 729 -43 q 679 -133 679 -106 q 704 -174 679 -161 q 782 -196 729 -187 l 761 -243 q 678 -222 708 -236 q 638 -187 649 -207 q 626 -143 626 -167 z "},"Ẽ":{"ha":850,"x_min":129,"x_max":786,"o":"m 786 64 l 786 0 l 129 0 l 129 986 l 774 986 l 774 922 l 200 922 l 200 535 l 701 535 l 701 474 l 200 474 l 200 64 l 786 64 m 554 1158 q 484 1172 513 1158 q 431 1200 456 1186 q 378 1214 407 1214 q 333 1199 347 1214 q 313 1167 318 1183 q 308 1147 308 1150 l 261 1147 q 265 1171 261 1153 q 282 1210 269 1189 q 317 1247 294 1231 q 378 1263 340 1263 q 442 1249 415 1263 q 494 1221 468 1235 q 554 1207 519 1207 q 608 1222 592 1207 q 628 1254 624 1238 q 633 1274 633 1271 l 682 1274 q 677 1249 682 1268 q 658 1210 672 1231 q 619 1174 644 1189 q 554 1158 594 1158 z "},"F":{"ha":825,"x_min":129,"x_max":771,"o":"m 129 0 l 129 986 l 771 986 l 771 922 l 200 922 l 200 531 l 685 531 l 685 469 l 200 469 l 200 0 l 129 0 z "},"G":{"ha":996,"x_min":61,"x_max":917,"o":"m 524 -7 q 339 36 424 -7 q 192 151 254 79 q 95 312 129 222 q 61 494 61 401 q 94 681 61 592 q 189 841 128 771 q 333 952 250 911 q 515 993 417 993 q 753 933 663 993 q 892 778 844 872 l 833 743 q 701 884 783 840 q 514 928 618 928 q 356 891 426 928 q 235 792 285 854 q 158 653 185 731 q 132 493 132 575 q 163 328 132 406 q 247 189 193 250 q 374 93 301 128 q 528 58 446 58 q 708 105 624 58 q 871 251 793 151 l 871 172 q 524 -7 724 -7 m 856 422 l 632 422 l 632 479 l 917 479 l 917 0 l 856 0 l 856 422 z "},"Ğ":{"ha":996,"x_min":61,"x_max":917,"o":"m 524 -7 q 339 36 424 -7 q 192 151 254 79 q 95 312 129 222 q 61 494 61 401 q 94 681 61 592 q 189 841 128 771 q 333 952 250 911 q 515 993 417 993 q 753 933 663 993 q 892 778 844 872 l 833 743 q 701 884 783 840 q 514 928 618 928 q 356 891 426 928 q 235 792 285 854 q 158 653 185 731 q 132 493 132 575 q 163 328 132 406 q 247 189 193 250 q 374 93 301 128 q 528 58 446 58 q 708 105 624 58 q 871 251 793 151 l 871 172 q 524 -7 724 -7 m 856 422 l 632 422 l 632 479 l 917 479 l 917 0 l 856 0 l 856 422 m 514 1185 q 565 1210 542 1185 q 592 1274 588 1236 l 638 1274 q 601 1183 638 1221 q 514 1146 564 1146 q 426 1183 463 1146 q 390 1274 390 1221 l 436 1274 q 460 1213 436 1240 q 514 1185 483 1185 z "},"Ǧ":{"ha":996,"x_min":61,"x_max":917,"o":"m 524 -7 q 339 36 424 -7 q 192 151 254 79 q 95 312 129 222 q 61 494 61 401 q 94 681 61 592 q 189 841 128 771 q 333 952 250 911 q 515 993 417 993 q 753 933 663 993 q 892 778 844 872 l 833 743 q 701 884 783 840 q 514 928 618 928 q 356 891 426 928 q 235 792 285 854 q 158 653 185 731 q 132 493 132 575 q 163 328 132 406 q 247 189 193 250 q 374 93 301 128 q 528 58 446 58 q 708 105 624 58 q 871 251 793 151 l 871 172 q 524 -7 724 -7 m 856 422 l 632 422 l 632 479 l 917 479 l 917 0 l 856 0 l 856 422 m 396 1274 l 514 1186 l 632 1274 l 674 1250 l 539 1138 l 488 1138 l 354 1250 l 396 1274 z "},"Ĝ":{"ha":996,"x_min":61,"x_max":917,"o":"m 524 -7 q 339 36 424 -7 q 192 151 254 79 q 95 312 129 222 q 61 494 61 401 q 94 681 61 592 q 189 841 128 771 q 333 952 250 911 q 515 993 417 993 q 753 933 663 993 q 892 778 844 872 l 833 743 q 701 884 783 840 q 514 928 618 928 q 356 891 426 928 q 235 792 285 854 q 158 653 185 731 q 132 493 132 575 q 163 328 132 406 q 247 189 193 250 q 374 93 301 128 q 528 58 446 58 q 708 105 624 58 q 871 251 793 151 l 871 172 q 524 -7 724 -7 m 856 422 l 632 422 l 632 479 l 917 479 l 917 0 l 856 0 l 856 422 m 354 1161 l 488 1274 l 539 1274 l 674 1161 l 632 1138 l 514 1225 l 396 1138 l 354 1161 z "},"Ģ":{"ha":996,"x_min":61,"x_max":917,"o":"m 524 -7 q 339 36 424 -7 q 192 151 254 79 q 95 312 129 222 q 61 494 61 401 q 94 681 61 592 q 189 841 128 771 q 333 952 250 911 q 515 993 417 993 q 753 933 663 993 q 892 778 844 872 l 833 743 q 701 884 783 840 q 514 928 618 928 q 356 891 426 928 q 235 792 285 854 q 158 653 185 731 q 132 493 132 575 q 163 328 132 406 q 247 189 193 250 q 374 93 301 128 q 528 58 446 58 q 708 105 624 58 q 871 251 793 151 l 871 172 q 524 -7 724 -7 m 856 422 l 632 422 l 632 479 l 917 479 l 917 0 l 856 0 l 856 422 m 490 -260 l 511 -165 l 489 -165 l 489 -68 l 557 -68 l 557 -165 l 528 -260 l 490 -260 z "},"Ġ":{"ha":996,"x_min":61,"x_max":917,"o":"m 524 -7 q 339 36 424 -7 q 192 151 254 79 q 95 312 129 222 q 61 494 61 401 q 94 681 61 592 q 189 841 128 771 q 333 952 250 911 q 515 993 417 993 q 753 933 663 993 q 892 778 844 872 l 833 743 q 701 884 783 840 q 514 928 618 928 q 356 891 426 928 q 235 792 285 854 q 158 653 185 731 q 132 493 132 575 q 163 328 132 406 q 247 189 193 250 q 374 93 301 128 q 528 58 446 58 q 708 105 624 58 q 871 251 793 151 l 871 172 q 524 -7 724 -7 m 856 422 l 632 422 l 632 479 l 917 479 l 917 0 l 856 0 l 856 422 m 481 1149 l 481 1274 l 544 1274 l 544 1149 l 481 1149 z "},"Ḡ":{"ha":996,"x_min":61,"x_max":917,"o":"m 524 -7 q 339 36 424 -7 q 192 151 254 79 q 95 312 129 222 q 61 494 61 401 q 94 681 61 592 q 189 841 128 771 q 333 952 250 911 q 515 993 417 993 q 753 933 663 993 q 892 778 844 872 l 833 743 q 701 884 783 840 q 514 928 618 928 q 356 891 426 928 q 235 792 285 854 q 158 653 185 731 q 132 493 132 575 q 163 328 132 406 q 247 189 193 250 q 374 93 301 128 q 528 58 446 58 q 708 105 624 58 q 871 251 793 151 l 871 172 q 524 -7 724 -7 m 856 422 l 632 422 l 632 479 l 917 479 l 917 0 l 856 0 l 856 422 m 317 1193 l 317 1244 l 713 1244 l 713 1193 l 317 1193 z "},"H":{"ha":1021,"x_min":129,"x_max":893,"o":"m 893 986 l 893 0 l 822 0 l 822 472 l 200 472 l 200 0 l 129 0 l 129 986 l 200 986 l 200 536 l 822 536 l 822 986 l 893 986 z "},"Ħ":{"ha":1035,"x_min":67,"x_max":969,"o":"m 67 754 l 67 810 l 969 810 l 969 754 l 67 754 m 900 986 l 900 0 l 829 0 l 829 472 l 207 472 l 207 0 l 136 0 l 136 986 l 207 986 l 207 536 l 829 536 l 829 986 l 900 986 z "},"Ḫ":{"ha":1021,"x_min":129,"x_max":893,"o":"m 893 986 l 893 0 l 822 0 l 822 472 l 200 472 l 200 0 l 129 0 l 129 986 l 200 986 l 200 536 l 822 536 l 822 986 l 893 986 m 513 -154 q 563 -129 540 -154 q 590 -67 586 -104 l 636 -67 q 599 -157 636 -119 q 513 -194 563 -194 q 425 -157 461 -194 q 389 -67 389 -119 l 435 -67 q 458 -127 435 -100 q 513 -154 482 -154 z "},"Ĥ":{"ha":1021,"x_min":129,"x_max":893,"o":"m 893 986 l 893 0 l 822 0 l 822 472 l 200 472 l 200 0 l 129 0 l 129 986 l 200 986 l 200 536 l 822 536 l 822 986 l 893 986 m 354 1161 l 488 1274 l 539 1274 l 674 1161 l 632 1138 l 514 1225 l 396 1138 l 354 1161 z "},"Ḥ":{"ha":1021,"x_min":129,"x_max":893,"o":"m 893 986 l 893 0 l 822 0 l 822 472 l 200 472 l 200 0 l 129 0 l 129 986 l 200 986 l 200 536 l 822 536 l 822 986 l 893 986 m 479 -212 l 479 -89 l 543 -89 l 543 -212 l 479 -212 z "},"I":{"ha":329,"x_min":129,"x_max":200,"o":"m 129 0 l 129 986 l 200 986 l 200 0 l 129 0 z "},"Í":{"ha":329,"x_min":129,"x_max":306,"o":"m 129 0 l 129 986 l 200 986 l 200 0 l 129 0 m 189 1133 l 140 1156 l 225 1274 l 306 1274 l 189 1133 z "},"Ĭ":{"ha":329,"x_min":40,"x_max":288,"o":"m 129 0 l 129 986 l 200 986 l 200 0 l 129 0 m 165 1185 q 216 1210 193 1185 q 243 1274 239 1236 l 289 1274 q 252 1183 289 1221 q 165 1146 215 1146 q 78 1183 114 1146 q 42 1274 42 1221 l 88 1274 q 111 1213 88 1240 q 165 1185 135 1185 z "},"Î":{"ha":329,"x_min":4,"x_max":324,"o":"m 129 0 l 129 986 l 200 986 l 200 0 l 129 0 m 4 1161 l 138 1274 l 189 1274 l 324 1161 l 282 1138 l 164 1225 l 46 1138 l 4 1161 z "},"Ȉ":{"ha":329,"x_min":-36,"x_max":281,"o":"m 129 0 l 129 986 l 200 986 l 200 0 l 129 0 m 125 1275 l 197 1275 l 281 1157 l 240 1135 l 125 1275 m -36 1275 l 38 1275 l 119 1157 l 79 1135 l -36 1275 z "},"Ï":{"ha":329,"x_min":39,"x_max":289,"o":"m 129 0 l 129 986 l 200 986 l 200 0 l 129 0 m 39 1150 l 39 1272 l 100 1272 l 100 1150 l 39 1150 m 228 1150 l 228 1272 l 289 1272 l 289 1150 l 228 1150 z "},"Ḯ":{"ha":329,"x_min":39,"x_max":306,"o":"m 129 0 l 129 986 l 200 986 l 200 0 l 129 0 m 39 1150 l 39 1272 l 100 1272 l 100 1150 l 39 1150 m 228 1150 l 228 1272 l 289 1272 l 289 1150 l 228 1150 m 189 1411 l 140 1433 l 225 1551 l 306 1551 l 189 1411 z "},"İ":{"ha":329,"x_min":129,"x_max":200,"o":"m 129 0 l 129 986 l 200 986 l 200 0 l 129 0 m 132 1149 l 132 1274 l 196 1274 l 196 1149 l 132 1149 z "},"Ị":{"ha":329,"x_min":129,"x_max":200,"o":"m 129 0 l 129 986 l 200 986 l 200 0 l 129 0 m 133 -212 l 133 -89 l 197 -89 l 197 -212 l 133 -212 z "},"Ì":{"ha":329,"x_min":47,"x_max":214,"o":"m 129 0 l 129 986 l 200 986 l 200 0 l 129 0 m 47 1275 l 126 1275 l 213 1157 l 165 1135 l 47 1275 z "},"Ỉ":{"ha":329,"x_min":69,"x_max":258,"o":"m 129 0 l 129 986 l 200 986 l 200 0 l 129 0 m 100 1215 l 69 1246 q 117 1279 94 1267 q 171 1292 140 1292 q 235 1267 213 1292 q 258 1207 258 1243 q 242 1155 258 1179 q 193 1100 225 1131 l 169 1126 q 202 1167 192 1150 q 213 1201 213 1185 q 201 1235 213 1221 q 165 1249 189 1249 q 133 1241 147 1249 q 100 1215 119 1233 z "},"Ȋ":{"ha":329,"x_min":40,"x_max":288,"o":"m 129 0 l 129 986 l 200 986 l 200 0 l 129 0 m 165 1235 q 111 1208 135 1235 q 88 1146 88 1181 l 42 1146 q 78 1236 42 1199 q 165 1274 114 1274 q 252 1236 215 1274 q 289 1146 289 1199 l 243 1146 q 216 1209 239 1183 q 165 1235 193 1235 z "},"Ī":{"ha":329,"x_min":-33,"x_max":363,"o":"m 129 0 l 129 986 l 200 986 l 200 0 l 129 0 m -33 1193 l -33 1244 l 363 1244 l 363 1193 l -33 1193 z "},"Į":{"ha":329,"x_min":40,"x_max":200,"o":"m 129 0 l 129 986 l 200 986 l 200 0 l 129 0 m 40 -143 q 70 -62 40 -101 q 161 21 100 -22 l 179 21 l 200 0 q 118 -74 143 -43 q 93 -133 93 -106 q 118 -174 93 -161 q 196 -196 143 -187 l 175 -243 q 92 -222 122 -236 q 51 -187 63 -207 q 40 -143 40 -167 z "},"Ĩ":{"ha":329,"x_min":-47,"x_max":375,"o":"m 129 0 l 129 986 l 200 986 l 200 0 l 129 0 m 247 1158 q 177 1172 206 1158 q 124 1200 149 1186 q 71 1214 100 1214 q 26 1199 40 1214 q 6 1167 11 1183 q 1 1147 1 1150 l -46 1147 q -42 1171 -46 1153 q -25 1210 -37 1189 q 10 1247 -12 1231 q 71 1263 33 1263 q 135 1249 108 1263 q 187 1221 161 1235 q 247 1207 213 1207 q 301 1222 285 1207 q 322 1254 317 1238 q 326 1274 326 1271 l 375 1274 q 370 1249 375 1268 q 351 1210 365 1231 q 313 1174 338 1189 q 247 1158 288 1158 z "},"J":{"ha":664,"x_min":22,"x_max":547,"o":"m 44 103 q 127 65 79 81 q 236 50 175 50 q 363 77 315 50 q 435 158 411 104 q 468 291 460 213 q 476 472 476 369 l 476 986 l 547 986 l 547 485 q 537 282 547 374 q 496 123 526 190 q 403 20 465 56 q 239 -15 342 -15 q 119 0 172 -15 q 22 46 67 15 l 44 103 z "},"Ĵ":{"ha":664,"x_min":22,"x_max":672,"o":"m 44 103 q 127 65 79 81 q 236 50 175 50 q 363 77 315 50 q 435 158 411 104 q 468 291 460 213 q 476 472 476 369 l 476 986 l 547 986 l 547 485 q 537 282 547 374 q 496 123 526 190 q 403 20 465 56 q 239 -15 342 -15 q 119 0 172 -15 q 22 46 67 15 l 44 103 m 353 1161 l 486 1274 l 538 1274 l 672 1161 l 631 1138 l 513 1225 l 394 1138 l 353 1161 z "},"K":{"ha":882,"x_min":129,"x_max":878,"o":"m 129 0 l 129 986 l 200 986 l 200 388 l 775 986 l 857 986 l 447 554 l 878 0 l 796 0 l 400 510 l 200 304 l 200 0 l 129 0 z "},"Ķ":{"ha":882,"x_min":129,"x_max":878,"o":"m 129 0 l 129 986 l 200 986 l 200 388 l 775 986 l 857 986 l 447 554 l 878 0 l 796 0 l 400 510 l 200 304 l 200 0 l 129 0 m 414 -260 l 435 -165 l 413 -165 l 413 -68 l 481 -68 l 481 -165 l 451 -260 l 414 -260 z "},"L":{"ha":807,"x_min":129,"x_max":789,"o":"m 129 0 l 129 986 l 200 986 l 200 64 l 789 64 l 789 0 l 129 0 z "},"Ĺ":{"ha":807,"x_min":129,"x_max":789,"o":"m 129 0 l 129 986 l 200 986 l 200 64 l 789 64 l 789 0 l 129 0 m 186 1136 l 138 1158 l 222 1276 l 303 1276 l 186 1136 z "},"Ľ":{"ha":807,"x_min":129,"x_max":789,"o":"m 129 0 l 129 986 l 200 986 l 200 64 l 789 64 l 789 0 l 129 0 m 576 882 l 528 904 l 613 1022 l 693 1022 l 576 882 z "},"Ļ":{"ha":807,"x_min":129,"x_max":789,"o":"m 129 0 l 129 986 l 200 986 l 200 64 l 789 64 l 789 0 l 129 0 m 426 -260 l 447 -165 l 425 -165 l 425 -68 l 493 -68 l 493 -165 l 464 -260 l 426 -260 z "},"Ŀ":{"ha":807,"x_min":129,"x_max":789,"o":"m 129 0 l 129 986 l 200 986 l 200 64 l 789 64 l 789 0 l 129 0 m 508 490 l 508 631 l 569 631 l 569 490 l 508 490 z "},"Ḷ":{"ha":807,"x_min":129,"x_max":789,"o":"m 129 0 l 129 986 l 200 986 l 200 64 l 789 64 l 789 0 l 129 0 m 431 -212 l 431 -89 l 494 -89 l 494 -212 l 431 -212 z "},"Ḻ":{"ha":807,"x_min":129,"x_max":789,"o":"m 129 0 l 129 986 l 200 986 l 200 64 l 789 64 l 789 0 l 129 0 m 264 -161 l 264 -110 l 660 -110 l 660 -161 l 264 -161 z "},"Ł":{"ha":817,"x_min":29,"x_max":799,"o":"m 56 314 l 29 357 l 442 725 l 468 683 l 56 314 m 139 0 l 139 986 l 210 986 l 210 64 l 799 64 l 799 0 l 139 0 z "},"M":{"ha":1222,"x_min":129,"x_max":1093,"o":"m 1022 0 l 1022 849 l 635 185 l 588 185 l 200 849 l 200 0 l 129 0 l 129 986 l 200 986 l 611 281 l 1022 986 l 1093 986 l 1093 0 l 1022 0 z "},"Ṃ":{"ha":1222,"x_min":129,"x_max":1093,"o":"m 1022 0 l 1022 849 l 635 185 l 588 185 l 200 849 l 200 0 l 129 0 l 129 986 l 200 986 l 611 281 l 1022 986 l 1093 986 l 1093 0 l 1022 0 m 579 -212 l 579 -89 l 643 -89 l 643 -212 l 579 -212 z "},"N":{"ha":1074,"x_min":129,"x_max":946,"o":"m 200 854 l 200 0 l 129 0 l 129 986 l 188 986 l 875 118 l 875 986 l 946 986 l 946 0 l 876 0 l 200 854 z "},"Ń":{"ha":1074,"x_min":129,"x_max":946,"o":"m 200 854 l 200 0 l 129 0 l 129 986 l 188 986 l 875 118 l 875 986 l 946 986 l 946 0 l 876 0 l 200 854 m 567 1133 l 518 1156 l 603 1274 l 683 1274 l 567 1133 z "},"Ň":{"ha":1074,"x_min":129,"x_max":946,"o":"m 200 854 l 200 0 l 129 0 l 129 986 l 188 986 l 875 118 l 875 986 l 946 986 l 946 0 l 876 0 l 200 854 m 425 1274 l 543 1186 l 661 1274 l 703 1250 l 568 1138 l 517 1138 l 383 1250 l 425 1274 z "},"Ņ":{"ha":1074,"x_min":129,"x_max":946,"o":"m 200 854 l 200 0 l 129 0 l 129 986 l 188 986 l 875 118 l 875 986 l 946 986 l 946 0 l 876 0 l 200 854 m 507 -260 l 528 -165 l 506 -165 l 506 -68 l 574 -68 l 574 -165 l 544 -260 l 507 -260 z "},"Ṅ":{"ha":1074,"x_min":129,"x_max":946,"o":"m 200 854 l 200 0 l 129 0 l 129 986 l 188 986 l 875 118 l 875 986 l 946 986 l 946 0 l 876 0 l 200 854 m 510 1149 l 510 1274 l 574 1274 l 574 1149 l 510 1149 z "},"Ṇ":{"ha":1074,"x_min":129,"x_max":946,"o":"m 200 854 l 200 0 l 129 0 l 129 986 l 188 986 l 875 118 l 875 986 l 946 986 l 946 0 l 876 0 l 200 854 m 511 -212 l 511 -89 l 575 -89 l 575 -212 l 511 -212 z "},"Ŋ":{"ha":1069,"x_min":129,"x_max":940,"o":"m 200 851 l 200 0 l 129 0 l 129 986 l 183 986 l 869 121 l 869 985 l 940 985 l 940 -40 q 910 -147 940 -100 q 834 -219 881 -193 q 738 -246 788 -246 q 656 -234 694 -246 q 586 -194 617 -222 l 624 -149 q 675 -175 647 -168 q 731 -182 703 -182 q 797 -164 765 -182 q 850 -114 829 -146 q 871 -42 871 -82 l 871 6 l 200 851 z "},"Ṉ":{"ha":1074,"x_min":129,"x_max":946,"o":"m 200 854 l 200 0 l 129 0 l 129 986 l 188 986 l 875 118 l 875 986 l 946 986 l 946 0 l 876 0 l 200 854 m 346 -161 l 346 -110 l 742 -110 l 742 -161 l 346 -161 z "},"Ñ":{"ha":1074,"x_min":129,"x_max":946,"o":"m 200 854 l 200 0 l 129 0 l 129 986 l 188 986 l 875 118 l 875 986 l 946 986 l 946 0 l 876 0 l 200 854 m 625 1158 q 555 1172 583 1158 q 502 1200 526 1186 q 449 1214 478 1214 q 403 1199 418 1214 q 384 1167 389 1183 q 379 1147 379 1150 l 332 1147 q 336 1171 332 1153 q 353 1210 340 1189 q 388 1247 365 1231 q 449 1263 411 1263 q 513 1249 486 1263 q 565 1221 539 1235 q 625 1207 590 1207 q 678 1222 663 1207 q 699 1254 694 1238 q 704 1274 704 1271 l 753 1274 q 748 1249 753 1268 q 729 1210 743 1231 q 690 1174 715 1189 q 625 1158 665 1158 z "},"O":{"ha":1046,"x_min":61,"x_max":985,"o":"m 522 -7 q 335 35 419 -7 q 189 149 250 78 q 94 309 128 219 q 61 493 61 399 q 96 681 61 592 q 194 841 131 771 q 341 952 257 911 q 524 993 425 993 q 712 950 628 993 q 857 835 796 907 q 951 674 918 763 q 985 493 985 585 q 950 303 985 393 q 852 144 915 214 q 705 33 789 74 q 522 -7 621 -7 m 132 493 q 161 331 132 408 q 242 192 190 253 q 366 94 294 131 q 524 58 438 58 q 683 96 611 58 q 807 196 756 133 q 885 335 858 258 q 913 493 913 413 q 884 656 913 578 q 803 794 856 733 q 678 892 750 856 q 524 928 607 928 q 363 890 435 928 q 240 790 290 853 q 160 651 189 728 q 132 493 132 574 z "},"Ó":{"ha":1046,"x_min":61,"x_max":985,"o":"m 522 -7 q 335 35 419 -7 q 189 149 250 78 q 94 309 128 219 q 61 493 61 399 q 96 681 61 592 q 194 841 131 771 q 341 952 257 911 q 524 993 425 993 q 712 950 628 993 q 857 835 796 907 q 951 674 918 763 q 985 493 985 585 q 950 303 985 393 q 852 144 915 214 q 705 33 789 74 q 522 -7 621 -7 m 132 493 q 161 331 132 408 q 242 192 190 253 q 366 94 294 131 q 524 58 438 58 q 683 96 611 58 q 807 196 756 133 q 885 335 858 258 q 913 493 913 413 q 884 656 913 578 q 803 794 856 733 q 678 892 750 856 q 524 928 607 928 q 363 890 435 928 q 240 790 290 853 q 160 651 189 728 q 132 493 132 574 m 549 1133 l 500 1156 l 585 1274 l 665 1274 l 549 1133 z "},"Ŏ":{"ha":1046,"x_min":61,"x_max":985,"o":"m 522 -7 q 335 35 419 -7 q 189 149 250 78 q 94 309 128 219 q 61 493 61 399 q 96 681 61 592 q 194 841 131 771 q 341 952 257 911 q 524 993 425 993 q 712 950 628 993 q 857 835 796 907 q 951 674 918 763 q 985 493 985 585 q 950 303 985 393 q 852 144 915 214 q 705 33 789 74 q 522 -7 621 -7 m 132 493 q 161 331 132 408 q 242 192 190 253 q 366 94 294 131 q 524 58 438 58 q 683 96 611 58 q 807 196 756 133 q 885 335 858 258 q 913 493 913 413 q 884 656 913 578 q 803 794 856 733 q 678 892 750 856 q 524 928 607 928 q 363 890 435 928 q 240 790 290 853 q 160 651 189 728 q 132 493 132 574 m 525 1185 q 576 1210 553 1185 q 603 1274 599 1236 l 649 1274 q 612 1183 649 1221 q 525 1146 575 1146 q 438 1183 474 1146 q 401 1274 401 1221 l 447 1274 q 471 1213 447 1240 q 525 1185 494 1185 z "},"Ô":{"ha":1046,"x_min":61,"x_max":985,"o":"m 522 -7 q 335 35 419 -7 q 189 149 250 78 q 94 309 128 219 q 61 493 61 399 q 96 681 61 592 q 194 841 131 771 q 341 952 257 911 q 524 993 425 993 q 712 950 628 993 q 857 835 796 907 q 951 674 918 763 q 985 493 985 585 q 950 303 985 393 q 852 144 915 214 q 705 33 789 74 q 522 -7 621 -7 m 132 493 q 161 331 132 408 q 242 192 190 253 q 366 94 294 131 q 524 58 438 58 q 683 96 611 58 q 807 196 756 133 q 885 335 858 258 q 913 493 913 413 q 884 656 913 578 q 803 794 856 733 q 678 892 750 856 q 524 928 607 928 q 363 890 435 928 q 240 790 290 853 q 160 651 189 728 q 132 493 132 574 m 364 1161 l 497 1274 l 549 1274 l 683 1161 l 642 1138 l 524 1225 l 406 1138 l 364 1161 z "},"Ố":{"ha":1046,"x_min":61,"x_max":985,"o":"m 522 -7 q 335 35 419 -7 q 189 149 250 78 q 94 309 128 219 q 61 493 61 399 q 96 681 61 592 q 194 841 131 771 q 341 952 257 911 q 524 993 425 993 q 712 950 628 993 q 857 835 796 907 q 951 674 918 763 q 985 493 985 585 q 950 303 985 393 q 852 144 915 214 q 705 33 789 74 q 522 -7 621 -7 m 132 493 q 161 331 132 408 q 242 192 190 253 q 366 94 294 131 q 524 58 438 58 q 683 96 611 58 q 807 196 756 133 q 885 335 858 258 q 913 493 913 413 q 884 656 913 578 q 803 794 856 733 q 678 892 750 856 q 524 928 607 928 q 363 890 435 928 q 240 790 290 853 q 160 651 189 728 q 132 493 132 574 z "},"Ộ":{"ha":1046,"x_min":61,"x_max":985,"o":"m 522 -7 q 335 35 419 -7 q 189 149 250 78 q 94 309 128 219 q 61 493 61 399 q 96 681 61 592 q 194 841 131 771 q 341 952 257 911 q 524 993 425 993 q 712 950 628 993 q 857 835 796 907 q 951 674 918 763 q 985 493 985 585 q 950 303 985 393 q 852 144 915 214 q 705 33 789 74 q 522 -7 621 -7 m 132 493 q 161 331 132 408 q 242 192 190 253 q 366 94 294 131 q 524 58 438 58 q 683 96 611 58 q 807 196 756 133 q 885 335 858 258 q 913 493 913 413 q 884 656 913 578 q 803 794 856 733 q 678 892 750 856 q 524 928 607 928 q 363 890 435 928 q 240 790 290 853 q 160 651 189 728 q 132 493 132 574 m 490 -212 l 490 -89 l 554 -89 l 554 -212 l 490 -212 m 364 1161 l 497 1274 l 549 1274 l 683 1161 l 642 1138 l 524 1225 l 406 1138 l 364 1161 z "},"Ồ":{"ha":1046,"x_min":61,"x_max":985,"o":"m 522 -7 q 335 35 419 -7 q 189 149 250 78 q 94 309 128 219 q 61 493 61 399 q 96 681 61 592 q 194 841 131 771 q 341 952 257 911 q 524 993 425 993 q 712 950 628 993 q 857 835 796 907 q 951 674 918 763 q 985 493 985 585 q 950 303 985 393 q 852 144 915 214 q 705 33 789 74 q 522 -7 621 -7 m 132 493 q 161 331 132 408 q 242 192 190 253 q 366 94 294 131 q 524 58 438 58 q 683 96 611 58 q 807 196 756 133 q 885 335 858 258 q 913 493 913 413 q 884 656 913 578 q 803 794 856 733 q 678 892 750 856 q 524 928 607 928 q 363 890 435 928 q 240 790 290 853 q 160 651 189 728 q 132 493 132 574 z "},"Ổ":{"ha":1046,"x_min":61,"x_max":985,"o":"m 522 -7 q 335 35 419 -7 q 189 149 250 78 q 94 309 128 219 q 61 493 61 399 q 96 681 61 592 q 194 841 131 771 q 341 952 257 911 q 524 993 425 993 q 712 950 628 993 q 857 835 796 907 q 951 674 918 763 q 985 493 985 585 q 950 303 985 393 q 852 144 915 214 q 705 33 789 74 q 522 -7 621 -7 m 132 493 q 161 331 132 408 q 242 192 190 253 q 366 94 294 131 q 524 58 438 58 q 683 96 611 58 q 807 196 756 133 q 885 335 858 258 q 913 493 913 413 q 884 656 913 578 q 803 794 856 733 q 678 892 750 856 q 524 928 607 928 q 363 890 435 928 q 240 790 290 853 q 160 651 189 728 q 132 493 132 574 z "},"Ỗ":{"ha":1046,"x_min":61,"x_max":985,"o":"m 522 -7 q 335 35 419 -7 q 189 149 250 78 q 94 309 128 219 q 61 493 61 399 q 96 681 61 592 q 194 841 131 771 q 341 952 257 911 q 524 993 425 993 q 712 950 628 993 q 857 835 796 907 q 951 674 918 763 q 985 493 985 585 q 950 303 985 393 q 852 144 915 214 q 705 33 789 74 q 522 -7 621 -7 m 132 493 q 161 331 132 408 q 242 192 190 253 q 366 94 294 131 q 524 58 438 58 q 683 96 611 58 q 807 196 756 133 q 885 335 858 258 q 913 493 913 413 q 884 656 913 578 q 803 794 856 733 q 678 892 750 856 q 524 928 607 928 q 363 890 435 928 q 240 790 290 853 q 160 651 189 728 q 132 493 132 574 z "},"Ȍ":{"ha":1046,"x_min":61,"x_max":985,"o":"m 522 -7 q 335 35 419 -7 q 189 149 250 78 q 94 309 128 219 q 61 493 61 399 q 96 681 61 592 q 194 841 131 771 q 341 952 257 911 q 524 993 425 993 q 712 950 628 993 q 857 835 796 907 q 951 674 918 763 q 985 493 985 585 q 950 303 985 393 q 852 144 915 214 q 705 33 789 74 q 522 -7 621 -7 m 132 493 q 161 331 132 408 q 242 192 190 253 q 366 94 294 131 q 524 58 438 58 q 683 96 611 58 q 807 196 756 133 q 885 335 858 258 q 913 493 913 413 q 884 656 913 578 q 803 794 856 733 q 678 892 750 856 q 524 928 607 928 q 363 890 435 928 q 240 790 290 853 q 160 651 189 728 q 132 493 132 574 m 485 1275 l 557 1275 l 640 1157 l 600 1135 l 485 1275 m 324 1275 l 397 1275 l 479 1157 l 439 1135 l 324 1275 z "},"Ö":{"ha":1046,"x_min":61,"x_max":985,"o":"m 522 -7 q 335 35 419 -7 q 189 149 250 78 q 94 309 128 219 q 61 493 61 399 q 96 681 61 592 q 194 841 131 771 q 341 952 257 911 q 524 993 425 993 q 712 950 628 993 q 857 835 796 907 q 951 674 918 763 q 985 493 985 585 q 950 303 985 393 q 852 144 915 214 q 705 33 789 74 q 522 -7 621 -7 m 132 493 q 161 331 132 408 q 242 192 190 253 q 366 94 294 131 q 524 58 438 58 q 683 96 611 58 q 807 196 756 133 q 885 335 858 258 q 913 493 913 413 q 884 656 913 578 q 803 794 856 733 q 678 892 750 856 q 524 928 607 928 q 363 890 435 928 q 240 790 290 853 q 160 651 189 728 q 132 493 132 574 m 399 1150 l 399 1272 l 460 1272 l 460 1150 l 399 1150 m 588 1150 l 588 1272 l 649 1272 l 649 1150 l 588 1150 z "},"Ȫ":{"ha":1046,"x_min":61,"x_max":985,"o":"m 522 -7 q 335 35 419 -7 q 189 149 250 78 q 94 309 128 219 q 61 493 61 399 q 96 681 61 592 q 194 841 131 771 q 341 952 257 911 q 524 993 425 993 q 712 950 628 993 q 857 835 796 907 q 951 674 918 763 q 985 493 985 585 q 950 303 985 393 q 852 144 915 214 q 705 33 789 74 q 522 -7 621 -7 m 132 493 q 161 331 132 408 q 242 192 190 253 q 366 94 294 131 q 524 58 438 58 q 683 96 611 58 q 807 196 756 133 q 885 335 858 258 q 913 493 913 413 q 884 656 913 578 q 803 794 856 733 q 678 892 750 856 q 524 928 607 928 q 363 890 435 928 q 240 790 290 853 q 160 651 189 728 q 132 493 132 574 m 399 1150 l 399 1272 l 460 1272 l 460 1150 l 399 1150 m 588 1150 l 588 1272 l 649 1272 l 649 1150 l 588 1150 m 326 1471 l 326 1522 l 722 1522 l 722 1471 l 326 1471 z "},"Ȱ":{"ha":1046,"x_min":61,"x_max":985,"o":"m 522 -7 q 335 35 419 -7 q 189 149 250 78 q 94 309 128 219 q 61 493 61 399 q 96 681 61 592 q 194 841 131 771 q 341 952 257 911 q 524 993 425 993 q 712 950 628 993 q 857 835 796 907 q 951 674 918 763 q 985 493 985 585 q 950 303 985 393 q 852 144 915 214 q 705 33 789 74 q 522 -7 621 -7 m 132 493 q 161 331 132 408 q 242 192 190 253 q 366 94 294 131 q 524 58 438 58 q 683 96 611 58 q 807 196 756 133 q 885 335 858 258 q 913 493 913 413 q 884 656 913 578 q 803 794 856 733 q 678 892 750 856 q 524 928 607 928 q 363 890 435 928 q 240 790 290 853 q 160 651 189 728 q 132 493 132 574 m 492 1149 l 492 1274 l 556 1274 l 556 1149 l 492 1149 m 326 1485 l 326 1536 l 722 1536 l 722 1485 l 326 1485 z "},"Ọ":{"ha":1046,"x_min":61,"x_max":985,"o":"m 522 -7 q 335 35 419 -7 q 189 149 250 78 q 94 309 128 219 q 61 493 61 399 q 96 681 61 592 q 194 841 131 771 q 341 952 257 911 q 524 993 425 993 q 712 950 628 993 q 857 835 796 907 q 951 674 918 763 q 985 493 985 585 q 950 303 985 393 q 852 144 915 214 q 705 33 789 74 q 522 -7 621 -7 m 132 493 q 161 331 132 408 q 242 192 190 253 q 366 94 294 131 q 524 58 438 58 q 683 96 611 58 q 807 196 756 133 q 885 335 858 258 q 913 493 913 413 q 884 656 913 578 q 803 794 856 733 q 678 892 750 856 q 524 928 607 928 q 363 890 435 928 q 240 790 290 853 q 160 651 189 728 q 132 493 132 574 m 490 -212 l 490 -89 l 554 -89 l 554 -212 l 490 -212 z "},"Ò":{"ha":1046,"x_min":61,"x_max":985,"o":"m 522 -7 q 335 35 419 -7 q 189 149 250 78 q 94 309 128 219 q 61 493 61 399 q 96 681 61 592 q 194 841 131 771 q 341 952 257 911 q 524 993 425 993 q 712 950 628 993 q 857 835 796 907 q 951 674 918 763 q 985 493 985 585 q 950 303 985 393 q 852 144 915 214 q 705 33 789 74 q 522 -7 621 -7 m 132 493 q 161 331 132 408 q 242 192 190 253 q 366 94 294 131 q 524 58 438 58 q 683 96 611 58 q 807 196 756 133 q 885 335 858 258 q 913 493 913 413 q 884 656 913 578 q 803 794 856 733 q 678 892 750 856 q 524 928 607 928 q 363 890 435 928 q 240 790 290 853 q 160 651 189 728 q 132 493 132 574 m 407 1275 l 486 1275 l 572 1157 l 525 1135 l 407 1275 z "},"Ỏ":{"ha":1046,"x_min":61,"x_max":985,"o":"m 522 -7 q 335 35 419 -7 q 189 149 250 78 q 94 309 128 219 q 61 493 61 399 q 96 681 61 592 q 194 841 131 771 q 341 952 257 911 q 524 993 425 993 q 712 950 628 993 q 857 835 796 907 q 951 674 918 763 q 985 493 985 585 q 950 303 985 393 q 852 144 915 214 q 705 33 789 74 q 522 -7 621 -7 m 132 493 q 161 331 132 408 q 242 192 190 253 q 366 94 294 131 q 524 58 438 58 q 683 96 611 58 q 807 196 756 133 q 885 335 858 258 q 913 493 913 413 q 884 656 913 578 q 803 794 856 733 q 678 892 750 856 q 524 928 607 928 q 363 890 435 928 q 240 790 290 853 q 160 651 189 728 q 132 493 132 574 m 460 1215 l 429 1246 q 477 1279 454 1267 q 531 1292 500 1292 q 595 1267 572 1292 q 618 1207 618 1243 q 601 1155 618 1179 q 553 1100 585 1131 l 529 1126 q 562 1167 551 1150 q 572 1201 572 1185 q 560 1235 572 1221 q 525 1249 549 1249 q 493 1241 507 1249 q 460 1215 479 1233 z "},"Ơ":{"ha":1046,"x_min":61,"x_max":985,"o":"m 522 -7 q 335 35 419 -7 q 189 149 250 78 q 94 309 128 219 q 61 493 61 399 q 96 681 61 592 q 194 841 131 771 q 341 952 257 911 q 524 993 425 993 q 712 950 628 993 q 857 835 796 907 q 951 674 918 763 q 985 493 985 585 q 950 303 985 393 q 852 144 915 214 q 705 33 789 74 q 522 -7 621 -7 m 132 493 q 161 331 132 408 q 242 192 190 253 q 366 94 294 131 q 524 58 438 58 q 683 96 611 58 q 807 196 756 133 q 885 335 858 258 q 913 493 913 413 q 884 656 913 578 q 803 794 856 733 q 678 892 750 856 q 524 928 607 928 q 363 890 435 928 q 240 790 290 853 q 160 651 189 728 q 132 493 132 574 m 603 932 l 604 986 q 674 994 646 986 q 715 1018 701 1003 q 733 1053 728 1033 q 739 1103 738 1074 l 800 1103 q 795 1057 799 1078 q 784 1018 792 1036 q 761 983 776 1000 q 723 955 747 967 q 667 938 699 943 q 603 932 636 932 z "},"Ớ":{"ha":1046,"x_min":61,"x_max":985,"o":"m 522 -7 q 335 35 419 -7 q 189 149 250 78 q 94 309 128 219 q 61 493 61 399 q 96 681 61 592 q 194 841 131 771 q 341 952 257 911 q 524 993 425 993 q 712 950 628 993 q 857 835 796 907 q 951 674 918 763 q 985 493 985 585 q 950 303 985 393 q 852 144 915 214 q 705 33 789 74 q 522 -7 621 -7 m 132 493 q 161 331 132 408 q 242 192 190 253 q 366 94 294 131 q 524 58 438 58 q 683 96 611 58 q 807 196 756 133 q 885 335 858 258 q 913 493 913 413 q 884 656 913 578 q 803 794 856 733 q 678 892 750 856 q 524 928 607 928 q 363 890 435 928 q 240 790 290 853 q 160 651 189 728 q 132 493 132 574 m 603 932 l 604 986 q 674 994 646 986 q 715 1018 701 1003 q 733 1053 728 1033 q 739 1103 738 1074 l 800 1103 q 795 1057 799 1078 q 784 1018 792 1036 q 761 983 776 1000 q 723 955 747 967 q 667 938 699 943 q 603 932 636 932 m 549 1133 l 500 1156 l 585 1274 l 665 1274 l 549 1133 z "},"Ợ":{"ha":1046,"x_min":61,"x_max":985,"o":"m 522 -7 q 335 35 419 -7 q 189 149 250 78 q 94 309 128 219 q 61 493 61 399 q 96 681 61 592 q 194 841 131 771 q 341 952 257 911 q 524 993 425 993 q 712 950 628 993 q 857 835 796 907 q 951 674 918 763 q 985 493 985 585 q 950 303 985 393 q 852 144 915 214 q 705 33 789 74 q 522 -7 621 -7 m 132 493 q 161 331 132 408 q 242 192 190 253 q 366 94 294 131 q 524 58 438 58 q 683 96 611 58 q 807 196 756 133 q 885 335 858 258 q 913 493 913 413 q 884 656 913 578 q 803 794 856 733 q 678 892 750 856 q 524 928 607 928 q 363 890 435 928 q 240 790 290 853 q 160 651 189 728 q 132 493 132 574 m 603 932 l 604 986 q 674 994 646 986 q 715 1018 701 1003 q 733 1053 728 1033 q 739 1103 738 1074 l 800 1103 q 795 1057 799 1078 q 784 1018 792 1036 q 761 983 776 1000 q 723 955 747 967 q 667 938 699 943 q 603 932 636 932 m 490 -212 l 490 -89 l 554 -89 l 554 -212 l 490 -212 z "},"Ờ":{"ha":1046,"x_min":61,"x_max":985,"o":"m 522 -7 q 335 35 419 -7 q 189 149 250 78 q 94 309 128 219 q 61 493 61 399 q 96 681 61 592 q 194 841 131 771 q 341 952 257 911 q 524 993 425 993 q 712 950 628 993 q 857 835 796 907 q 951 674 918 763 q 985 493 985 585 q 950 303 985 393 q 852 144 915 214 q 705 33 789 74 q 522 -7 621 -7 m 132 493 q 161 331 132 408 q 242 192 190 253 q 366 94 294 131 q 524 58 438 58 q 683 96 611 58 q 807 196 756 133 q 885 335 858 258 q 913 493 913 413 q 884 656 913 578 q 803 794 856 733 q 678 892 750 856 q 524 928 607 928 q 363 890 435 928 q 240 790 290 853 q 160 651 189 728 q 132 493 132 574 m 603 932 l 604 986 q 674 994 646 986 q 715 1018 701 1003 q 733 1053 728 1033 q 739 1103 738 1074 l 800 1103 q 795 1057 799 1078 q 784 1018 792 1036 q 761 983 776 1000 q 723 955 747 967 q 667 938 699 943 q 603 932 636 932 m 407 1275 l 486 1275 l 572 1157 l 525 1135 l 407 1275 z "},"Ở":{"ha":1046,"x_min":61,"x_max":985,"o":"m 522 -7 q 335 35 419 -7 q 189 149 250 78 q 94 309 128 219 q 61 493 61 399 q 96 681 61 592 q 194 841 131 771 q 341 952 257 911 q 524 993 425 993 q 712 950 628 993 q 857 835 796 907 q 951 674 918 763 q 985 493 985 585 q 950 303 985 393 q 852 144 915 214 q 705 33 789 74 q 522 -7 621 -7 m 132 493 q 161 331 132 408 q 242 192 190 253 q 366 94 294 131 q 524 58 438 58 q 683 96 611 58 q 807 196 756 133 q 885 335 858 258 q 913 493 913 413 q 884 656 913 578 q 803 794 856 733 q 678 892 750 856 q 524 928 607 928 q 363 890 435 928 q 240 790 290 853 q 160 651 189 728 q 132 493 132 574 m 603 932 l 604 986 q 674 994 646 986 q 715 1018 701 1003 q 733 1053 728 1033 q 739 1103 738 1074 l 800 1103 q 795 1057 799 1078 q 784 1018 792 1036 q 761 983 776 1000 q 723 955 747 967 q 667 938 699 943 q 603 932 636 932 m 460 1215 l 429 1246 q 477 1279 454 1267 q 531 1292 500 1292 q 595 1267 572 1292 q 618 1207 618 1243 q 601 1155 618 1179 q 553 1100 585 1131 l 529 1126 q 562 1167 551 1150 q 572 1201 572 1185 q 560 1235 572 1221 q 525 1249 549 1249 q 493 1241 507 1249 q 460 1215 479 1233 z "},"Ỡ":{"ha":1046,"x_min":61,"x_max":985,"o":"m 522 -7 q 335 35 419 -7 q 189 149 250 78 q 94 309 128 219 q 61 493 61 399 q 96 681 61 592 q 194 841 131 771 q 341 952 257 911 q 524 993 425 993 q 712 950 628 993 q 857 835 796 907 q 951 674 918 763 q 985 493 985 585 q 950 303 985 393 q 852 144 915 214 q 705 33 789 74 q 522 -7 621 -7 m 132 493 q 161 331 132 408 q 242 192 190 253 q 366 94 294 131 q 524 58 438 58 q 683 96 611 58 q 807 196 756 133 q 885 335 858 258 q 913 493 913 413 q 884 656 913 578 q 803 794 856 733 q 678 892 750 856 q 524 928 607 928 q 363 890 435 928 q 240 790 290 853 q 160 651 189 728 q 132 493 132 574 m 603 932 l 604 986 q 674 994 646 986 q 715 1018 701 1003 q 733 1053 728 1033 q 739 1103 738 1074 l 800 1103 q 795 1057 799 1078 q 784 1018 792 1036 q 761 983 776 1000 q 723 955 747 967 q 667 938 699 943 q 603 932 636 932 m 607 1158 q 537 1172 565 1158 q 484 1200 508 1186 q 431 1214 460 1214 q 385 1199 400 1214 q 366 1167 371 1183 q 361 1147 361 1150 l 314 1147 q 318 1171 314 1153 q 335 1210 322 1189 q 370 1247 347 1231 q 431 1263 393 1263 q 494 1249 468 1263 q 547 1221 521 1235 q 607 1207 572 1207 q 660 1222 644 1207 q 681 1254 676 1238 q 686 1274 686 1271 l 735 1274 q 730 1249 735 1268 q 711 1210 725 1231 q 672 1174 697 1189 q 607 1158 647 1158 z "},"Ő":{"ha":1046,"x_min":61,"x_max":985,"o":"m 522 -7 q 335 35 419 -7 q 189 149 250 78 q 94 309 128 219 q 61 493 61 399 q 96 681 61 592 q 194 841 131 771 q 341 952 257 911 q 524 993 425 993 q 712 950 628 993 q 857 835 796 907 q 951 674 918 763 q 985 493 985 585 q 950 303 985 393 q 852 144 915 214 q 705 33 789 74 q 522 -7 621 -7 m 132 493 q 161 331 132 408 q 242 192 190 253 q 366 94 294 131 q 524 58 438 58 q 683 96 611 58 q 807 196 756 133 q 885 335 858 258 q 913 493 913 413 q 884 656 913 578 q 803 794 856 733 q 678 892 750 856 q 524 928 607 928 q 363 890 435 928 q 240 790 290 853 q 160 651 189 728 q 132 493 132 574 m 436 1135 l 396 1157 l 478 1275 l 551 1275 l 436 1135 m 597 1135 l 556 1157 l 639 1275 l 713 1275 l 597 1135 z "},"Ȏ":{"ha":1046,"x_min":61,"x_max":985,"o":"m 522 -7 q 335 35 419 -7 q 189 149 250 78 q 94 309 128 219 q 61 493 61 399 q 96 681 61 592 q 194 841 131 771 q 341 952 257 911 q 524 993 425 993 q 712 950 628 993 q 857 835 796 907 q 951 674 918 763 q 985 493 985 585 q 950 303 985 393 q 852 144 915 214 q 705 33 789 74 q 522 -7 621 -7 m 132 493 q 161 331 132 408 q 242 192 190 253 q 366 94 294 131 q 524 58 438 58 q 683 96 611 58 q 807 196 756 133 q 885 335 858 258 q 913 493 913 413 q 884 656 913 578 q 803 794 856 733 q 678 892 750 856 q 524 928 607 928 q 363 890 435 928 q 240 790 290 853 q 160 651 189 728 q 132 493 132 574 m 525 1235 q 471 1208 494 1235 q 447 1146 447 1181 l 401 1146 q 438 1236 401 1199 q 525 1274 474 1274 q 612 1236 575 1274 q 649 1146 649 1199 l 603 1146 q 576 1209 599 1183 q 525 1235 553 1235 z "},"Ō":{"ha":1046,"x_min":61,"x_max":985,"o":"m 522 -7 q 335 35 419 -7 q 189 149 250 78 q 94 309 128 219 q 61 493 61 399 q 96 681 61 592 q 194 841 131 771 q 341 952 257 911 q 524 993 425 993 q 712 950 628 993 q 857 835 796 907 q 951 674 918 763 q 985 493 985 585 q 950 303 985 393 q 852 144 915 214 q 705 33 789 74 q 522 -7 621 -7 m 132 493 q 161 331 132 408 q 242 192 190 253 q 366 94 294 131 q 524 58 438 58 q 683 96 611 58 q 807 196 756 133 q 885 335 858 258 q 913 493 913 413 q 884 656 913 578 q 803 794 856 733 q 678 892 750 856 q 524 928 607 928 q 363 890 435 928 q 240 790 290 853 q 160 651 189 728 q 132 493 132 574 m 326 1193 l 326 1244 l 722 1244 l 722 1193 l 326 1193 z "},"Ṓ":{"ha":1046,"x_min":61,"x_max":985,"o":"m 522 -7 q 335 35 419 -7 q 189 149 250 78 q 94 309 128 219 q 61 493 61 399 q 96 681 61 592 q 194 841 131 771 q 341 952 257 911 q 524 993 425 993 q 712 950 628 993 q 857 835 796 907 q 951 674 918 763 q 985 493 985 585 q 950 303 985 393 q 852 144 915 214 q 705 33 789 74 q 522 -7 621 -7 m 132 493 q 161 331 132 408 q 242 192 190 253 q 366 94 294 131 q 524 58 438 58 q 683 96 611 58 q 807 196 756 133 q 885 335 858 258 q 913 493 913 413 q 884 656 913 578 q 803 794 856 733 q 678 892 750 856 q 524 928 607 928 q 363 890 435 928 q 240 790 290 853 q 160 651 189 728 q 132 493 132 574 m 326 1193 l 326 1244 l 722 1244 l 722 1193 l 326 1193 m 549 1394 l 500 1417 l 585 1535 l 665 1535 l 549 1394 z "},"Ṑ":{"ha":1046,"x_min":61,"x_max":985,"o":"m 522 -7 q 335 35 419 -7 q 189 149 250 78 q 94 309 128 219 q 61 493 61 399 q 96 681 61 592 q 194 841 131 771 q 341 952 257 911 q 524 993 425 993 q 712 950 628 993 q 857 835 796 907 q 951 674 918 763 q 985 493 985 585 q 950 303 985 393 q 852 144 915 214 q 705 33 789 74 q 522 -7 621 -7 m 132 493 q 161 331 132 408 q 242 192 190 253 q 366 94 294 131 q 524 58 438 58 q 683 96 611 58 q 807 196 756 133 q 885 335 858 258 q 913 493 913 413 q 884 656 913 578 q 803 794 856 733 q 678 892 750 856 q 524 928 607 928 q 363 890 435 928 q 240 790 290 853 q 160 651 189 728 q 132 493 132 574 m 326 1193 l 326 1244 l 722 1244 l 722 1193 l 326 1193 m 408 1536 l 488 1536 l 574 1418 l 526 1396 l 408 1536 z "},"Ǫ":{"ha":1046,"x_min":61,"x_max":985,"o":"m 522 -7 q 335 35 419 -7 q 189 149 250 78 q 94 309 128 219 q 61 493 61 399 q 96 681 61 592 q 194 841 131 771 q 341 952 257 911 q 524 993 425 993 q 712 950 628 993 q 857 835 796 907 q 951 674 918 763 q 985 493 985 585 q 950 303 985 393 q 852 144 915 214 q 705 33 789 74 q 522 -7 621 -7 m 132 493 q 161 331 132 408 q 242 192 190 253 q 366 94 294 131 q 524 58 438 58 q 683 96 611 58 q 807 196 756 133 q 885 335 858 258 q 913 493 913 413 q 884 656 913 578 q 803 794 856 733 q 678 892 750 856 q 524 928 607 928 q 363 890 435 928 q 240 790 290 853 q 160 651 189 728 q 132 493 132 574 m 450 -139 q 480 -58 450 -97 q 571 25 510 -18 l 589 25 l 610 4 q 528 -70 553 -39 q 503 -129 503 -101 q 528 -170 503 -157 q 606 -192 553 -183 l 585 -239 q 502 -217 532 -232 q 461 -183 472 -203 q 450 -139 450 -162 z "},"Ø":{"ha":1046,"x_min":61,"x_max":985,"o":"m 522 -7 q 335 35 419 -7 q 189 149 250 78 q 94 309 128 219 q 61 493 61 399 q 96 681 61 592 q 194 841 131 771 q 341 952 257 911 q 524 993 425 993 q 712 950 628 993 q 857 835 796 907 q 951 674 918 763 q 985 493 985 585 q 950 303 985 393 q 852 144 915 214 q 705 33 789 74 q 522 -7 621 -7 m 132 493 q 161 331 132 408 q 242 192 190 253 q 366 94 294 131 q 524 58 438 58 q 683 96 611 58 q 807 196 756 133 q 885 335 858 258 q 913 493 913 413 q 884 656 913 578 q 803 794 856 733 q 678 892 750 856 q 524 928 607 928 q 363 890 435 928 q 240 790 290 853 q 160 651 189 728 q 132 493 132 574 m 888 986 l 239 0 l 160 0 l 807 986 l 888 986 z "},"Ǿ":{"ha":1046,"x_min":61,"x_max":985,"o":"m 522 -7 q 335 35 419 -7 q 189 149 250 78 q 94 309 128 219 q 61 493 61 399 q 96 681 61 592 q 194 841 131 771 q 341 952 257 911 q 524 993 425 993 q 712 950 628 993 q 857 835 796 907 q 951 674 918 763 q 985 493 985 585 q 950 303 985 393 q 852 144 915 214 q 705 33 789 74 q 522 -7 621 -7 m 132 493 q 161 331 132 408 q 242 192 190 253 q 366 94 294 131 q 524 58 438 58 q 683 96 611 58 q 807 196 756 133 q 885 335 858 258 q 913 493 913 413 q 884 656 913 578 q 803 794 856 733 q 678 892 750 856 q 524 928 607 928 q 363 890 435 928 q 240 790 290 853 q 160 651 189 728 q 132 493 132 574 m 888 986 l 239 0 l 160 0 l 807 986 l 888 986 m 549 1133 l 500 1156 l 585 1274 l 665 1274 l 549 1133 z "},"Õ":{"ha":1046,"x_min":61,"x_max":985,"o":"m 522 -7 q 335 35 419 -7 q 189 149 250 78 q 94 309 128 219 q 61 493 61 399 q 96 681 61 592 q 194 841 131 771 q 341 952 257 911 q 524 993 425 993 q 712 950 628 993 q 857 835 796 907 q 951 674 918 763 q 985 493 985 585 q 950 303 985 393 q 852 144 915 214 q 705 33 789 74 q 522 -7 621 -7 m 132 493 q 161 331 132 408 q 242 192 190 253 q 366 94 294 131 q 524 58 438 58 q 683 96 611 58 q 807 196 756 133 q 885 335 858 258 q 913 493 913 413 q 884 656 913 578 q 803 794 856 733 q 678 892 750 856 q 524 928 607 928 q 363 890 435 928 q 240 790 290 853 q 160 651 189 728 q 132 493 132 574 m 607 1158 q 537 1172 565 1158 q 484 1200 508 1186 q 431 1214 460 1214 q 385 1199 400 1214 q 366 1167 371 1183 q 361 1147 361 1150 l 314 1147 q 318 1171 314 1153 q 335 1210 322 1189 q 370 1247 347 1231 q 431 1263 393 1263 q 494 1249 468 1263 q 547 1221 521 1235 q 607 1207 572 1207 q 660 1222 644 1207 q 681 1254 676 1238 q 686 1274 686 1271 l 735 1274 q 730 1249 735 1268 q 711 1210 725 1231 q 672 1174 697 1189 q 607 1158 647 1158 z "},"Ṍ":{"ha":1046,"x_min":61,"x_max":985,"o":"m 522 -7 q 335 35 419 -7 q 189 149 250 78 q 94 309 128 219 q 61 493 61 399 q 96 681 61 592 q 194 841 131 771 q 341 952 257 911 q 524 993 425 993 q 712 950 628 993 q 857 835 796 907 q 951 674 918 763 q 985 493 985 585 q 950 303 985 393 q 852 144 915 214 q 705 33 789 74 q 522 -7 621 -7 m 132 493 q 161 331 132 408 q 242 192 190 253 q 366 94 294 131 q 524 58 438 58 q 683 96 611 58 q 807 196 756 133 q 885 335 858 258 q 913 493 913 413 q 884 656 913 578 q 803 794 856 733 q 678 892 750 856 q 524 928 607 928 q 363 890 435 928 q 240 790 290 853 q 160 651 189 728 q 132 493 132 574 m 607 1158 q 537 1172 565 1158 q 484 1200 508 1186 q 431 1214 460 1214 q 385 1199 400 1214 q 366 1167 371 1183 q 361 1147 361 1150 l 314 1147 q 318 1171 314 1153 q 335 1210 322 1189 q 370 1247 347 1231 q 431 1263 393 1263 q 494 1249 468 1263 q 547 1221 521 1235 q 607 1207 572 1207 q 660 1222 644 1207 q 681 1254 676 1238 q 686 1274 686 1271 l 735 1274 q 730 1249 735 1268 q 711 1210 725 1231 q 672 1174 697 1189 q 607 1158 647 1158 m 549 1425 l 500 1447 l 585 1565 l 665 1565 l 549 1425 z "},"Ṏ":{"ha":1046,"x_min":61,"x_max":985,"o":"m 522 -7 q 335 35 419 -7 q 189 149 250 78 q 94 309 128 219 q 61 493 61 399 q 96 681 61 592 q 194 841 131 771 q 341 952 257 911 q 524 993 425 993 q 712 950 628 993 q 857 835 796 907 q 951 674 918 763 q 985 493 985 585 q 950 303 985 393 q 852 144 915 214 q 705 33 789 74 q 522 -7 621 -7 m 132 493 q 161 331 132 408 q 242 192 190 253 q 366 94 294 131 q 524 58 438 58 q 683 96 611 58 q 807 196 756 133 q 885 335 858 258 q 913 493 913 413 q 884 656 913 578 q 803 794 856 733 q 678 892 750 856 q 524 928 607 928 q 363 890 435 928 q 240 790 290 853 q 160 651 189 728 q 132 493 132 574 m 607 1158 q 537 1172 565 1158 q 484 1200 508 1186 q 431 1214 460 1214 q 385 1199 400 1214 q 366 1167 371 1183 q 361 1147 361 1150 l 314 1147 q 318 1171 314 1153 q 335 1210 322 1189 q 370 1247 347 1231 q 431 1263 393 1263 q 494 1249 468 1263 q 547 1221 521 1235 q 607 1207 572 1207 q 660 1222 644 1207 q 681 1254 676 1238 q 686 1274 686 1271 l 735 1274 q 730 1249 735 1268 q 711 1210 725 1231 q 672 1174 697 1189 q 607 1158 647 1158 m 399 1440 l 399 1563 l 460 1563 l 460 1440 l 399 1440 m 588 1440 l 588 1563 l 649 1563 l 649 1440 l 588 1440 z "},"Ȭ":{"ha":1046,"x_min":61,"x_max":985,"o":"m 522 -7 q 335 35 419 -7 q 189 149 250 78 q 94 309 128 219 q 61 493 61 399 q 96 681 61 592 q 194 841 131 771 q 341 952 257 911 q 524 993 425 993 q 712 950 628 993 q 857 835 796 907 q 951 674 918 763 q 985 493 985 585 q 950 303 985 393 q 852 144 915 214 q 705 33 789 74 q 522 -7 621 -7 m 132 493 q 161 331 132 408 q 242 192 190 253 q 366 94 294 131 q 524 58 438 58 q 683 96 611 58 q 807 196 756 133 q 885 335 858 258 q 913 493 913 413 q 884 656 913 578 q 803 794 856 733 q 678 892 750 856 q 524 928 607 928 q 363 890 435 928 q 240 790 290 853 q 160 651 189 728 q 132 493 132 574 m 607 1158 q 537 1172 565 1158 q 484 1200 508 1186 q 431 1214 460 1214 q 385 1199 400 1214 q 366 1167 371 1183 q 361 1147 361 1150 l 314 1147 q 318 1171 314 1153 q 335 1210 322 1189 q 370 1247 347 1231 q 431 1263 393 1263 q 494 1249 468 1263 q 547 1221 521 1235 q 607 1207 572 1207 q 660 1222 644 1207 q 681 1254 676 1238 q 686 1274 686 1271 l 735 1274 q 730 1249 735 1268 q 711 1210 725 1231 q 672 1174 697 1189 q 607 1158 647 1158 m 326 1485 l 326 1536 l 722 1536 l 722 1485 l 326 1485 z "},"Œ":{"ha":1629,"x_min":61,"x_max":1567,"o":"m 1567 64 l 1567 0 l 915 0 l 915 278 q 826 133 883 197 q 692 31 768 69 q 525 -7 615 -7 q 337 35 422 -7 q 190 148 251 76 q 94 309 128 219 q 61 493 61 399 q 96 681 61 592 q 194 841 131 771 q 341 952 257 911 q 524 993 425 993 q 694 955 617 993 q 828 851 772 917 q 915 707 885 786 l 915 986 l 1554 986 l 1554 922 l 985 922 l 985 536 l 1479 536 l 1479 471 l 985 471 l 985 64 l 1567 64 m 524 58 q 683 96 611 58 q 807 196 756 133 q 885 336 858 258 q 913 494 913 414 q 884 657 913 579 q 803 795 856 735 q 678 892 750 856 q 524 928 607 928 q 363 890 435 928 q 240 790 290 853 q 160 651 189 728 q 132 493 132 574 q 161 331 132 408 q 242 192 190 253 q 366 94 294 131 q 524 58 438 58 z "},"P":{"ha":863,"x_min":129,"x_max":822,"o":"m 129 0 l 129 986 l 535 986 q 649 960 597 986 q 740 890 701 933 q 801 792 779 846 q 822 681 822 738 q 787 531 822 601 q 690 417 751 461 q 543 372 628 372 l 200 372 l 200 0 l 129 0 m 200 438 l 540 438 q 653 472 606 438 q 725 563 700 507 q 750 681 750 618 q 720 801 750 746 q 641 889 690 856 q 532 922 592 922 l 200 922 l 200 438 z "},"Þ":{"ha":835,"x_min":129,"x_max":794,"o":"m 508 786 q 623 760 571 786 q 714 690 675 733 q 774 591 753 646 q 794 479 794 536 q 760 331 794 401 q 663 216 725 260 q 517 172 601 172 l 200 172 l 200 0 l 129 0 l 129 986 l 200 986 l 200 786 l 508 786 m 515 238 q 627 273 581 238 q 699 364 674 308 q 725 479 725 419 q 695 599 725 544 q 615 688 665 654 q 506 721 565 721 l 200 721 l 200 238 l 515 238 z "},"Q":{"ha":1044,"x_min":61,"x_max":985,"o":"m 522 -7 q 335 35 419 -7 q 189 149 250 78 q 94 309 128 219 q 61 493 61 399 q 96 681 61 592 q 194 841 131 771 q 341 952 257 911 q 524 993 425 993 q 712 950 628 993 q 857 835 796 907 q 951 674 918 763 q 985 493 985 585 q 950 303 985 393 q 852 144 915 214 q 705 33 789 74 q 522 -7 621 -7 m 524 58 q 683 96 611 58 q 807 196 756 133 q 885 335 858 258 q 913 493 913 413 q 884 656 913 578 q 803 794 856 733 q 678 892 750 856 q 524 928 607 928 q 363 890 435 928 q 240 790 290 853 q 160 651 189 728 q 132 493 132 574 q 161 331 132 408 q 242 192 190 253 q 366 94 294 131 q 524 58 438 58 m 640 286 l 714 286 l 951 0 l 878 0 l 640 286 z "},"R":{"ha":901,"x_min":129,"x_max":840,"o":"m 129 0 l 129 986 l 539 986 q 655 960 603 986 q 745 890 707 933 q 805 792 783 846 q 826 681 826 738 q 797 543 826 607 q 716 436 768 479 q 594 383 664 393 l 840 0 l 758 0 l 519 372 l 200 372 l 200 0 l 129 0 m 200 438 l 546 438 q 657 472 610 438 q 730 563 704 507 q 756 681 756 618 q 726 799 756 744 q 647 888 696 854 q 536 922 597 922 l 200 922 l 200 438 z "},"Ŕ":{"ha":901,"x_min":129,"x_max":840,"o":"m 129 0 l 129 986 l 539 986 q 655 960 603 986 q 745 890 707 933 q 805 792 783 846 q 826 681 826 738 q 797 543 826 607 q 716 436 768 479 q 594 383 664 393 l 840 0 l 758 0 l 519 372 l 200 372 l 200 0 l 129 0 m 200 438 l 546 438 q 657 472 610 438 q 730 563 704 507 q 756 681 756 618 q 726 799 756 744 q 647 888 696 854 q 536 922 597 922 l 200 922 l 200 438 m 443 1138 l 394 1160 l 479 1278 l 560 1278 l 443 1138 z "},"Ř":{"ha":901,"x_min":129,"x_max":840,"o":"m 129 0 l 129 986 l 539 986 q 655 960 603 986 q 745 890 707 933 q 805 792 783 846 q 826 681 826 738 q 797 543 826 607 q 716 436 768 479 q 594 383 664 393 l 840 0 l 758 0 l 519 372 l 200 372 l 200 0 l 129 0 m 200 438 l 546 438 q 657 472 610 438 q 730 563 704 507 q 756 681 756 618 q 726 799 756 744 q 647 888 696 854 q 536 922 597 922 l 200 922 l 200 438 m 300 1278 l 418 1190 l 536 1278 l 578 1254 l 443 1142 l 392 1142 l 258 1254 l 300 1278 z "},"Ŗ":{"ha":901,"x_min":129,"x_max":840,"o":"m 129 0 l 129 986 l 539 986 q 655 960 603 986 q 745 890 707 933 q 805 792 783 846 q 826 681 826 738 q 797 543 826 607 q 716 436 768 479 q 594 383 664 393 l 840 0 l 758 0 l 519 372 l 200 372 l 200 0 l 129 0 m 200 438 l 546 438 q 657 472 610 438 q 730 563 704 507 q 756 681 756 618 q 726 799 756 744 q 647 888 696 854 q 536 922 597 922 l 200 922 l 200 438 m 413 -260 l 433 -165 l 411 -165 l 411 -68 l 479 -68 l 479 -165 l 450 -260 l 413 -260 z "},"Ȑ":{"ha":901,"x_min":129,"x_max":840,"o":"m 129 0 l 129 986 l 539 986 q 655 960 603 986 q 745 890 707 933 q 805 792 783 846 q 826 681 826 738 q 797 543 826 607 q 716 436 768 479 q 594 383 664 393 l 840 0 l 758 0 l 519 372 l 200 372 l 200 0 l 129 0 m 200 438 l 546 438 q 657 472 610 438 q 730 563 704 507 q 756 681 756 618 q 726 799 756 744 q 647 888 696 854 q 536 922 597 922 l 200 922 l 200 438 m 379 1278 l 451 1278 l 535 1160 l 494 1138 l 379 1278 m 218 1278 l 292 1278 l 374 1160 l 333 1138 l 218 1278 z "},"Ṛ":{"ha":901,"x_min":129,"x_max":840,"o":"m 129 0 l 129 986 l 539 986 q 655 960 603 986 q 745 890 707 933 q 805 792 783 846 q 826 681 826 738 q 797 543 826 607 q 716 436 768 479 q 594 383 664 393 l 840 0 l 758 0 l 519 372 l 200 372 l 200 0 l 129 0 m 200 438 l 546 438 q 657 472 610 438 q 730 563 704 507 q 756 681 756 618 q 726 799 756 744 q 647 888 696 854 q 536 922 597 922 l 200 922 l 200 438 m 417 -212 l 417 -89 l 481 -89 l 481 -212 l 417 -212 z "},"Ȓ":{"ha":901,"x_min":129,"x_max":840,"o":"m 129 0 l 129 986 l 539 986 q 655 960 603 986 q 745 890 707 933 q 805 792 783 846 q 826 681 826 738 q 797 543 826 607 q 716 436 768 479 q 594 383 664 393 l 840 0 l 758 0 l 519 372 l 200 372 l 200 0 l 129 0 m 200 438 l 546 438 q 657 472 610 438 q 730 563 704 507 q 756 681 756 618 q 726 799 756 744 q 647 888 696 854 q 536 922 597 922 l 200 922 l 200 438 m 419 1239 q 365 1212 389 1239 q 342 1150 342 1185 l 296 1150 q 332 1240 296 1203 q 419 1278 368 1278 q 506 1240 469 1278 q 543 1150 543 1203 l 497 1150 q 470 1213 493 1188 q 419 1239 447 1239 z "},"Ṟ":{"ha":901,"x_min":129,"x_max":840,"o":"m 129 0 l 129 986 l 539 986 q 655 960 603 986 q 745 890 707 933 q 805 792 783 846 q 826 681 826 738 q 797 543 826 607 q 716 436 768 479 q 594 383 664 393 l 840 0 l 758 0 l 519 372 l 200 372 l 200 0 l 129 0 m 200 438 l 546 438 q 657 472 610 438 q 730 563 704 507 q 756 681 756 618 q 726 799 756 744 q 647 888 696 854 q 536 922 597 922 l 200 922 l 200 438 m 251 -161 l 251 -110 l 647 -110 l 647 -161 l 251 -161 z "},"S":{"ha":840,"x_min":49,"x_max":792,"o":"m 703 822 q 650 869 679 849 q 588 902 621 889 q 515 922 554 915 q 432 929 476 929 q 222 874 288 929 q 156 726 156 819 q 185 627 156 664 q 279 568 215 590 q 444 525 343 546 q 629 473 551 503 q 749 392 707 443 q 792 253 792 340 q 767 138 792 188 q 694 57 742 89 q 583 8 647 25 q 439 -8 518 -8 q 293 8 363 -8 q 163 57 224 25 q 49 139 101 89 l 86 196 q 155 137 117 163 q 238 93 193 111 q 335 65 283 75 q 442 54 386 54 q 644 102 571 54 q 717 244 717 150 q 683 350 717 310 q 581 416 650 390 q 407 464 511 442 q 230 514 303 486 q 120 589 157 542 q 83 717 83 636 q 127 867 83 806 q 250 961 171 929 q 432 993 329 993 q 551 981 496 993 q 652 942 606 968 q 739 878 699 917 l 703 822 z "},"Ś":{"ha":840,"x_min":49,"x_max":792,"o":"m 703 822 q 650 869 679 849 q 588 902 621 889 q 515 922 554 915 q 432 929 476 929 q 222 874 288 929 q 156 726 156 819 q 185 627 156 664 q 279 568 215 590 q 444 525 343 546 q 629 473 551 503 q 749 392 707 443 q 792 253 792 340 q 767 138 792 188 q 694 57 742 89 q 583 8 647 25 q 439 -8 518 -8 q 293 8 363 -8 q 163 57 224 25 q 49 139 101 89 l 86 196 q 155 137 117 163 q 238 93 193 111 q 335 65 283 75 q 442 54 386 54 q 644 102 571 54 q 717 244 717 150 q 683 350 717 310 q 581 416 650 390 q 407 464 511 442 q 230 514 303 486 q 120 589 157 542 q 83 717 83 636 q 127 867 83 806 q 250 961 171 929 q 432 993 329 993 q 551 981 496 993 q 652 942 606 968 q 739 878 699 917 l 703 822 m 460 1158 l 411 1181 l 496 1299 l 576 1299 l 460 1158 z "},"Ṥ":{"ha":840,"x_min":49,"x_max":792,"o":"m 703 822 q 650 869 679 849 q 588 902 621 889 q 515 922 554 915 q 432 929 476 929 q 222 874 288 929 q 156 726 156 819 q 185 627 156 664 q 279 568 215 590 q 444 525 343 546 q 629 473 551 503 q 749 392 707 443 q 792 253 792 340 q 767 138 792 188 q 694 57 742 89 q 583 8 647 25 q 439 -8 518 -8 q 293 8 363 -8 q 163 57 224 25 q 49 139 101 89 l 86 196 q 155 137 117 163 q 238 93 193 111 q 335 65 283 75 q 442 54 386 54 q 644 102 571 54 q 717 244 717 150 q 683 350 717 310 q 581 416 650 390 q 407 464 511 442 q 230 514 303 486 q 120 589 157 542 q 83 717 83 636 q 127 867 83 806 q 250 961 171 929 q 432 993 329 993 q 551 981 496 993 q 652 942 606 968 q 739 878 699 917 l 703 822 m 460 1158 l 411 1181 l 496 1299 l 576 1299 l 460 1158 m 461 1465 l 461 1590 l 525 1590 l 525 1465 l 461 1465 z "},"Š":{"ha":840,"x_min":49,"x_max":792,"o":"m 703 822 q 650 869 679 849 q 588 902 621 889 q 515 922 554 915 q 432 929 476 929 q 222 874 288 929 q 156 726 156 819 q 185 627 156 664 q 279 568 215 590 q 444 525 343 546 q 629 473 551 503 q 749 392 707 443 q 792 253 792 340 q 767 138 792 188 q 694 57 742 89 q 583 8 647 25 q 439 -8 518 -8 q 293 8 363 -8 q 163 57 224 25 q 49 139 101 89 l 86 196 q 155 137 117 163 q 238 93 193 111 q 335 65 283 75 q 442 54 386 54 q 644 102 571 54 q 717 244 717 150 q 683 350 717 310 q 581 416 650 390 q 407 464 511 442 q 230 514 303 486 q 120 589 157 542 q 83 717 83 636 q 127 867 83 806 q 250 961 171 929 q 432 993 329 993 q 551 981 496 993 q 652 942 606 968 q 739 878 699 917 l 703 822 m 318 1299 l 436 1211 l 554 1299 l 596 1275 l 461 1163 l 410 1163 l 276 1275 l 318 1299 z "},"Ṧ":{"ha":840,"x_min":49,"x_max":792,"o":"m 703 822 q 650 869 679 849 q 588 902 621 889 q 515 922 554 915 q 432 929 476 929 q 222 874 288 929 q 156 726 156 819 q 185 627 156 664 q 279 568 215 590 q 444 525 343 546 q 629 473 551 503 q 749 392 707 443 q 792 253 792 340 q 767 138 792 188 q 694 57 742 89 q 583 8 647 25 q 439 -8 518 -8 q 293 8 363 -8 q 163 57 224 25 q 49 139 101 89 l 86 196 q 155 137 117 163 q 238 93 193 111 q 335 65 283 75 q 442 54 386 54 q 644 102 571 54 q 717 244 717 150 q 683 350 717 310 q 581 416 650 390 q 407 464 511 442 q 230 514 303 486 q 120 589 157 542 q 83 717 83 636 q 127 867 83 806 q 250 961 171 929 q 432 993 329 993 q 551 981 496 993 q 652 942 606 968 q 739 878 699 917 l 703 822 m 318 1299 l 436 1211 l 554 1299 l 596 1275 l 461 1163 l 410 1163 l 276 1275 l 318 1299 m 403 1465 l 403 1590 l 467 1590 l 467 1465 l 403 1465 z "},"Ş":{"ha":840,"x_min":49,"x_max":792,"o":"m 703 822 q 650 869 679 849 q 588 902 621 889 q 515 922 554 915 q 432 929 476 929 q 222 874 288 929 q 156 726 156 819 q 185 627 156 664 q 279 568 215 590 q 444 525 343 546 q 629 473 551 503 q 749 392 707 443 q 792 253 792 340 q 767 138 792 188 q 694 57 742 89 q 583 8 647 25 q 439 -8 518 -8 q 293 8 363 -8 q 163 57 224 25 q 49 139 101 89 l 86 196 q 155 137 117 163 q 238 93 193 111 q 335 65 283 75 q 442 54 386 54 q 644 102 571 54 q 717 244 717 150 q 683 350 717 310 q 581 416 650 390 q 407 464 511 442 q 230 514 303 486 q 120 589 157 542 q 83 717 83 636 q 127 867 83 806 q 250 961 171 929 q 432 993 329 993 q 551 981 496 993 q 652 942 606 968 q 739 878 699 917 l 703 822 m 421 -242 q 343 -233 385 -242 q 264 -204 301 -224 l 288 -161 q 346 -184 318 -175 q 408 -193 374 -193 q 485 -175 458 -193 q 511 -119 511 -157 q 485 -55 511 -82 q 410 0 458 -28 l 444 21 q 530 -45 499 -11 q 561 -129 561 -79 q 522 -213 561 -185 q 421 -242 483 -242 z "},"Ŝ":{"ha":840,"x_min":49,"x_max":792,"o":"m 703 822 q 650 869 679 849 q 588 902 621 889 q 515 922 554 915 q 432 929 476 929 q 222 874 288 929 q 156 726 156 819 q 185 627 156 664 q 279 568 215 590 q 444 525 343 546 q 629 473 551 503 q 749 392 707 443 q 792 253 792 340 q 767 138 792 188 q 694 57 742 89 q 583 8 647 25 q 439 -8 518 -8 q 293 8 363 -8 q 163 57 224 25 q 49 139 101 89 l 86 196 q 155 137 117 163 q 238 93 193 111 q 335 65 283 75 q 442 54 386 54 q 644 102 571 54 q 717 244 717 150 q 683 350 717 310 q 581 416 650 390 q 407 464 511 442 q 230 514 303 486 q 120 589 157 542 q 83 717 83 636 q 127 867 83 806 q 250 961 171 929 q 432 993 329 993 q 551 981 496 993 q 652 942 606 968 q 739 878 699 917 l 703 822 m 276 1186 l 410 1299 l 461 1299 l 596 1186 l 554 1163 l 436 1250 l 318 1163 l 276 1186 z "},"Ș":{"ha":840,"x_min":49,"x_max":792,"o":"m 703 822 q 650 869 679 849 q 588 902 621 889 q 515 922 554 915 q 432 929 476 929 q 222 874 288 929 q 156 726 156 819 q 185 627 156 664 q 279 568 215 590 q 444 525 343 546 q 629 473 551 503 q 749 392 707 443 q 792 253 792 340 q 767 138 792 188 q 694 57 742 89 q 583 8 647 25 q 439 -8 518 -8 q 293 8 363 -8 q 163 57 224 25 q 49 139 101 89 l 86 196 q 155 137 117 163 q 238 93 193 111 q 335 65 283 75 q 442 54 386 54 q 644 102 571 54 q 717 244 717 150 q 683 350 717 310 q 581 416 650 390 q 407 464 511 442 q 230 514 303 486 q 120 589 157 542 q 83 717 83 636 q 127 867 83 806 q 250 961 171 929 q 432 993 329 993 q 551 981 496 993 q 652 942 606 968 q 739 878 699 917 l 703 822 m 399 -260 l 419 -165 l 397 -165 l 397 -68 l 465 -68 l 465 -165 l 436 -260 l 399 -260 z "},"Ṡ":{"ha":840,"x_min":49,"x_max":792,"o":"m 703 822 q 650 869 679 849 q 588 902 621 889 q 515 922 554 915 q 432 929 476 929 q 222 874 288 929 q 156 726 156 819 q 185 627 156 664 q 279 568 215 590 q 444 525 343 546 q 629 473 551 503 q 749 392 707 443 q 792 253 792 340 q 767 138 792 188 q 694 57 742 89 q 583 8 647 25 q 439 -8 518 -8 q 293 8 363 -8 q 163 57 224 25 q 49 139 101 89 l 86 196 q 155 137 117 163 q 238 93 193 111 q 335 65 283 75 q 442 54 386 54 q 644 102 571 54 q 717 244 717 150 q 683 350 717 310 q 581 416 650 390 q 407 464 511 442 q 230 514 303 486 q 120 589 157 542 q 83 717 83 636 q 127 867 83 806 q 250 961 171 929 q 432 993 329 993 q 551 981 496 993 q 652 942 606 968 q 739 878 699 917 l 703 822 m 403 1174 l 403 1299 l 467 1299 l 467 1174 l 403 1174 z "},"Ṣ":{"ha":840,"x_min":49,"x_max":792,"o":"m 703 822 q 650 869 679 849 q 588 902 621 889 q 515 922 554 915 q 432 929 476 929 q 222 874 288 929 q 156 726 156 819 q 185 627 156 664 q 279 568 215 590 q 444 525 343 546 q 629 473 551 503 q 749 392 707 443 q 792 253 792 340 q 767 138 792 188 q 694 57 742 89 q 583 8 647 25 q 439 -8 518 -8 q 293 8 363 -8 q 163 57 224 25 q 49 139 101 89 l 86 196 q 155 137 117 163 q 238 93 193 111 q 335 65 283 75 q 442 54 386 54 q 644 102 571 54 q 717 244 717 150 q 683 350 717 310 q 581 416 650 390 q 407 464 511 442 q 230 514 303 486 q 120 589 157 542 q 83 717 83 636 q 127 867 83 806 q 250 961 171 929 q 432 993 329 993 q 551 981 496 993 q 652 942 606 968 q 739 878 699 917 l 703 822 m 403 -212 l 403 -89 l 467 -89 l 467 -212 l 403 -212 z "},"Ṩ":{"ha":840,"x_min":49,"x_max":792,"o":"m 703 822 q 650 869 679 849 q 588 902 621 889 q 515 922 554 915 q 432 929 476 929 q 222 874 288 929 q 156 726 156 819 q 185 627 156 664 q 279 568 215 590 q 444 525 343 546 q 629 473 551 503 q 749 392 707 443 q 792 253 792 340 q 767 138 792 188 q 694 57 742 89 q 583 8 647 25 q 439 -8 518 -8 q 293 8 363 -8 q 163 57 224 25 q 49 139 101 89 l 86 196 q 155 137 117 163 q 238 93 193 111 q 335 65 283 75 q 442 54 386 54 q 644 102 571 54 q 717 244 717 150 q 683 350 717 310 q 581 416 650 390 q 407 464 511 442 q 230 514 303 486 q 120 589 157 542 q 83 717 83 636 q 127 867 83 806 q 250 961 171 929 q 432 993 329 993 q 551 981 496 993 q 652 942 606 968 q 739 878 699 917 l 703 822 m 403 -212 l 403 -89 l 467 -89 l 467 -212 l 403 -212 m 403 1174 l 403 1299 l 467 1299 l 467 1174 l 403 1174 z "},"ẞ":{"ha":856,"x_min":108,"x_max":801,"o":"m 526 -14 q 367 15 442 -14 q 239 104 293 44 l 271 153 q 391 70 329 96 q 525 44 453 44 q 675 83 617 44 q 733 192 733 122 q 707 264 733 239 q 629 306 681 289 q 506 340 578 322 q 379 381 429 360 q 305 435 329 401 q 281 525 281 469 q 315 640 281 596 q 407 708 349 683 q 540 747 465 733 q 696 768 615 760 l 683 743 q 647 844 679 803 q 564 908 615 886 q 449 929 513 929 q 303 892 364 929 q 209 788 242 854 q 176 639 176 722 l 176 0 l 108 0 l 108 647 q 134 787 108 724 q 206 896 160 850 q 315 967 253 942 q 453 992 378 992 q 599 961 536 992 q 700 876 661 931 q 749 749 739 822 l 751 721 q 593 698 667 710 q 464 667 519 686 q 377 615 408 647 q 346 532 346 583 q 367 467 346 490 q 428 428 388 443 q 528 399 468 414 q 674 356 613 378 q 769 298 736 333 q 801 199 801 263 q 726 43 801 100 q 526 -14 650 -14 z "},"Ə":{"ha":1025,"x_min":42,"x_max":963,"o":"m 507 -11 q 325 28 410 -11 q 176 135 240 67 q 77 294 113 203 q 42 488 42 385 q 42 506 42 497 q 44 521 43 515 l 885 521 q 845 681 878 607 q 760 810 813 756 q 640 896 707 865 q 497 926 574 926 q 363 901 428 926 q 250 830 299 875 q 179 724 201 785 l 111 756 q 202 878 142 825 q 341 963 263 932 q 504 993 419 993 q 682 953 599 993 q 828 844 765 914 q 927 682 892 774 q 963 485 963 590 q 928 292 963 382 q 830 133 893 201 q 685 27 767 65 q 507 -11 603 -11 m 507 56 q 693 108 610 56 q 828 251 776 161 q 886 457 881 342 l 119 457 q 181 250 128 340 q 318 108 233 160 q 507 56 403 56 z "},"T":{"ha":842,"x_min":25,"x_max":818,"o":"m 818 922 l 457 922 l 457 0 l 386 0 l 386 922 l 25 922 l 25 986 l 818 986 l 818 922 z "},"Ŧ":{"ha":890,"x_min":49,"x_max":842,"o":"m 107 428 l 107 483 l 783 483 l 783 428 l 107 428 m 842 922 l 481 922 l 481 0 l 410 0 l 410 922 l 49 922 l 49 986 l 842 986 l 842 922 z "},"Ť":{"ha":842,"x_min":25,"x_max":818,"o":"m 818 922 l 457 922 l 457 0 l 386 0 l 386 922 l 25 922 l 25 986 l 818 986 l 818 922 m 306 1274 l 424 1186 l 542 1274 l 583 1250 l 449 1138 l 397 1138 l 264 1250 l 306 1274 z "},"Ţ":{"ha":842,"x_min":25,"x_max":818,"o":"m 818 922 l 457 922 l 457 0 l 386 0 l 386 922 l 25 922 l 25 986 l 818 986 l 818 922 m 408 -242 q 331 -233 372 -242 q 251 -204 289 -224 l 275 -161 q 333 -184 306 -175 q 396 -193 361 -193 q 472 -175 446 -193 q 499 -119 499 -157 q 472 -55 499 -82 q 397 0 446 -28 l 432 21 q 517 -45 486 -11 q 549 -129 549 -79 q 510 -213 549 -185 q 408 -242 471 -242 z "},"Ț":{"ha":842,"x_min":25,"x_max":818,"o":"m 818 922 l 457 922 l 457 0 l 386 0 l 386 922 l 25 922 l 25 986 l 818 986 l 818 922 m 386 -260 l 407 -165 l 385 -165 l 385 -68 l 453 -68 l 453 -165 l 424 -260 l 386 -260 z "},"Ṭ":{"ha":842,"x_min":25,"x_max":818,"o":"m 818 922 l 457 922 l 457 0 l 386 0 l 386 922 l 25 922 l 25 986 l 818 986 l 818 922 m 390 -212 l 390 -89 l 454 -89 l 454 -212 l 390 -212 z "},"Ṯ":{"ha":842,"x_min":25,"x_max":818,"o":"m 818 922 l 457 922 l 457 0 l 386 0 l 386 922 l 25 922 l 25 986 l 818 986 l 818 922 m 225 -161 l 225 -110 l 621 -110 l 621 -161 l 225 -161 z "},"U":{"ha":1050,"x_min":114,"x_max":936,"o":"m 526 -7 q 329 35 408 -7 q 203 148 250 76 q 135 308 156 219 q 114 490 114 397 l 114 986 l 185 986 l 185 490 q 201 332 185 410 q 256 192 218 254 q 360 94 294 131 q 525 58 426 58 q 691 96 625 58 q 795 195 757 133 q 849 334 833 257 q 865 490 865 411 l 865 986 l 936 986 l 936 490 q 915 302 936 392 q 844 143 893 213 q 718 33 796 74 q 526 -7 640 -7 z "},"Ú":{"ha":1050,"x_min":114,"x_max":936,"o":"m 526 -7 q 329 35 408 -7 q 203 148 250 76 q 135 308 156 219 q 114 490 114 397 l 114 986 l 185 986 l 185 490 q 201 332 185 410 q 256 192 218 254 q 360 94 294 131 q 525 58 426 58 q 691 96 625 58 q 795 195 757 133 q 849 334 833 257 q 865 490 865 411 l 865 986 l 936 986 l 936 490 q 915 302 936 392 q 844 143 893 213 q 718 33 796 74 q 526 -7 640 -7 m 550 1133 l 501 1156 l 586 1274 l 667 1274 l 550 1133 z "},"Ŭ":{"ha":1050,"x_min":114,"x_max":936,"o":"m 526 -7 q 329 35 408 -7 q 203 148 250 76 q 135 308 156 219 q 114 490 114 397 l 114 986 l 185 986 l 185 490 q 201 332 185 410 q 256 192 218 254 q 360 94 294 131 q 525 58 426 58 q 691 96 625 58 q 795 195 757 133 q 849 334 833 257 q 865 490 865 411 l 865 986 l 936 986 l 936 490 q 915 302 936 392 q 844 143 893 213 q 718 33 796 74 q 526 -7 640 -7 m 526 1185 q 577 1210 554 1185 q 604 1274 600 1236 l 650 1274 q 613 1183 650 1221 q 526 1146 576 1146 q 439 1183 475 1146 q 403 1274 403 1221 l 449 1274 q 472 1213 449 1240 q 526 1185 496 1185 z "},"Û":{"ha":1050,"x_min":114,"x_max":936,"o":"m 526 -7 q 329 35 408 -7 q 203 148 250 76 q 135 308 156 219 q 114 490 114 397 l 114 986 l 185 986 l 185 490 q 201 332 185 410 q 256 192 218 254 q 360 94 294 131 q 525 58 426 58 q 691 96 625 58 q 795 195 757 133 q 849 334 833 257 q 865 490 865 411 l 865 986 l 936 986 l 936 490 q 915 302 936 392 q 844 143 893 213 q 718 33 796 74 q 526 -7 640 -7 m 367 1161 l 500 1274 l 551 1274 l 686 1161 l 644 1138 l 526 1225 l 408 1138 l 367 1161 z "},"Ȕ":{"ha":1050,"x_min":114,"x_max":936,"o":"m 526 -7 q 329 35 408 -7 q 203 148 250 76 q 135 308 156 219 q 114 490 114 397 l 114 986 l 185 986 l 185 490 q 201 332 185 410 q 256 192 218 254 q 360 94 294 131 q 525 58 426 58 q 691 96 625 58 q 795 195 757 133 q 849 334 833 257 q 865 490 865 411 l 865 986 l 936 986 l 936 490 q 915 302 936 392 q 844 143 893 213 q 718 33 796 74 q 526 -7 640 -7 m 486 1275 l 558 1275 l 642 1157 l 601 1135 l 486 1275 m 325 1275 l 399 1275 l 481 1157 l 440 1135 l 325 1275 z "},"Ü":{"ha":1050,"x_min":114,"x_max":936,"o":"m 526 -7 q 329 35 408 -7 q 203 148 250 76 q 135 308 156 219 q 114 490 114 397 l 114 986 l 185 986 l 185 490 q 201 332 185 410 q 256 192 218 254 q 360 94 294 131 q 525 58 426 58 q 691 96 625 58 q 795 195 757 133 q 849 334 833 257 q 865 490 865 411 l 865 986 l 936 986 l 936 490 q 915 302 936 392 q 844 143 893 213 q 718 33 796 74 q 526 -7 640 -7 m 400 1150 l 400 1272 l 461 1272 l 461 1150 l 400 1150 m 589 1150 l 589 1272 l 650 1272 l 650 1150 l 589 1150 z "},"Ụ":{"ha":1050,"x_min":114,"x_max":936,"o":"m 526 -7 q 329 35 408 -7 q 203 148 250 76 q 135 308 156 219 q 114 490 114 397 l 114 986 l 185 986 l 185 490 q 201 332 185 410 q 256 192 218 254 q 360 94 294 131 q 525 58 426 58 q 691 96 625 58 q 795 195 757 133 q 849 334 833 257 q 865 490 865 411 l 865 986 l 936 986 l 936 490 q 915 302 936 392 q 844 143 893 213 q 718 33 796 74 q 526 -7 640 -7 m 493 -212 l 493 -89 l 557 -89 l 557 -212 l 493 -212 z "},"Ù":{"ha":1050,"x_min":114,"x_max":936,"o":"m 526 -7 q 329 35 408 -7 q 203 148 250 76 q 135 308 156 219 q 114 490 114 397 l 114 986 l 185 986 l 185 490 q 201 332 185 410 q 256 192 218 254 q 360 94 294 131 q 525 58 426 58 q 691 96 625 58 q 795 195 757 133 q 849 334 833 257 q 865 490 865 411 l 865 986 l 936 986 l 936 490 q 915 302 936 392 q 844 143 893 213 q 718 33 796 74 q 526 -7 640 -7 m 410 1275 l 489 1275 l 575 1157 l 528 1135 l 410 1275 z "},"Ủ":{"ha":1050,"x_min":114,"x_max":936,"o":"m 526 -7 q 329 35 408 -7 q 203 148 250 76 q 135 308 156 219 q 114 490 114 397 l 114 986 l 185 986 l 185 490 q 201 332 185 410 q 256 192 218 254 q 360 94 294 131 q 525 58 426 58 q 691 96 625 58 q 795 195 757 133 q 849 334 833 257 q 865 490 865 411 l 865 986 l 936 986 l 936 490 q 915 302 936 392 q 844 143 893 213 q 718 33 796 74 q 526 -7 640 -7 m 461 1215 l 431 1246 q 478 1279 456 1267 q 532 1292 501 1292 q 597 1267 574 1292 q 619 1207 619 1243 q 603 1155 619 1179 q 554 1100 586 1131 l 531 1126 q 563 1167 553 1150 q 574 1201 574 1185 q 562 1235 574 1221 q 526 1249 550 1249 q 494 1241 508 1249 q 461 1215 481 1233 z "},"Ư":{"ha":1050,"x_min":114,"x_max":1088,"o":"m 526 -7 q 329 35 408 -7 q 203 148 250 76 q 135 308 156 219 q 114 490 114 397 l 114 986 l 185 986 l 185 490 q 201 332 185 410 q 256 192 218 254 q 360 94 294 131 q 525 58 426 58 q 691 96 625 58 q 795 195 757 133 q 849 334 833 257 q 865 490 865 411 l 865 986 l 936 986 l 936 490 q 915 302 936 392 q 844 143 893 213 q 718 33 796 74 q 526 -7 640 -7 m 892 932 l 893 986 q 963 994 935 986 q 1004 1018 990 1003 q 1022 1053 1017 1033 q 1028 1103 1026 1074 l 1089 1103 q 1084 1057 1088 1078 q 1073 1018 1081 1036 q 1050 983 1065 1000 q 1012 955 1036 967 q 956 938 988 943 q 892 932 925 932 z "},"Ứ":{"ha":1050,"x_min":114,"x_max":1088,"o":"m 526 -7 q 329 35 408 -7 q 203 148 250 76 q 135 308 156 219 q 114 490 114 397 l 114 986 l 185 986 l 185 490 q 201 332 185 410 q 256 192 218 254 q 360 94 294 131 q 525 58 426 58 q 691 96 625 58 q 795 195 757 133 q 849 334 833 257 q 865 490 865 411 l 865 986 l 936 986 l 936 490 q 915 302 936 392 q 844 143 893 213 q 718 33 796 74 q 526 -7 640 -7 m 892 932 l 893 986 q 963 994 935 986 q 1004 1018 990 1003 q 1022 1053 1017 1033 q 1028 1103 1026 1074 l 1089 1103 q 1084 1057 1088 1078 q 1073 1018 1081 1036 q 1050 983 1065 1000 q 1012 955 1036 967 q 956 938 988 943 q 892 932 925 932 m 550 1133 l 501 1156 l 586 1274 l 667 1274 l 550 1133 z "},"Ự":{"ha":1050,"x_min":114,"x_max":1088,"o":"m 526 -7 q 329 35 408 -7 q 203 148 250 76 q 135 308 156 219 q 114 490 114 397 l 114 986 l 185 986 l 185 490 q 201 332 185 410 q 256 192 218 254 q 360 94 294 131 q 525 58 426 58 q 691 96 625 58 q 795 195 757 133 q 849 334 833 257 q 865 490 865 411 l 865 986 l 936 986 l 936 490 q 915 302 936 392 q 844 143 893 213 q 718 33 796 74 q 526 -7 640 -7 m 892 932 l 893 986 q 963 994 935 986 q 1004 1018 990 1003 q 1022 1053 1017 1033 q 1028 1103 1026 1074 l 1089 1103 q 1084 1057 1088 1078 q 1073 1018 1081 1036 q 1050 983 1065 1000 q 1012 955 1036 967 q 956 938 988 943 q 892 932 925 932 m 493 -212 l 493 -89 l 557 -89 l 557 -212 l 493 -212 z "},"Ừ":{"ha":1050,"x_min":114,"x_max":1088,"o":"m 526 -7 q 329 35 408 -7 q 203 148 250 76 q 135 308 156 219 q 114 490 114 397 l 114 986 l 185 986 l 185 490 q 201 332 185 410 q 256 192 218 254 q 360 94 294 131 q 525 58 426 58 q 691 96 625 58 q 795 195 757 133 q 849 334 833 257 q 865 490 865 411 l 865 986 l 936 986 l 936 490 q 915 302 936 392 q 844 143 893 213 q 718 33 796 74 q 526 -7 640 -7 m 892 932 l 893 986 q 963 994 935 986 q 1004 1018 990 1003 q 1022 1053 1017 1033 q 1028 1103 1026 1074 l 1089 1103 q 1084 1057 1088 1078 q 1073 1018 1081 1036 q 1050 983 1065 1000 q 1012 955 1036 967 q 956 938 988 943 q 892 932 925 932 m 410 1275 l 489 1275 l 575 1157 l 528 1135 l 410 1275 z "},"Ử":{"ha":1050,"x_min":114,"x_max":1088,"o":"m 526 -7 q 329 35 408 -7 q 203 148 250 76 q 135 308 156 219 q 114 490 114 397 l 114 986 l 185 986 l 185 490 q 201 332 185 410 q 256 192 218 254 q 360 94 294 131 q 525 58 426 58 q 691 96 625 58 q 795 195 757 133 q 849 334 833 257 q 865 490 865 411 l 865 986 l 936 986 l 936 490 q 915 302 936 392 q 844 143 893 213 q 718 33 796 74 q 526 -7 640 -7 m 892 932 l 893 986 q 963 994 935 986 q 1004 1018 990 1003 q 1022 1053 1017 1033 q 1028 1103 1026 1074 l 1089 1103 q 1084 1057 1088 1078 q 1073 1018 1081 1036 q 1050 983 1065 1000 q 1012 955 1036 967 q 956 938 988 943 q 892 932 925 932 m 461 1215 l 431 1246 q 478 1279 456 1267 q 532 1292 501 1292 q 597 1267 574 1292 q 619 1207 619 1243 q 603 1155 619 1179 q 554 1100 586 1131 l 531 1126 q 563 1167 553 1150 q 574 1201 574 1185 q 562 1235 574 1221 q 526 1249 550 1249 q 494 1241 508 1249 q 461 1215 481 1233 z "},"Ữ":{"ha":1050,"x_min":114,"x_max":1088,"o":"m 526 -7 q 329 35 408 -7 q 203 148 250 76 q 135 308 156 219 q 114 490 114 397 l 114 986 l 185 986 l 185 490 q 201 332 185 410 q 256 192 218 254 q 360 94 294 131 q 525 58 426 58 q 691 96 625 58 q 795 195 757 133 q 849 334 833 257 q 865 490 865 411 l 865 986 l 936 986 l 936 490 q 915 302 936 392 q 844 143 893 213 q 718 33 796 74 q 526 -7 640 -7 m 892 932 l 893 986 q 963 994 935 986 q 1004 1018 990 1003 q 1022 1053 1017 1033 q 1028 1103 1026 1074 l 1089 1103 q 1084 1057 1088 1078 q 1073 1018 1081 1036 q 1050 983 1065 1000 q 1012 955 1036 967 q 956 938 988 943 q 892 932 925 932 m 608 1158 q 538 1172 567 1158 q 485 1200 510 1186 q 432 1214 461 1214 q 387 1199 401 1214 q 367 1167 372 1183 q 363 1147 363 1150 l 315 1147 q 319 1171 315 1153 q 336 1210 324 1189 q 372 1247 349 1231 q 432 1263 394 1263 q 496 1249 469 1263 q 548 1221 522 1235 q 608 1207 574 1207 q 662 1222 646 1207 q 683 1254 678 1238 q 688 1274 688 1271 l 736 1274 q 731 1249 736 1268 q 713 1210 726 1231 q 674 1174 699 1189 q 608 1158 649 1158 z "},"Ű":{"ha":1050,"x_min":114,"x_max":936,"o":"m 526 -7 q 329 35 408 -7 q 203 148 250 76 q 135 308 156 219 q 114 490 114 397 l 114 986 l 185 986 l 185 490 q 201 332 185 410 q 256 192 218 254 q 360 94 294 131 q 525 58 426 58 q 691 96 625 58 q 795 195 757 133 q 849 334 833 257 q 865 490 865 411 l 865 986 l 936 986 l 936 490 q 915 302 936 392 q 844 143 893 213 q 718 33 796 74 q 526 -7 640 -7 m 438 1135 l 397 1157 l 479 1275 l 553 1275 l 438 1135 m 599 1135 l 557 1157 l 640 1275 l 714 1275 l 599 1135 z "},"Ȗ":{"ha":1050,"x_min":114,"x_max":936,"o":"m 526 -7 q 329 35 408 -7 q 203 148 250 76 q 135 308 156 219 q 114 490 114 397 l 114 986 l 185 986 l 185 490 q 201 332 185 410 q 256 192 218 254 q 360 94 294 131 q 525 58 426 58 q 691 96 625 58 q 795 195 757 133 q 849 334 833 257 q 865 490 865 411 l 865 986 l 936 986 l 936 490 q 915 302 936 392 q 844 143 893 213 q 718 33 796 74 q 526 -7 640 -7 m 526 1235 q 472 1208 496 1235 q 449 1146 449 1181 l 403 1146 q 439 1236 403 1199 q 526 1274 475 1274 q 613 1236 576 1274 q 650 1146 650 1199 l 604 1146 q 577 1209 600 1183 q 526 1235 554 1235 z "},"Ū":{"ha":1050,"x_min":114,"x_max":936,"o":"m 526 -7 q 329 35 408 -7 q 203 148 250 76 q 135 308 156 219 q 114 490 114 397 l 114 986 l 185 986 l 185 490 q 201 332 185 410 q 256 192 218 254 q 360 94 294 131 q 525 58 426 58 q 691 96 625 58 q 795 195 757 133 q 849 334 833 257 q 865 490 865 411 l 865 986 l 936 986 l 936 490 q 915 302 936 392 q 844 143 893 213 q 718 33 796 74 q 526 -7 640 -7 m 329 1193 l 329 1244 l 725 1244 l 725 1193 l 329 1193 z "},"Ṻ":{"ha":1050,"x_min":114,"x_max":936,"o":"m 526 -7 q 329 35 408 -7 q 203 148 250 76 q 135 308 156 219 q 114 490 114 397 l 114 986 l 185 986 l 185 490 q 201 332 185 410 q 256 192 218 254 q 360 94 294 131 q 525 58 426 58 q 691 96 625 58 q 795 195 757 133 q 849 334 833 257 q 865 490 865 411 l 865 986 l 936 986 l 936 490 q 915 302 936 392 q 844 143 893 213 q 718 33 796 74 q 526 -7 640 -7 m 329 1193 l 329 1244 l 725 1244 l 725 1193 l 329 1193 m 401 1411 l 401 1533 l 463 1533 l 463 1411 l 401 1411 m 590 1411 l 590 1533 l 651 1533 l 651 1411 l 590 1411 z "},"Ų":{"ha":1050,"x_min":114,"x_max":936,"o":"m 526 -7 q 329 35 408 -7 q 203 148 250 76 q 135 308 156 219 q 114 490 114 397 l 114 986 l 185 986 l 185 490 q 201 332 185 410 q 256 192 218 254 q 360 94 294 131 q 525 58 426 58 q 691 96 625 58 q 795 195 757 133 q 849 334 833 257 q 865 490 865 411 l 865 986 l 936 986 l 936 490 q 915 302 936 392 q 844 143 893 213 q 718 33 796 74 q 526 -7 640 -7 m 450 -143 q 480 -62 450 -101 q 571 21 510 -22 l 589 21 l 610 0 q 528 -74 553 -43 q 503 -133 503 -106 q 528 -174 503 -161 q 606 -196 553 -187 l 585 -243 q 502 -222 532 -236 q 461 -187 472 -207 q 450 -143 450 -167 z "},"Ů":{"ha":1050,"x_min":114,"x_max":936,"o":"m 526 -7 q 329 35 408 -7 q 203 148 250 76 q 135 308 156 219 q 114 490 114 397 l 114 986 l 185 986 l 185 490 q 201 332 185 410 q 256 192 218 254 q 360 94 294 131 q 525 58 426 58 q 691 96 625 58 q 795 195 757 133 q 849 334 833 257 q 865 490 865 411 l 865 986 l 936 986 l 936 490 q 915 302 936 392 q 844 143 893 213 q 718 33 796 74 q 526 -7 640 -7 m 408 1196 q 442 1276 408 1244 q 525 1308 476 1308 q 609 1276 576 1308 q 642 1196 642 1244 q 609 1116 642 1147 q 525 1085 576 1085 q 442 1116 476 1085 q 408 1196 408 1147 m 525 1267 q 475 1248 496 1267 q 454 1196 454 1229 q 475 1146 454 1167 q 525 1125 496 1125 q 574 1144 553 1125 q 596 1196 596 1164 q 575 1248 596 1229 q 525 1267 554 1267 z "},"Ũ":{"ha":1050,"x_min":114,"x_max":936,"o":"m 526 -7 q 329 35 408 -7 q 203 148 250 76 q 135 308 156 219 q 114 490 114 397 l 114 986 l 185 986 l 185 490 q 201 332 185 410 q 256 192 218 254 q 360 94 294 131 q 525 58 426 58 q 691 96 625 58 q 795 195 757 133 q 849 334 833 257 q 865 490 865 411 l 865 986 l 936 986 l 936 490 q 915 302 936 392 q 844 143 893 213 q 718 33 796 74 q 526 -7 640 -7 m 608 1158 q 538 1172 567 1158 q 485 1200 510 1186 q 432 1214 461 1214 q 387 1199 401 1214 q 367 1167 372 1183 q 363 1147 363 1150 l 315 1147 q 319 1171 315 1153 q 336 1210 324 1189 q 372 1247 349 1231 q 432 1263 394 1263 q 496 1249 469 1263 q 548 1221 522 1235 q 608 1207 574 1207 q 662 1222 646 1207 q 683 1254 678 1238 q 688 1274 688 1271 l 736 1274 q 731 1249 736 1268 q 713 1210 726 1231 q 674 1174 699 1189 q 608 1158 649 1158 z "},"Ṹ":{"ha":1050,"x_min":114,"x_max":936,"o":"m 526 -7 q 329 35 408 -7 q 203 148 250 76 q 135 308 156 219 q 114 490 114 397 l 114 986 l 185 986 l 185 490 q 201 332 185 410 q 256 192 218 254 q 360 94 294 131 q 525 58 426 58 q 691 96 625 58 q 795 195 757 133 q 849 334 833 257 q 865 490 865 411 l 865 986 l 936 986 l 936 490 q 915 302 936 392 q 844 143 893 213 q 718 33 796 74 q 526 -7 640 -7 m 608 1158 q 538 1172 567 1158 q 485 1200 510 1186 q 432 1214 461 1214 q 387 1199 401 1214 q 367 1167 372 1183 q 363 1147 363 1150 l 315 1147 q 319 1171 315 1153 q 336 1210 324 1189 q 372 1247 349 1231 q 432 1263 394 1263 q 496 1249 469 1263 q 548 1221 522 1235 q 608 1207 574 1207 q 662 1222 646 1207 q 683 1254 678 1238 q 688 1274 688 1271 l 736 1274 q 731 1249 736 1268 q 713 1210 726 1231 q 674 1174 699 1189 q 608 1158 649 1158 m 550 1425 l 501 1447 l 586 1565 l 667 1565 l 550 1425 z "},"V":{"ha":943,"x_min":21,"x_max":921,"o":"m 96 986 l 471 89 l 846 986 l 921 986 l 506 0 l 438 0 l 21 986 l 96 986 z "},"W":{"ha":1449,"x_min":21,"x_max":1429,"o":"m 507 979 l 576 979 l 724 621 l 871 979 l 940 979 l 767 564 l 974 83 l 1351 986 l 1429 986 l 1007 0 l 942 0 l 725 507 l 507 0 l 442 0 l 21 986 l 97 986 l 476 83 l 681 564 l 507 979 z "},"Ẃ":{"ha":1449,"x_min":21,"x_max":1429,"o":"m 507 979 l 576 979 l 724 621 l 871 979 l 940 979 l 767 564 l 974 83 l 1351 986 l 1429 986 l 1007 0 l 942 0 l 725 507 l 507 0 l 442 0 l 21 986 l 97 986 l 476 83 l 681 564 l 507 979 m 747 1133 l 699 1156 l 783 1274 l 864 1274 l 747 1133 z "},"Ŵ":{"ha":1449,"x_min":21,"x_max":1429,"o":"m 507 979 l 576 979 l 724 621 l 871 979 l 940 979 l 767 564 l 974 83 l 1351 986 l 1429 986 l 1007 0 l 942 0 l 725 507 l 507 0 l 442 0 l 21 986 l 97 986 l 476 83 l 681 564 l 507 979 m 564 1161 l 697 1274 l 749 1274 l 883 1161 l 842 1138 l 724 1225 l 606 1138 l 564 1161 z "},"Ẅ":{"ha":1449,"x_min":21,"x_max":1429,"o":"m 507 979 l 576 979 l 724 621 l 871 979 l 940 979 l 767 564 l 974 83 l 1351 986 l 1429 986 l 1007 0 l 942 0 l 725 507 l 507 0 l 442 0 l 21 986 l 97 986 l 476 83 l 681 564 l 507 979 m 599 1150 l 599 1272 l 660 1272 l 660 1150 l 599 1150 m 788 1150 l 788 1272 l 849 1272 l 849 1150 l 788 1150 z "},"Ẁ":{"ha":1449,"x_min":21,"x_max":1429,"o":"m 507 979 l 576 979 l 724 621 l 871 979 l 940 979 l 767 564 l 974 83 l 1351 986 l 1429 986 l 1007 0 l 942 0 l 725 507 l 507 0 l 442 0 l 21 986 l 97 986 l 476 83 l 681 564 l 507 979 m 607 1275 l 686 1275 l 772 1157 l 725 1135 l 607 1275 z "},"X":{"ha":872,"x_min":10,"x_max":863,"o":"m 93 986 l 438 539 l 781 986 l 863 986 l 476 486 l 851 0 l 769 0 l 438 433 l 104 0 l 21 0 l 396 486 l 10 986 l 93 986 z "},"Y":{"ha":899,"x_min":26,"x_max":874,"o":"m 104 986 l 449 440 l 794 986 l 874 986 l 485 372 l 485 0 l 414 0 l 414 375 l 26 986 l 104 986 z "},"Ý":{"ha":899,"x_min":26,"x_max":874,"o":"m 104 986 l 449 440 l 794 986 l 874 986 l 485 372 l 485 0 l 414 0 l 414 375 l 26 986 l 104 986 m 472 1133 l 424 1156 l 508 1274 l 589 1274 l 472 1133 z "},"Ŷ":{"ha":899,"x_min":26,"x_max":874,"o":"m 104 986 l 449 440 l 794 986 l 874 986 l 485 372 l 485 0 l 414 0 l 414 375 l 26 986 l 104 986 m 289 1161 l 422 1274 l 474 1274 l 608 1161 l 567 1138 l 449 1225 l 331 1138 l 289 1161 z "},"Ÿ":{"ha":899,"x_min":26,"x_max":874,"o":"m 104 986 l 449 440 l 794 986 l 874 986 l 485 372 l 485 0 l 414 0 l 414 375 l 26 986 l 104 986 m 324 1150 l 324 1272 l 385 1272 l 385 1150 l 324 1150 m 513 1150 l 513 1272 l 574 1272 l 574 1150 l 513 1150 z "},"Ẏ":{"ha":899,"x_min":26,"x_max":874,"o":"m 104 986 l 449 440 l 794 986 l 874 986 l 485 372 l 485 0 l 414 0 l 414 375 l 26 986 l 104 986 m 417 1149 l 417 1274 l 481 1274 l 481 1149 l 417 1149 z "},"Ỵ":{"ha":899,"x_min":26,"x_max":874,"o":"m 104 986 l 449 440 l 794 986 l 874 986 l 485 372 l 485 0 l 414 0 l 414 375 l 26 986 l 104 986 m 418 -212 l 418 -89 l 482 -89 l 482 -212 l 418 -212 z "},"Ỳ":{"ha":899,"x_min":26,"x_max":874,"o":"m 104 986 l 449 440 l 794 986 l 874 986 l 485 372 l 485 0 l 414 0 l 414 375 l 26 986 l 104 986 m 332 1275 l 411 1275 l 497 1157 l 450 1135 l 332 1275 z "},"Ỷ":{"ha":899,"x_min":26,"x_max":874,"o":"m 104 986 l 449 440 l 794 986 l 874 986 l 485 372 l 485 0 l 414 0 l 414 375 l 26 986 l 104 986 m 383 1215 l 353 1246 q 401 1279 378 1267 q 454 1292 424 1292 q 519 1267 496 1292 q 542 1207 542 1243 q 525 1155 542 1179 q 476 1100 508 1131 l 453 1126 q 485 1167 475 1150 q 496 1201 496 1185 q 484 1235 496 1221 q 449 1249 472 1249 q 417 1241 431 1249 q 383 1215 403 1233 z "},"Ȳ":{"ha":899,"x_min":26,"x_max":874,"o":"m 104 986 l 449 440 l 794 986 l 874 986 l 485 372 l 485 0 l 414 0 l 414 375 l 26 986 l 104 986 m 251 1193 l 251 1244 l 647 1244 l 647 1193 l 251 1193 z "},"Ỹ":{"ha":899,"x_min":26,"x_max":874,"o":"m 104 986 l 449 440 l 794 986 l 874 986 l 485 372 l 485 0 l 414 0 l 414 375 l 26 986 l 104 986 m 532 1158 q 462 1172 490 1158 q 409 1200 433 1186 q 356 1214 385 1214 q 310 1199 325 1214 q 291 1167 296 1183 q 286 1147 286 1150 l 239 1147 q 243 1171 239 1153 q 260 1210 247 1189 q 295 1247 272 1231 q 356 1263 318 1263 q 419 1249 393 1263 q 472 1221 446 1235 q 532 1207 497 1207 q 585 1222 569 1207 q 606 1254 601 1238 q 611 1274 611 1271 l 660 1274 q 655 1249 660 1268 q 636 1210 650 1231 q 597 1174 622 1189 q 532 1158 572 1158 z "},"Z":{"ha":871,"x_min":42,"x_max":826,"o":"m 42 58 l 743 922 l 51 922 l 51 986 l 826 986 l 826 928 l 131 64 l 824 64 l 824 0 l 42 0 l 42 58 z "},"Ź":{"ha":871,"x_min":42,"x_max":826,"o":"m 42 58 l 743 922 l 51 922 l 51 986 l 826 986 l 826 928 l 131 64 l 824 64 l 824 0 l 42 0 l 42 58 m 483 1133 l 435 1156 l 519 1274 l 600 1274 l 483 1133 z "},"Ž":{"ha":871,"x_min":42,"x_max":826,"o":"m 42 58 l 743 922 l 51 922 l 51 986 l 826 986 l 826 928 l 131 64 l 824 64 l 824 0 l 42 0 l 42 58 m 342 1274 l 460 1186 l 578 1274 l 619 1250 l 485 1138 l 433 1138 l 300 1250 l 342 1274 z "},"Ż":{"ha":871,"x_min":42,"x_max":826,"o":"m 42 58 l 743 922 l 51 922 l 51 986 l 826 986 l 826 928 l 131 64 l 824 64 l 824 0 l 42 0 l 42 58 m 426 1149 l 426 1274 l 490 1274 l 490 1149 l 426 1149 z "},"Ẓ":{"ha":871,"x_min":42,"x_max":826,"o":"m 42 58 l 743 922 l 51 922 l 51 986 l 826 986 l 826 928 l 131 64 l 824 64 l 824 0 l 42 0 l 42 58 m 404 -212 l 404 -89 l 468 -89 l 468 -212 l 404 -212 z "},"a":{"ha":746,"x_min":49,"x_max":674,"o":"m 49 208 q 88 322 49 274 q 194 397 126 369 q 351 424 263 424 q 467 414 407 424 q 574 388 526 404 l 574 456 q 516 615 574 556 q 357 675 458 675 q 244 653 303 675 q 125 589 186 631 l 96 639 q 233 710 167 686 q 364 735 299 735 q 568 658 493 735 q 643 450 643 582 l 643 92 q 651 67 643 75 q 674 57 658 58 l 674 0 q 653 -1 661 -1 q 639 -1 644 -1 q 598 21 613 3 q 582 61 583 39 l 582 118 q 453 21 532 56 q 289 -14 375 -14 q 166 15 221 -14 q 80 95 111 44 q 49 208 49 146 m 546 149 q 567 183 560 167 q 574 214 574 200 l 574 333 q 469 363 524 353 q 358 372 415 372 q 183 329 250 372 q 115 213 115 286 q 139 128 115 167 q 205 65 163 89 q 303 42 247 42 q 447 72 381 42 q 546 149 513 101 z "},"á":{"ha":746,"x_min":49,"x_max":674,"o":"m 49 208 q 88 322 49 274 q 194 397 126 369 q 351 424 263 424 q 467 414 407 424 q 574 388 526 404 l 574 456 q 516 615 574 556 q 357 675 458 675 q 244 653 303 675 q 125 589 186 631 l 96 639 q 233 710 167 686 q 364 735 299 735 q 568 658 493 735 q 643 450 643 582 l 643 92 q 651 67 643 75 q 674 57 658 58 l 674 0 q 653 -1 661 -1 q 639 -1 644 -1 q 598 21 613 3 q 582 61 583 39 l 582 118 q 453 21 532 56 q 289 -14 375 -14 q 166 15 221 -14 q 80 95 111 44 q 49 208 49 146 m 546 149 q 567 183 560 167 q 574 214 574 200 l 574 333 q 469 363 524 353 q 358 372 415 372 q 183 329 250 372 q 115 213 115 286 q 139 128 115 167 q 205 65 163 89 q 303 42 247 42 q 447 72 381 42 q 546 149 513 101 m 386 874 l 338 896 l 422 1014 l 503 1014 l 386 874 z "},"ă":{"ha":746,"x_min":49,"x_max":674,"o":"m 49 208 q 88 322 49 274 q 194 397 126 369 q 351 424 263 424 q 467 414 407 424 q 574 388 526 404 l 574 456 q 516 615 574 556 q 357 675 458 675 q 244 653 303 675 q 125 589 186 631 l 96 639 q 233 710 167 686 q 364 735 299 735 q 568 658 493 735 q 643 450 643 582 l 643 92 q 651 67 643 75 q 674 57 658 58 l 674 0 q 653 -1 661 -1 q 639 -1 644 -1 q 598 21 613 3 q 582 61 583 39 l 582 118 q 453 21 532 56 q 289 -14 375 -14 q 166 15 221 -14 q 80 95 111 44 q 49 208 49 146 m 546 149 q 567 183 560 167 q 574 214 574 200 l 574 333 q 469 363 524 353 q 358 372 415 372 q 183 329 250 372 q 115 213 115 286 q 139 128 115 167 q 205 65 163 89 q 303 42 247 42 q 447 72 381 42 q 546 149 513 101 m 363 925 q 413 951 390 925 q 440 1014 436 976 l 486 1014 q 449 924 486 961 q 363 886 413 886 q 275 924 311 886 q 239 1014 239 961 l 285 1014 q 308 953 285 981 q 363 925 332 925 z "},"ắ":{"ha":746,"x_min":49,"x_max":674,"o":"m 49 208 q 88 322 49 274 q 194 397 126 369 q 351 424 263 424 q 467 414 407 424 q 574 388 526 404 l 574 456 q 516 615 574 556 q 357 675 458 675 q 244 653 303 675 q 125 589 186 631 l 96 639 q 233 710 167 686 q 364 735 299 735 q 568 658 493 735 q 643 450 643 582 l 643 92 q 651 67 643 75 q 674 57 658 58 l 674 0 q 653 -1 661 -1 q 639 -1 644 -1 q 598 21 613 3 q 582 61 583 39 l 582 118 q 453 21 532 56 q 289 -14 375 -14 q 166 15 221 -14 q 80 95 111 44 q 49 208 49 146 m 546 149 q 567 183 560 167 q 574 214 574 200 l 574 333 q 469 363 524 353 q 358 372 415 372 q 183 329 250 372 q 115 213 115 286 q 139 128 115 167 q 205 65 163 89 q 303 42 247 42 q 447 72 381 42 q 546 149 513 101 z "},"ặ":{"ha":746,"x_min":49,"x_max":674,"o":"m 49 208 q 88 322 49 274 q 194 397 126 369 q 351 424 263 424 q 467 414 407 424 q 574 388 526 404 l 574 456 q 516 615 574 556 q 357 675 458 675 q 244 653 303 675 q 125 589 186 631 l 96 639 q 233 710 167 686 q 364 735 299 735 q 568 658 493 735 q 643 450 643 582 l 643 92 q 651 67 643 75 q 674 57 658 58 l 674 0 q 653 -1 661 -1 q 639 -1 644 -1 q 598 21 613 3 q 582 61 583 39 l 582 118 q 453 21 532 56 q 289 -14 375 -14 q 166 15 221 -14 q 80 95 111 44 q 49 208 49 146 m 546 149 q 567 183 560 167 q 574 214 574 200 l 574 333 q 469 363 524 353 q 358 372 415 372 q 183 329 250 372 q 115 213 115 286 q 139 128 115 167 q 205 65 163 89 q 303 42 247 42 q 447 72 381 42 q 546 149 513 101 m 360 -212 l 360 -89 l 424 -89 l 424 -212 l 360 -212 m 363 925 q 413 951 390 925 q 440 1014 436 976 l 486 1014 q 449 924 486 961 q 363 886 413 886 q 275 924 311 886 q 239 1014 239 961 l 285 1014 q 308 953 285 981 q 363 925 332 925 z "},"ằ":{"ha":746,"x_min":49,"x_max":674,"o":"m 49 208 q 88 322 49 274 q 194 397 126 369 q 351 424 263 424 q 467 414 407 424 q 574 388 526 404 l 574 456 q 516 615 574 556 q 357 675 458 675 q 244 653 303 675 q 125 589 186 631 l 96 639 q 233 710 167 686 q 364 735 299 735 q 568 658 493 735 q 643 450 643 582 l 643 92 q 651 67 643 75 q 674 57 658 58 l 674 0 q 653 -1 661 -1 q 639 -1 644 -1 q 598 21 613 3 q 582 61 583 39 l 582 118 q 453 21 532 56 q 289 -14 375 -14 q 166 15 221 -14 q 80 95 111 44 q 49 208 49 146 m 546 149 q 567 183 560 167 q 574 214 574 200 l 574 333 q 469 363 524 353 q 358 372 415 372 q 183 329 250 372 q 115 213 115 286 q 139 128 115 167 q 205 65 163 89 q 303 42 247 42 q 447 72 381 42 q 546 149 513 101 z "},"ẳ":{"ha":746,"x_min":49,"x_max":674,"o":"m 49 208 q 88 322 49 274 q 194 397 126 369 q 351 424 263 424 q 467 414 407 424 q 574 388 526 404 l 574 456 q 516 615 574 556 q 357 675 458 675 q 244 653 303 675 q 125 589 186 631 l 96 639 q 233 710 167 686 q 364 735 299 735 q 568 658 493 735 q 643 450 643 582 l 643 92 q 651 67 643 75 q 674 57 658 58 l 674 0 q 653 -1 661 -1 q 639 -1 644 -1 q 598 21 613 3 q 582 61 583 39 l 582 118 q 453 21 532 56 q 289 -14 375 -14 q 166 15 221 -14 q 80 95 111 44 q 49 208 49 146 m 546 149 q 567 183 560 167 q 574 214 574 200 l 574 333 q 469 363 524 353 q 358 372 415 372 q 183 329 250 372 q 115 213 115 286 q 139 128 115 167 q 205 65 163 89 q 303 42 247 42 q 447 72 381 42 q 546 149 513 101 z "},"ẵ":{"ha":746,"x_min":49,"x_max":674,"o":"m 49 208 q 88 322 49 274 q 194 397 126 369 q 351 424 263 424 q 467 414 407 424 q 574 388 526 404 l 574 456 q 516 615 574 556 q 357 675 458 675 q 244 653 303 675 q 125 589 186 631 l 96 639 q 233 710 167 686 q 364 735 299 735 q 568 658 493 735 q 643 450 643 582 l 643 92 q 651 67 643 75 q 674 57 658 58 l 674 0 q 653 -1 661 -1 q 639 -1 644 -1 q 598 21 613 3 q 582 61 583 39 l 582 118 q 453 21 532 56 q 289 -14 375 -14 q 166 15 221 -14 q 80 95 111 44 q 49 208 49 146 m 546 149 q 567 183 560 167 q 574 214 574 200 l 574 333 q 469 363 524 353 q 358 372 415 372 q 183 329 250 372 q 115 213 115 286 q 139 128 115 167 q 205 65 163 89 q 303 42 247 42 q 447 72 381 42 q 546 149 513 101 z "},"â":{"ha":746,"x_min":49,"x_max":674,"o":"m 49 208 q 88 322 49 274 q 194 397 126 369 q 351 424 263 424 q 467 414 407 424 q 574 388 526 404 l 574 456 q 516 615 574 556 q 357 675 458 675 q 244 653 303 675 q 125 589 186 631 l 96 639 q 233 710 167 686 q 364 735 299 735 q 568 658 493 735 q 643 450 643 582 l 643 92 q 651 67 643 75 q 674 57 658 58 l 674 0 q 653 -1 661 -1 q 639 -1 644 -1 q 598 21 613 3 q 582 61 583 39 l 582 118 q 453 21 532 56 q 289 -14 375 -14 q 166 15 221 -14 q 80 95 111 44 q 49 208 49 146 m 546 149 q 567 183 560 167 q 574 214 574 200 l 574 333 q 469 363 524 353 q 358 372 415 372 q 183 329 250 372 q 115 213 115 286 q 139 128 115 167 q 205 65 163 89 q 303 42 247 42 q 447 72 381 42 q 546 149 513 101 m 203 901 l 336 1014 l 388 1014 l 522 901 l 481 878 l 363 965 l 244 878 l 203 901 z "},"ấ":{"ha":746,"x_min":49,"x_max":674,"o":"m 49 208 q 88 322 49 274 q 194 397 126 369 q 351 424 263 424 q 467 414 407 424 q 574 388 526 404 l 574 456 q 516 615 574 556 q 357 675 458 675 q 244 653 303 675 q 125 589 186 631 l 96 639 q 233 710 167 686 q 364 735 299 735 q 568 658 493 735 q 643 450 643 582 l 643 92 q 651 67 643 75 q 674 57 658 58 l 674 0 q 653 -1 661 -1 q 639 -1 644 -1 q 598 21 613 3 q 582 61 583 39 l 582 118 q 453 21 532 56 q 289 -14 375 -14 q 166 15 221 -14 q 80 95 111 44 q 49 208 49 146 m 546 149 q 567 183 560 167 q 574 214 574 200 l 574 333 q 469 363 524 353 q 358 372 415 372 q 183 329 250 372 q 115 213 115 286 q 139 128 115 167 q 205 65 163 89 q 303 42 247 42 q 447 72 381 42 q 546 149 513 101 z "},"ậ":{"ha":746,"x_min":49,"x_max":674,"o":"m 49 208 q 88 322 49 274 q 194 397 126 369 q 351 424 263 424 q 467 414 407 424 q 574 388 526 404 l 574 456 q 516 615 574 556 q 357 675 458 675 q 244 653 303 675 q 125 589 186 631 l 96 639 q 233 710 167 686 q 364 735 299 735 q 568 658 493 735 q 643 450 643 582 l 643 92 q 651 67 643 75 q 674 57 658 58 l 674 0 q 653 -1 661 -1 q 639 -1 644 -1 q 598 21 613 3 q 582 61 583 39 l 582 118 q 453 21 532 56 q 289 -14 375 -14 q 166 15 221 -14 q 80 95 111 44 q 49 208 49 146 m 546 149 q 567 183 560 167 q 574 214 574 200 l 574 333 q 469 363 524 353 q 358 372 415 372 q 183 329 250 372 q 115 213 115 286 q 139 128 115 167 q 205 65 163 89 q 303 42 247 42 q 447 72 381 42 q 546 149 513 101 m 360 -212 l 360 -89 l 424 -89 l 424 -212 l 360 -212 m 203 901 l 336 1014 l 388 1014 l 522 901 l 481 878 l 363 965 l 244 878 l 203 901 z "},"ầ":{"ha":746,"x_min":49,"x_max":674,"o":"m 49 208 q 88 322 49 274 q 194 397 126 369 q 351 424 263 424 q 467 414 407 424 q 574 388 526 404 l 574 456 q 516 615 574 556 q 357 675 458 675 q 244 653 303 675 q 125 589 186 631 l 96 639 q 233 710 167 686 q 364 735 299 735 q 568 658 493 735 q 643 450 643 582 l 643 92 q 651 67 643 75 q 674 57 658 58 l 674 0 q 653 -1 661 -1 q 639 -1 644 -1 q 598 21 613 3 q 582 61 583 39 l 582 118 q 453 21 532 56 q 289 -14 375 -14 q 166 15 221 -14 q 80 95 111 44 q 49 208 49 146 m 546 149 q 567 183 560 167 q 574 214 574 200 l 574 333 q 469 363 524 353 q 358 372 415 372 q 183 329 250 372 q 115 213 115 286 q 139 128 115 167 q 205 65 163 89 q 303 42 247 42 q 447 72 381 42 q 546 149 513 101 z "},"ẩ":{"ha":746,"x_min":49,"x_max":674,"o":"m 49 208 q 88 322 49 274 q 194 397 126 369 q 351 424 263 424 q 467 414 407 424 q 574 388 526 404 l 574 456 q 516 615 574 556 q 357 675 458 675 q 244 653 303 675 q 125 589 186 631 l 96 639 q 233 710 167 686 q 364 735 299 735 q 568 658 493 735 q 643 450 643 582 l 643 92 q 651 67 643 75 q 674 57 658 58 l 674 0 q 653 -1 661 -1 q 639 -1 644 -1 q 598 21 613 3 q 582 61 583 39 l 582 118 q 453 21 532 56 q 289 -14 375 -14 q 166 15 221 -14 q 80 95 111 44 q 49 208 49 146 m 546 149 q 567 183 560 167 q 574 214 574 200 l 574 333 q 469 363 524 353 q 358 372 415 372 q 183 329 250 372 q 115 213 115 286 q 139 128 115 167 q 205 65 163 89 q 303 42 247 42 q 447 72 381 42 q 546 149 513 101 z "},"ẫ":{"ha":746,"x_min":49,"x_max":674,"o":"m 49 208 q 88 322 49 274 q 194 397 126 369 q 351 424 263 424 q 467 414 407 424 q 574 388 526 404 l 574 456 q 516 615 574 556 q 357 675 458 675 q 244 653 303 675 q 125 589 186 631 l 96 639 q 233 710 167 686 q 364 735 299 735 q 568 658 493 735 q 643 450 643 582 l 643 92 q 651 67 643 75 q 674 57 658 58 l 674 0 q 653 -1 661 -1 q 639 -1 644 -1 q 598 21 613 3 q 582 61 583 39 l 582 118 q 453 21 532 56 q 289 -14 375 -14 q 166 15 221 -14 q 80 95 111 44 q 49 208 49 146 m 546 149 q 567 183 560 167 q 574 214 574 200 l 574 333 q 469 363 524 353 q 358 372 415 372 q 183 329 250 372 q 115 213 115 286 q 139 128 115 167 q 205 65 163 89 q 303 42 247 42 q 447 72 381 42 q 546 149 513 101 z "},"ȁ":{"ha":746,"x_min":49,"x_max":674,"o":"m 49 208 q 88 322 49 274 q 194 397 126 369 q 351 424 263 424 q 467 414 407 424 q 574 388 526 404 l 574 456 q 516 615 574 556 q 357 675 458 675 q 244 653 303 675 q 125 589 186 631 l 96 639 q 233 710 167 686 q 364 735 299 735 q 568 658 493 735 q 643 450 643 582 l 643 92 q 651 67 643 75 q 674 57 658 58 l 674 0 q 653 -1 661 -1 q 639 -1 644 -1 q 598 21 613 3 q 582 61 583 39 l 582 118 q 453 21 532 56 q 289 -14 375 -14 q 166 15 221 -14 q 80 95 111 44 q 49 208 49 146 m 546 149 q 567 183 560 167 q 574 214 574 200 l 574 333 q 469 363 524 353 q 358 372 415 372 q 183 329 250 372 q 115 213 115 286 q 139 128 115 167 q 205 65 163 89 q 303 42 247 42 q 447 72 381 42 q 546 149 513 101 m 322 1014 l 394 1014 l 478 896 l 438 874 l 322 1014 m 161 1014 l 235 1014 l 317 896 l 276 874 l 161 1014 z "},"ä":{"ha":746,"x_min":49,"x_max":674,"o":"m 49 208 q 88 322 49 274 q 194 397 126 369 q 351 424 263 424 q 467 414 407 424 q 574 388 526 404 l 574 456 q 516 615 574 556 q 357 675 458 675 q 244 653 303 675 q 125 589 186 631 l 96 639 q 233 710 167 686 q 364 735 299 735 q 568 658 493 735 q 643 450 643 582 l 643 92 q 651 67 643 75 q 674 57 658 58 l 674 0 q 653 -1 661 -1 q 639 -1 644 -1 q 598 21 613 3 q 582 61 583 39 l 582 118 q 453 21 532 56 q 289 -14 375 -14 q 166 15 221 -14 q 80 95 111 44 q 49 208 49 146 m 546 149 q 567 183 560 167 q 574 214 574 200 l 574 333 q 469 363 524 353 q 358 372 415 372 q 183 329 250 372 q 115 213 115 286 q 139 128 115 167 q 205 65 163 89 q 303 42 247 42 q 447 72 381 42 q 546 149 513 101 m 238 889 l 238 1011 l 299 1011 l 299 889 l 238 889 m 426 889 l 426 1011 l 488 1011 l 488 889 l 426 889 z "},"ạ":{"ha":746,"x_min":49,"x_max":674,"o":"m 49 208 q 88 322 49 274 q 194 397 126 369 q 351 424 263 424 q 467 414 407 424 q 574 388 526 404 l 574 456 q 516 615 574 556 q 357 675 458 675 q 244 653 303 675 q 125 589 186 631 l 96 639 q 233 710 167 686 q 364 735 299 735 q 568 658 493 735 q 643 450 643 582 l 643 92 q 651 67 643 75 q 674 57 658 58 l 674 0 q 653 -1 661 -1 q 639 -1 644 -1 q 598 21 613 3 q 582 61 583 39 l 582 118 q 453 21 532 56 q 289 -14 375 -14 q 166 15 221 -14 q 80 95 111 44 q 49 208 49 146 m 546 149 q 567 183 560 167 q 574 214 574 200 l 574 333 q 469 363 524 353 q 358 372 415 372 q 183 329 250 372 q 115 213 115 286 q 139 128 115 167 q 205 65 163 89 q 303 42 247 42 q 447 72 381 42 q 546 149 513 101 m 360 -212 l 360 -89 l 424 -89 l 424 -212 l 360 -212 z "},"à":{"ha":746,"x_min":49,"x_max":674,"o":"m 49 208 q 88 322 49 274 q 194 397 126 369 q 351 424 263 424 q 467 414 407 424 q 574 388 526 404 l 574 456 q 516 615 574 556 q 357 675 458 675 q 244 653 303 675 q 125 589 186 631 l 96 639 q 233 710 167 686 q 364 735 299 735 q 568 658 493 735 q 643 450 643 582 l 643 92 q 651 67 643 75 q 674 57 658 58 l 674 0 q 653 -1 661 -1 q 639 -1 644 -1 q 598 21 613 3 q 582 61 583 39 l 582 118 q 453 21 532 56 q 289 -14 375 -14 q 166 15 221 -14 q 80 95 111 44 q 49 208 49 146 m 546 149 q 567 183 560 167 q 574 214 574 200 l 574 333 q 469 363 524 353 q 358 372 415 372 q 183 329 250 372 q 115 213 115 286 q 139 128 115 167 q 205 65 163 89 q 303 42 247 42 q 447 72 381 42 q 546 149 513 101 m 246 1014 l 325 1014 l 411 896 l 364 874 l 246 1014 z "},"ả":{"ha":746,"x_min":49,"x_max":674,"o":"m 49 208 q 88 322 49 274 q 194 397 126 369 q 351 424 263 424 q 467 414 407 424 q 574 388 526 404 l 574 456 q 516 615 574 556 q 357 675 458 675 q 244 653 303 675 q 125 589 186 631 l 96 639 q 233 710 167 686 q 364 735 299 735 q 568 658 493 735 q 643 450 643 582 l 643 92 q 651 67 643 75 q 674 57 658 58 l 674 0 q 653 -1 661 -1 q 639 -1 644 -1 q 598 21 613 3 q 582 61 583 39 l 582 118 q 453 21 532 56 q 289 -14 375 -14 q 166 15 221 -14 q 80 95 111 44 q 49 208 49 146 m 546 149 q 567 183 560 167 q 574 214 574 200 l 574 333 q 469 363 524 353 q 358 372 415 372 q 183 329 250 372 q 115 213 115 286 q 139 128 115 167 q 205 65 163 89 q 303 42 247 42 q 447 72 381 42 q 546 149 513 101 m 297 956 l 267 986 q 315 1019 292 1007 q 368 1032 338 1032 q 433 1008 410 1032 q 456 947 456 983 q 439 895 456 919 q 390 840 422 871 l 367 867 q 399 908 389 890 q 410 942 410 925 q 398 975 410 961 q 363 989 386 989 q 331 981 344 989 q 297 956 317 974 z "},"ȃ":{"ha":746,"x_min":49,"x_max":674,"o":"m 49 208 q 88 322 49 274 q 194 397 126 369 q 351 424 263 424 q 467 414 407 424 q 574 388 526 404 l 574 456 q 516 615 574 556 q 357 675 458 675 q 244 653 303 675 q 125 589 186 631 l 96 639 q 233 710 167 686 q 364 735 299 735 q 568 658 493 735 q 643 450 643 582 l 643 92 q 651 67 643 75 q 674 57 658 58 l 674 0 q 653 -1 661 -1 q 639 -1 644 -1 q 598 21 613 3 q 582 61 583 39 l 582 118 q 453 21 532 56 q 289 -14 375 -14 q 166 15 221 -14 q 80 95 111 44 q 49 208 49 146 m 546 149 q 567 183 560 167 q 574 214 574 200 l 574 333 q 469 363 524 353 q 358 372 415 372 q 183 329 250 372 q 115 213 115 286 q 139 128 115 167 q 205 65 163 89 q 303 42 247 42 q 447 72 381 42 q 546 149 513 101 m 363 975 q 308 948 332 975 q 285 886 285 921 l 239 886 q 275 976 239 939 q 363 1014 311 1014 q 449 976 413 1014 q 486 886 486 939 l 440 886 q 413 949 436 924 q 363 975 390 975 z "},"ā":{"ha":746,"x_min":49,"x_max":674,"o":"m 49 208 q 88 322 49 274 q 194 397 126 369 q 351 424 263 424 q 467 414 407 424 q 574 388 526 404 l 574 456 q 516 615 574 556 q 357 675 458 675 q 244 653 303 675 q 125 589 186 631 l 96 639 q 233 710 167 686 q 364 735 299 735 q 568 658 493 735 q 643 450 643 582 l 643 92 q 651 67 643 75 q 674 57 658 58 l 674 0 q 653 -1 661 -1 q 639 -1 644 -1 q 598 21 613 3 q 582 61 583 39 l 582 118 q 453 21 532 56 q 289 -14 375 -14 q 166 15 221 -14 q 80 95 111 44 q 49 208 49 146 m 546 149 q 567 183 560 167 q 574 214 574 200 l 574 333 q 469 363 524 353 q 358 372 415 372 q 183 329 250 372 q 115 213 115 286 q 139 128 115 167 q 205 65 163 89 q 303 42 247 42 q 447 72 381 42 q 546 149 513 101 m 165 933 l 165 985 l 561 985 l 561 933 l 165 933 z "},"ą":{"ha":746,"x_min":49,"x_max":674,"o":"m 49 208 q 88 322 49 274 q 194 397 126 369 q 351 424 263 424 q 467 414 407 424 q 574 388 526 404 l 574 456 q 516 615 574 556 q 357 675 458 675 q 244 653 303 675 q 125 589 186 631 l 96 639 q 233 710 167 686 q 364 735 299 735 q 568 658 493 735 q 643 450 643 582 l 643 92 q 651 67 643 75 q 674 57 658 58 l 674 0 q 653 -1 661 -1 q 639 -1 644 -1 q 598 21 613 3 q 582 61 583 39 l 582 118 q 453 21 532 56 q 289 -14 375 -14 q 166 15 221 -14 q 80 95 111 44 q 49 208 49 146 m 546 149 q 567 183 560 167 q 574 214 574 200 l 574 333 q 469 363 524 353 q 358 372 415 372 q 183 329 250 372 q 115 213 115 286 q 139 128 115 167 q 205 65 163 89 q 303 42 247 42 q 447 72 381 42 q 546 149 513 101 m 514 -143 q 544 -62 514 -101 q 635 21 574 -22 l 653 21 l 674 0 q 592 -74 617 -43 q 567 -133 567 -106 q 592 -174 567 -161 q 669 -196 617 -187 l 649 -243 q 566 -222 596 -236 q 525 -187 536 -207 q 514 -143 514 -167 z "},"å":{"ha":746,"x_min":49,"x_max":674,"o":"m 49 208 q 88 322 49 274 q 194 397 126 369 q 351 424 263 424 q 467 414 407 424 q 574 388 526 404 l 574 456 q 516 615 574 556 q 357 675 458 675 q 244 653 303 675 q 125 589 186 631 l 96 639 q 233 710 167 686 q 364 735 299 735 q 568 658 493 735 q 643 450 643 582 l 643 92 q 651 67 643 75 q 674 57 658 58 l 674 0 q 653 -1 661 -1 q 639 -1 644 -1 q 598 21 613 3 q 582 61 583 39 l 582 118 q 453 21 532 56 q 289 -14 375 -14 q 166 15 221 -14 q 80 95 111 44 q 49 208 49 146 m 546 149 q 567 183 560 167 q 574 214 574 200 l 574 333 q 469 363 524 353 q 358 372 415 372 q 183 329 250 372 q 115 213 115 286 q 139 128 115 167 q 205 65 163 89 q 303 42 247 42 q 447 72 381 42 q 546 149 513 101 m 246 936 q 280 1017 246 985 q 363 1049 314 1049 q 447 1017 414 1049 q 479 936 479 985 q 447 856 479 888 q 363 825 414 825 q 280 856 314 825 q 246 936 246 888 m 363 1007 q 313 988 333 1007 q 292 936 292 969 q 313 886 292 907 q 363 865 333 865 q 412 885 390 865 q 433 936 433 904 q 413 988 433 969 q 363 1007 392 1007 z "},"ǻ":{"ha":746,"x_min":49,"x_max":674,"o":"m 49 208 q 88 322 49 274 q 194 397 126 369 q 351 424 263 424 q 467 414 407 424 q 574 388 526 404 l 574 456 q 516 615 574 556 q 357 675 458 675 q 244 653 303 675 q 125 589 186 631 l 96 639 q 233 710 167 686 q 364 735 299 735 q 568 658 493 735 q 643 450 643 582 l 643 92 q 651 67 643 75 q 674 57 658 58 l 674 0 q 653 -1 661 -1 q 639 -1 644 -1 q 598 21 613 3 q 582 61 583 39 l 582 118 q 453 21 532 56 q 289 -14 375 -14 q 166 15 221 -14 q 80 95 111 44 q 49 208 49 146 m 546 149 q 567 183 560 167 q 574 214 574 200 l 574 333 q 469 363 524 353 q 358 372 415 372 q 183 329 250 372 q 115 213 115 286 q 139 128 115 167 q 205 65 163 89 q 303 42 247 42 q 447 72 381 42 q 546 149 513 101 m 246 936 q 280 1017 246 985 q 363 1049 314 1049 q 447 1017 414 1049 q 479 936 479 985 q 447 856 479 888 q 363 825 414 825 q 280 856 314 825 q 246 936 246 888 m 363 1007 q 313 988 333 1007 q 292 936 292 969 q 313 886 292 907 q 363 865 333 865 q 412 885 390 865 q 433 936 433 904 q 413 988 433 969 q 363 1007 392 1007 m 396 1133 l 347 1156 l 432 1274 l 513 1274 l 396 1133 z "},"ã":{"ha":746,"x_min":49,"x_max":674,"o":"m 49 208 q 88 322 49 274 q 194 397 126 369 q 351 424 263 424 q 467 414 407 424 q 574 388 526 404 l 574 456 q 516 615 574 556 q 357 675 458 675 q 244 653 303 675 q 125 589 186 631 l 96 639 q 233 710 167 686 q 364 735 299 735 q 568 658 493 735 q 643 450 643 582 l 643 92 q 651 67 643 75 q 674 57 658 58 l 674 0 q 653 -1 661 -1 q 639 -1 644 -1 q 598 21 613 3 q 582 61 583 39 l 582 118 q 453 21 532 56 q 289 -14 375 -14 q 166 15 221 -14 q 80 95 111 44 q 49 208 49 146 m 546 149 q 567 183 560 167 q 574 214 574 200 l 574 333 q 469 363 524 353 q 358 372 415 372 q 183 329 250 372 q 115 213 115 286 q 139 128 115 167 q 205 65 163 89 q 303 42 247 42 q 447 72 381 42 q 546 149 513 101 m 446 899 q 376 913 404 899 q 323 940 347 926 q 269 954 299 954 q 224 939 239 954 q 205 907 210 924 q 200 888 200 890 l 153 888 q 157 911 153 893 q 174 950 161 929 q 209 987 186 971 q 269 1003 232 1003 q 333 989 307 1003 q 385 961 360 975 q 446 947 411 947 q 499 963 483 947 q 520 994 515 978 q 525 1014 525 1011 l 574 1014 q 569 990 574 1008 q 550 950 564 971 q 511 914 536 929 q 446 899 486 899 z "},"æ":{"ha":1292,"x_min":49,"x_max":1249,"o":"m 286 -14 q 165 15 219 -14 q 80 96 111 44 q 49 210 49 147 q 87 321 49 274 q 193 396 125 368 q 349 424 261 424 q 447 416 397 424 q 540 396 497 408 q 549 456 543 425 q 567 513 556 486 q 497 635 553 590 q 357 679 442 679 q 245 657 304 679 q 125 593 186 635 l 97 640 q 363 735 239 735 q 517 694 453 735 q 611 581 581 653 q 729 692 656 650 q 892 735 803 735 q 1074 684 994 735 q 1201 549 1154 633 q 1249 361 1249 464 q 1248 347 1249 356 q 1247 333 1247 339 l 607 333 q 654 185 614 251 q 759 80 694 118 q 900 42 824 42 q 1042 81 976 42 q 1136 181 1108 119 l 1197 164 q 1131 72 1176 113 q 1026 9 1086 32 q 897 -14 965 -14 q 728 31 806 -14 q 603 149 651 75 q 520 56 574 92 q 405 3 467 19 q 286 -14 343 -14 m 300 42 q 449 72 381 42 q 551 153 517 103 q 574 201 571 178 q 551 272 560 233 q 540 347 542 311 q 451 368 497 361 q 357 375 404 375 q 182 331 249 375 q 115 214 115 286 q 140 126 115 165 q 206 65 164 88 q 300 42 249 42 m 1181 385 q 1136 537 1175 471 q 1034 640 1097 603 q 892 678 971 678 q 751 640 815 678 q 649 536 688 603 q 607 385 611 469 l 1181 385 z "},"ǽ":{"ha":1292,"x_min":49,"x_max":1249,"o":"m 286 -14 q 165 15 219 -14 q 80 96 111 44 q 49 210 49 147 q 87 321 49 274 q 193 396 125 368 q 349 424 261 424 q 447 416 397 424 q 540 396 497 408 q 549 456 543 425 q 567 513 556 486 q 497 635 553 590 q 357 679 442 679 q 245 657 304 679 q 125 593 186 635 l 97 640 q 363 735 239 735 q 517 694 453 735 q 611 581 581 653 q 729 692 656 650 q 892 735 803 735 q 1074 684 994 735 q 1201 549 1154 633 q 1249 361 1249 464 q 1248 347 1249 356 q 1247 333 1247 339 l 607 333 q 654 185 614 251 q 759 80 694 118 q 900 42 824 42 q 1042 81 976 42 q 1136 181 1108 119 l 1197 164 q 1131 72 1176 113 q 1026 9 1086 32 q 897 -14 965 -14 q 728 31 806 -14 q 603 149 651 75 q 520 56 574 92 q 405 3 467 19 q 286 -14 343 -14 m 300 42 q 449 72 381 42 q 551 153 517 103 q 574 201 571 178 q 551 272 560 233 q 540 347 542 311 q 451 368 497 361 q 357 375 404 375 q 182 331 249 375 q 115 214 115 286 q 140 126 115 165 q 206 65 164 88 q 300 42 249 42 m 1181 385 q 1136 537 1175 471 q 1034 640 1097 603 q 892 678 971 678 q 751 640 815 678 q 649 536 688 603 q 607 385 611 469 l 1181 385 m 647 874 l 599 896 l 683 1014 l 764 1014 l 647 874 z "},"b":{"ha":850,"x_min":108,"x_max":792,"o":"m 446 -14 q 288 31 361 -14 q 172 144 214 76 l 172 0 l 108 0 l 108 1014 l 178 1014 l 178 565 q 299 688 229 640 q 461 735 369 735 q 599 703 539 735 q 703 617 660 671 q 769 496 746 563 q 792 358 792 429 q 765 217 792 285 q 692 98 739 150 q 582 16 644 46 q 446 -14 519 -14 m 432 49 q 549 74 496 49 q 640 144 601 100 q 699 244 678 189 q 721 358 721 300 q 686 512 721 440 q 589 628 651 583 q 444 672 526 672 q 332 645 383 672 q 242 575 281 618 q 178 481 204 532 l 178 242 q 208 166 183 201 q 272 105 233 131 q 352 64 310 79 q 432 49 394 49 z "},"c":{"ha":757,"x_min":58,"x_max":708,"o":"m 415 -14 q 275 16 340 -14 q 161 98 210 46 q 85 218 113 150 q 58 364 58 286 q 104 551 58 468 q 231 685 150 635 q 414 735 311 735 q 588 690 513 735 q 700 567 663 644 l 632 544 q 541 638 600 604 q 411 672 482 672 q 268 632 332 672 q 166 522 204 592 q 128 364 128 451 q 167 206 128 278 q 270 91 206 133 q 413 49 335 49 q 510 67 463 49 q 594 117 558 86 q 640 182 629 147 l 708 163 q 646 72 690 111 q 542 9 601 32 q 415 -14 483 -14 z "},"ć":{"ha":757,"x_min":58,"x_max":708,"o":"m 415 -14 q 275 16 340 -14 q 161 98 210 46 q 85 218 113 150 q 58 364 58 286 q 104 551 58 468 q 231 685 150 635 q 414 735 311 735 q 588 690 513 735 q 700 567 663 644 l 632 544 q 541 638 600 604 q 411 672 482 672 q 268 632 332 672 q 166 522 204 592 q 128 364 128 451 q 167 206 128 278 q 270 91 206 133 q 413 49 335 49 q 510 67 463 49 q 594 117 558 86 q 640 182 629 147 l 708 163 q 646 72 690 111 q 542 9 601 32 q 415 -14 483 -14 m 435 874 l 386 896 l 471 1014 l 551 1014 l 435 874 z "},"č":{"ha":757,"x_min":58,"x_max":708,"o":"m 415 -14 q 275 16 340 -14 q 161 98 210 46 q 85 218 113 150 q 58 364 58 286 q 104 551 58 468 q 231 685 150 635 q 414 735 311 735 q 588 690 513 735 q 700 567 663 644 l 632 544 q 541 638 600 604 q 411 672 482 672 q 268 632 332 672 q 166 522 204 592 q 128 364 128 451 q 167 206 128 278 q 270 91 206 133 q 413 49 335 49 q 510 67 463 49 q 594 117 558 86 q 640 182 629 147 l 708 163 q 646 72 690 111 q 542 9 601 32 q 415 -14 483 -14 m 293 1014 l 411 926 l 529 1014 l 571 990 l 436 878 l 385 878 l 251 990 l 293 1014 z "},"ç":{"ha":757,"x_min":58,"x_max":708,"o":"m 415 -14 q 275 16 340 -14 q 161 98 210 46 q 85 218 113 150 q 58 364 58 286 q 104 551 58 468 q 231 685 150 635 q 414 735 311 735 q 588 690 513 735 q 700 567 663 644 l 632 544 q 541 638 600 604 q 411 672 482 672 q 268 632 332 672 q 166 522 204 592 q 128 364 128 451 q 167 206 128 278 q 270 91 206 133 q 413 49 335 49 q 510 67 463 49 q 594 117 558 86 q 640 182 629 147 l 708 163 q 646 72 690 111 q 542 9 601 32 q 415 -14 483 -14 m 401 -242 q 324 -233 365 -242 q 244 -204 282 -224 l 268 -161 q 326 -184 299 -175 q 389 -193 354 -193 q 465 -175 439 -193 q 492 -119 492 -157 q 465 -55 492 -82 q 390 0 439 -28 l 425 21 q 510 -45 479 -11 q 542 -129 542 -79 q 503 -213 542 -185 q 401 -242 464 -242 z "},"ḉ":{"ha":757,"x_min":58,"x_max":708,"o":"m 415 -14 q 275 16 340 -14 q 161 98 210 46 q 85 218 113 150 q 58 364 58 286 q 104 551 58 468 q 231 685 150 635 q 414 735 311 735 q 588 690 513 735 q 700 567 663 644 l 632 544 q 541 638 600 604 q 411 672 482 672 q 268 632 332 672 q 166 522 204 592 q 128 364 128 451 q 167 206 128 278 q 270 91 206 133 q 413 49 335 49 q 510 67 463 49 q 594 117 558 86 q 640 182 629 147 l 708 163 q 646 72 690 111 q 542 9 601 32 q 415 -14 483 -14 m 401 -242 q 324 -233 365 -242 q 244 -204 282 -224 l 268 -161 q 326 -184 299 -175 q 389 -193 354 -193 q 465 -175 439 -193 q 492 -119 492 -157 q 465 -55 492 -82 q 390 0 439 -28 l 425 21 q 510 -45 479 -11 q 542 -129 542 -79 q 503 -213 542 -185 q 401 -242 464 -242 m 435 874 l 386 896 l 471 1014 l 551 1014 l 435 874 z "},"ĉ":{"ha":757,"x_min":58,"x_max":708,"o":"m 415 -14 q 275 16 340 -14 q 161 98 210 46 q 85 218 113 150 q 58 364 58 286 q 104 551 58 468 q 231 685 150 635 q 414 735 311 735 q 588 690 513 735 q 700 567 663 644 l 632 544 q 541 638 600 604 q 411 672 482 672 q 268 632 332 672 q 166 522 204 592 q 128 364 128 451 q 167 206 128 278 q 270 91 206 133 q 413 49 335 49 q 510 67 463 49 q 594 117 558 86 q 640 182 629 147 l 708 163 q 646 72 690 111 q 542 9 601 32 q 415 -14 483 -14 m 251 901 l 385 1014 l 436 1014 l 571 901 l 529 878 l 411 965 l 293 878 l 251 901 z "},"ċ":{"ha":757,"x_min":58,"x_max":708,"o":"m 415 -14 q 275 16 340 -14 q 161 98 210 46 q 85 218 113 150 q 58 364 58 286 q 104 551 58 468 q 231 685 150 635 q 414 735 311 735 q 588 690 513 735 q 700 567 663 644 l 632 544 q 541 638 600 604 q 411 672 482 672 q 268 632 332 672 q 166 522 204 592 q 128 364 128 451 q 167 206 128 278 q 270 91 206 133 q 413 49 335 49 q 510 67 463 49 q 594 117 558 86 q 640 182 629 147 l 708 163 q 646 72 690 111 q 542 9 601 32 q 415 -14 483 -14 m 379 889 l 379 1014 l 443 1014 l 443 889 l 379 889 z "},"d":{"ha":854,"x_min":58,"x_max":771,"o":"m 58 360 q 101 546 58 461 q 219 683 144 631 q 390 735 294 735 q 558 685 485 735 q 672 565 631 635 l 672 1014 l 742 1014 l 742 92 q 749 67 742 75 q 771 57 757 58 l 771 0 q 738 -1 749 -3 q 696 22 713 3 q 679 64 679 42 l 679 144 q 560 29 635 72 q 406 -14 485 -14 q 267 17 331 -14 q 156 101 203 49 q 84 221 110 154 q 58 360 58 288 m 672 243 l 672 481 q 610 577 653 533 q 513 647 567 621 q 406 672 458 672 q 292 646 343 672 q 205 575 242 619 q 149 474 168 531 q 129 358 129 418 q 151 241 129 297 q 213 141 174 185 q 305 73 253 97 q 418 49 357 49 q 498 64 456 49 q 578 106 540 79 q 642 169 617 133 q 672 243 668 204 z "},"ð":{"ha":832,"x_min":61,"x_max":768,"o":"m 768 368 q 740 215 768 285 q 662 94 711 146 q 548 15 613 43 q 411 -14 483 -14 q 235 32 315 -14 q 108 154 156 78 q 61 322 61 231 q 88 452 61 392 q 162 559 115 513 q 270 632 208 606 q 403 658 332 658 q 581 609 501 658 q 697 482 660 560 q 665 615 688 549 q 597 747 642 681 q 474 881 551 814 q 279 1014 397 949 l 378 1014 q 576 863 500 942 q 695 700 653 783 q 753 533 738 617 q 768 368 768 450 m 132 321 q 169 185 132 247 q 271 85 207 122 q 413 49 335 49 q 555 88 490 49 q 658 194 619 128 q 697 338 697 260 q 659 469 697 411 q 557 563 621 528 q 415 599 493 599 q 273 561 338 599 q 170 460 208 524 q 132 321 132 397 m 675 957 l 536 869 l 514 860 l 342 750 l 317 785 l 486 890 l 507 899 l 651 990 l 675 957 z "},"ď":{"ha":854,"x_min":58,"x_max":961,"o":"m 58 360 q 101 546 58 461 q 219 683 144 631 q 390 735 294 735 q 558 685 485 735 q 672 565 631 635 l 672 1014 l 742 1014 l 742 92 q 749 67 742 75 q 771 57 757 58 l 771 0 q 738 -1 749 -3 q 696 22 713 3 q 679 64 679 42 l 679 144 q 560 29 635 72 q 406 -14 485 -14 q 267 17 331 -14 q 156 101 203 49 q 84 221 110 154 q 58 360 58 288 m 672 243 l 672 481 q 610 577 653 533 q 513 647 567 621 q 406 672 458 672 q 292 646 343 672 q 205 575 242 619 q 149 474 168 531 q 129 358 129 418 q 151 241 129 297 q 213 141 174 185 q 305 73 253 97 q 418 49 357 49 q 498 64 456 49 q 578 106 540 79 q 642 169 617 133 q 672 243 668 204 m 844 874 l 796 896 l 881 1014 l 961 1014 l 844 874 z "},"đ":{"ha":854,"x_min":58,"x_max":842,"o":"m 508 865 l 508 915 l 842 915 l 842 865 l 508 865 m 58 360 q 101 546 58 461 q 219 683 144 631 q 390 735 294 735 q 558 685 485 735 q 672 565 631 635 l 672 1014 l 742 1014 l 742 92 q 749 67 742 75 q 771 57 757 58 l 771 0 q 738 -1 749 -3 q 696 22 713 3 q 679 64 679 42 l 679 144 q 560 29 635 72 q 406 -14 485 -14 q 267 17 331 -14 q 156 101 203 49 q 84 221 110 154 q 58 360 58 288 m 672 243 l 672 481 q 610 577 653 533 q 513 647 567 621 q 406 672 458 672 q 292 646 343 672 q 205 575 242 619 q 149 474 168 531 q 129 358 129 418 q 151 241 129 297 q 213 141 174 185 q 305 73 253 97 q 418 49 357 49 q 498 64 456 49 q 578 106 540 79 q 642 169 617 133 q 672 243 668 204 z "},"ḍ":{"ha":854,"x_min":58,"x_max":771,"o":"m 58 360 q 101 546 58 461 q 219 683 144 631 q 390 735 294 735 q 558 685 485 735 q 672 565 631 635 l 672 1014 l 742 1014 l 742 92 q 749 67 742 75 q 771 57 757 58 l 771 0 q 738 -1 749 -3 q 696 22 713 3 q 679 64 679 42 l 679 144 q 560 29 635 72 q 406 -14 485 -14 q 267 17 331 -14 q 156 101 203 49 q 84 221 110 154 q 58 360 58 288 m 672 243 l 672 481 q 610 577 653 533 q 513 647 567 621 q 406 672 458 672 q 292 646 343 672 q 205 575 242 619 q 149 474 168 531 q 129 358 129 418 q 151 241 129 297 q 213 141 174 185 q 305 73 253 97 q 418 49 357 49 q 498 64 456 49 q 578 106 540 79 q 642 169 617 133 q 672 243 668 204 m 394 -212 l 394 -89 l 458 -89 l 458 -212 l 394 -212 z "},"ḏ":{"ha":854,"x_min":58,"x_max":771,"o":"m 58 360 q 101 546 58 461 q 219 683 144 631 q 390 735 294 735 q 558 685 485 735 q 672 565 631 635 l 672 1014 l 742 1014 l 742 92 q 749 67 742 75 q 771 57 757 58 l 771 0 q 738 -1 749 -3 q 696 22 713 3 q 679 64 679 42 l 679 144 q 560 29 635 72 q 406 -14 485 -14 q 267 17 331 -14 q 156 101 203 49 q 84 221 110 154 q 58 360 58 288 m 672 243 l 672 481 q 610 577 653 533 q 513 647 567 621 q 406 672 458 672 q 292 646 343 672 q 205 575 242 619 q 149 474 168 531 q 129 358 129 418 q 151 241 129 297 q 213 141 174 185 q 305 73 253 97 q 418 49 357 49 q 498 64 456 49 q 578 106 540 79 q 642 169 617 133 q 672 243 668 204 m 229 -161 l 229 -110 l 625 -110 l 625 -161 l 229 -161 z "},"e":{"ha":810,"x_min":58,"x_max":765,"o":"m 415 -14 q 274 16 339 -14 q 160 98 208 46 q 85 219 113 150 q 58 364 58 288 q 104 550 58 467 q 231 684 150 633 q 411 735 311 735 q 593 683 514 735 q 719 548 672 632 q 765 364 765 464 q 765 347 765 356 q 764 333 765 339 l 131 333 q 176 185 136 251 q 280 80 217 118 q 418 42 343 42 q 560 81 493 42 q 653 181 626 119 l 714 164 q 648 72 693 113 q 542 9 603 32 q 415 -14 482 -14 m 128 388 l 699 388 q 654 538 693 472 q 552 640 615 603 q 413 678 489 678 q 274 640 336 678 q 172 538 211 603 q 128 388 133 472 z "},"é":{"ha":810,"x_min":58,"x_max":765,"o":"m 415 -14 q 274 16 339 -14 q 160 98 208 46 q 85 219 113 150 q 58 364 58 288 q 104 550 58 467 q 231 684 150 633 q 411 735 311 735 q 593 683 514 735 q 719 548 672 632 q 765 364 765 464 q 765 347 765 356 q 764 333 765 339 l 131 333 q 176 185 136 251 q 280 80 217 118 q 418 42 343 42 q 560 81 493 42 q 653 181 626 119 l 714 164 q 648 72 693 113 q 542 9 603 32 q 415 -14 482 -14 m 128 388 l 699 388 q 654 538 693 472 q 552 640 615 603 q 413 678 489 678 q 274 640 336 678 q 172 538 211 603 q 128 388 133 472 m 433 874 l 385 896 l 469 1014 l 550 1014 l 433 874 z "},"ĕ":{"ha":810,"x_min":58,"x_max":765,"o":"m 415 -14 q 274 16 339 -14 q 160 98 208 46 q 85 219 113 150 q 58 364 58 288 q 104 550 58 467 q 231 684 150 633 q 411 735 311 735 q 593 683 514 735 q 719 548 672 632 q 765 364 765 464 q 765 347 765 356 q 764 333 765 339 l 131 333 q 176 185 136 251 q 280 80 217 118 q 418 42 343 42 q 560 81 493 42 q 653 181 626 119 l 714 164 q 648 72 693 113 q 542 9 603 32 q 415 -14 482 -14 m 128 388 l 699 388 q 654 538 693 472 q 552 640 615 603 q 413 678 489 678 q 274 640 336 678 q 172 538 211 603 q 128 388 133 472 m 410 925 q 460 951 438 925 q 488 1014 483 976 l 533 1014 q 497 924 533 961 q 410 886 460 886 q 322 924 358 886 q 286 1014 286 961 l 332 1014 q 356 953 332 981 q 410 925 379 925 z "},"ě":{"ha":810,"x_min":58,"x_max":765,"o":"m 415 -14 q 274 16 339 -14 q 160 98 208 46 q 85 219 113 150 q 58 364 58 288 q 104 550 58 467 q 231 684 150 633 q 411 735 311 735 q 593 683 514 735 q 719 548 672 632 q 765 364 765 464 q 765 347 765 356 q 764 333 765 339 l 131 333 q 176 185 136 251 q 280 80 217 118 q 418 42 343 42 q 560 81 493 42 q 653 181 626 119 l 714 164 q 648 72 693 113 q 542 9 603 32 q 415 -14 482 -14 m 128 388 l 699 388 q 654 538 693 472 q 552 640 615 603 q 413 678 489 678 q 274 640 336 678 q 172 538 211 603 q 128 388 133 472 m 292 1014 l 410 926 l 528 1014 l 569 990 l 435 878 l 383 878 l 250 990 l 292 1014 z "},"ḝ":{"ha":810,"x_min":58,"x_max":765,"o":"m 415 -14 q 274 16 339 -14 q 160 98 208 46 q 85 219 113 150 q 58 364 58 288 q 104 550 58 467 q 231 684 150 633 q 411 735 311 735 q 593 683 514 735 q 719 548 672 632 q 765 364 765 464 q 765 347 765 356 q 764 333 765 339 l 131 333 q 176 185 136 251 q 280 80 217 118 q 418 42 343 42 q 560 81 493 42 q 653 181 626 119 l 714 164 q 648 72 693 113 q 542 9 603 32 q 415 -14 482 -14 m 128 388 l 699 388 q 654 538 693 472 q 552 640 615 603 q 413 678 489 678 q 274 640 336 678 q 172 538 211 603 q 128 388 133 472 m 400 -242 q 322 -233 364 -242 q 243 -204 281 -224 l 267 -161 q 325 -184 297 -175 q 388 -193 353 -193 q 464 -175 438 -193 q 490 -119 490 -157 q 464 -55 490 -82 q 389 0 438 -28 l 424 21 q 509 -45 478 -11 q 540 -129 540 -79 q 501 -213 540 -185 q 400 -242 463 -242 m 410 925 q 460 951 438 925 q 488 1014 483 976 l 533 1014 q 497 924 533 961 q 410 886 460 886 q 322 924 358 886 q 286 1014 286 961 l 332 1014 q 356 953 332 981 q 410 925 379 925 z "},"ê":{"ha":810,"x_min":58,"x_max":765,"o":"m 415 -14 q 274 16 339 -14 q 160 98 208 46 q 85 219 113 150 q 58 364 58 288 q 104 550 58 467 q 231 684 150 633 q 411 735 311 735 q 593 683 514 735 q 719 548 672 632 q 765 364 765 464 q 765 347 765 356 q 764 333 765 339 l 131 333 q 176 185 136 251 q 280 80 217 118 q 418 42 343 42 q 560 81 493 42 q 653 181 626 119 l 714 164 q 648 72 693 113 q 542 9 603 32 q 415 -14 482 -14 m 128 388 l 699 388 q 654 538 693 472 q 552 640 615 603 q 413 678 489 678 q 274 640 336 678 q 172 538 211 603 q 128 388 133 472 m 250 901 l 383 1014 l 435 1014 l 569 901 l 528 878 l 410 965 l 292 878 l 250 901 z "},"ế":{"ha":810,"x_min":58,"x_max":765,"o":"m 415 -14 q 274 16 339 -14 q 160 98 208 46 q 85 219 113 150 q 58 364 58 288 q 104 550 58 467 q 231 684 150 633 q 411 735 311 735 q 593 683 514 735 q 719 548 672 632 q 765 364 765 464 q 765 347 765 356 q 764 333 765 339 l 131 333 q 176 185 136 251 q 280 80 217 118 q 418 42 343 42 q 560 81 493 42 q 653 181 626 119 l 714 164 q 648 72 693 113 q 542 9 603 32 q 415 -14 482 -14 m 128 388 l 699 388 q 654 538 693 472 q 552 640 615 603 q 413 678 489 678 q 274 640 336 678 q 172 538 211 603 q 128 388 133 472 z "},"ệ":{"ha":810,"x_min":58,"x_max":765,"o":"m 415 -14 q 274 16 339 -14 q 160 98 208 46 q 85 219 113 150 q 58 364 58 288 q 104 550 58 467 q 231 684 150 633 q 411 735 311 735 q 593 683 514 735 q 719 548 672 632 q 765 364 765 464 q 765 347 765 356 q 764 333 765 339 l 131 333 q 176 185 136 251 q 280 80 217 118 q 418 42 343 42 q 560 81 493 42 q 653 181 626 119 l 714 164 q 648 72 693 113 q 542 9 603 32 q 415 -14 482 -14 m 128 388 l 699 388 q 654 538 693 472 q 552 640 615 603 q 413 678 489 678 q 274 640 336 678 q 172 538 211 603 q 128 388 133 472 m 382 -212 l 382 -89 l 446 -89 l 446 -212 l 382 -212 m 250 901 l 383 1014 l 435 1014 l 569 901 l 528 878 l 410 965 l 292 878 l 250 901 z "},"ề":{"ha":810,"x_min":58,"x_max":765,"o":"m 415 -14 q 274 16 339 -14 q 160 98 208 46 q 85 219 113 150 q 58 364 58 288 q 104 550 58 467 q 231 684 150 633 q 411 735 311 735 q 593 683 514 735 q 719 548 672 632 q 765 364 765 464 q 765 347 765 356 q 764 333 765 339 l 131 333 q 176 185 136 251 q 280 80 217 118 q 418 42 343 42 q 560 81 493 42 q 653 181 626 119 l 714 164 q 648 72 693 113 q 542 9 603 32 q 415 -14 482 -14 m 128 388 l 699 388 q 654 538 693 472 q 552 640 615 603 q 413 678 489 678 q 274 640 336 678 q 172 538 211 603 q 128 388 133 472 z "},"ể":{"ha":810,"x_min":58,"x_max":765,"o":"m 415 -14 q 274 16 339 -14 q 160 98 208 46 q 85 219 113 150 q 58 364 58 288 q 104 550 58 467 q 231 684 150 633 q 411 735 311 735 q 593 683 514 735 q 719 548 672 632 q 765 364 765 464 q 765 347 765 356 q 764 333 765 339 l 131 333 q 176 185 136 251 q 280 80 217 118 q 418 42 343 42 q 560 81 493 42 q 653 181 626 119 l 714 164 q 648 72 693 113 q 542 9 603 32 q 415 -14 482 -14 m 128 388 l 699 388 q 654 538 693 472 q 552 640 615 603 q 413 678 489 678 q 274 640 336 678 q 172 538 211 603 q 128 388 133 472 z "},"ễ":{"ha":810,"x_min":58,"x_max":765,"o":"m 415 -14 q 274 16 339 -14 q 160 98 208 46 q 85 219 113 150 q 58 364 58 288 q 104 550 58 467 q 231 684 150 633 q 411 735 311 735 q 593 683 514 735 q 719 548 672 632 q 765 364 765 464 q 765 347 765 356 q 764 333 765 339 l 131 333 q 176 185 136 251 q 280 80 217 118 q 418 42 343 42 q 560 81 493 42 q 653 181 626 119 l 714 164 q 648 72 693 113 q 542 9 603 32 q 415 -14 482 -14 m 128 388 l 699 388 q 654 538 693 472 q 552 640 615 603 q 413 678 489 678 q 274 640 336 678 q 172 538 211 603 q 128 388 133 472 z "},"ȅ":{"ha":810,"x_min":58,"x_max":765,"o":"m 415 -14 q 274 16 339 -14 q 160 98 208 46 q 85 219 113 150 q 58 364 58 288 q 104 550 58 467 q 231 684 150 633 q 411 735 311 735 q 593 683 514 735 q 719 548 672 632 q 765 364 765 464 q 765 347 765 356 q 764 333 765 339 l 131 333 q 176 185 136 251 q 280 80 217 118 q 418 42 343 42 q 560 81 493 42 q 653 181 626 119 l 714 164 q 648 72 693 113 q 542 9 603 32 q 415 -14 482 -14 m 128 388 l 699 388 q 654 538 693 472 q 552 640 615 603 q 413 678 489 678 q 274 640 336 678 q 172 538 211 603 q 128 388 133 472 m 369 1014 l 442 1014 l 525 896 l 485 874 l 369 1014 m 208 1014 l 282 1014 l 364 896 l 324 874 l 208 1014 z "},"ë":{"ha":810,"x_min":58,"x_max":765,"o":"m 415 -14 q 274 16 339 -14 q 160 98 208 46 q 85 219 113 150 q 58 364 58 288 q 104 550 58 467 q 231 684 150 633 q 411 735 311 735 q 593 683 514 735 q 719 548 672 632 q 765 364 765 464 q 765 347 765 356 q 764 333 765 339 l 131 333 q 176 185 136 251 q 280 80 217 118 q 418 42 343 42 q 560 81 493 42 q 653 181 626 119 l 714 164 q 648 72 693 113 q 542 9 603 32 q 415 -14 482 -14 m 128 388 l 699 388 q 654 538 693 472 q 552 640 615 603 q 413 678 489 678 q 274 640 336 678 q 172 538 211 603 q 128 388 133 472 m 285 889 l 285 1011 l 346 1011 l 346 889 l 285 889 m 474 889 l 474 1011 l 535 1011 l 535 889 l 474 889 z "},"ė":{"ha":810,"x_min":58,"x_max":765,"o":"m 415 -14 q 274 16 339 -14 q 160 98 208 46 q 85 219 113 150 q 58 364 58 288 q 104 550 58 467 q 231 684 150 633 q 411 735 311 735 q 593 683 514 735 q 719 548 672 632 q 765 364 765 464 q 765 347 765 356 q 764 333 765 339 l 131 333 q 176 185 136 251 q 280 80 217 118 q 418 42 343 42 q 560 81 493 42 q 653 181 626 119 l 714 164 q 648 72 693 113 q 542 9 603 32 q 415 -14 482 -14 m 128 388 l 699 388 q 654 538 693 472 q 552 640 615 603 q 413 678 489 678 q 274 640 336 678 q 172 538 211 603 q 128 388 133 472 m 378 889 l 378 1014 l 442 1014 l 442 889 l 378 889 z "},"ẹ":{"ha":810,"x_min":58,"x_max":765,"o":"m 415 -14 q 274 16 339 -14 q 160 98 208 46 q 85 219 113 150 q 58 364 58 288 q 104 550 58 467 q 231 684 150 633 q 411 735 311 735 q 593 683 514 735 q 719 548 672 632 q 765 364 765 464 q 765 347 765 356 q 764 333 765 339 l 131 333 q 176 185 136 251 q 280 80 217 118 q 418 42 343 42 q 560 81 493 42 q 653 181 626 119 l 714 164 q 648 72 693 113 q 542 9 603 32 q 415 -14 482 -14 m 128 388 l 699 388 q 654 538 693 472 q 552 640 615 603 q 413 678 489 678 q 274 640 336 678 q 172 538 211 603 q 128 388 133 472 m 382 -212 l 382 -89 l 446 -89 l 446 -212 l 382 -212 z "},"è":{"ha":810,"x_min":58,"x_max":765,"o":"m 415 -14 q 274 16 339 -14 q 160 98 208 46 q 85 219 113 150 q 58 364 58 288 q 104 550 58 467 q 231 684 150 633 q 411 735 311 735 q 593 683 514 735 q 719 548 672 632 q 765 364 765 464 q 765 347 765 356 q 764 333 765 339 l 131 333 q 176 185 136 251 q 280 80 217 118 q 418 42 343 42 q 560 81 493 42 q 653 181 626 119 l 714 164 q 648 72 693 113 q 542 9 603 32 q 415 -14 482 -14 m 128 388 l 699 388 q 654 538 693 472 q 552 640 615 603 q 413 678 489 678 q 274 640 336 678 q 172 538 211 603 q 128 388 133 472 m 293 1014 l 372 1014 l 458 896 l 411 874 l 293 1014 z "},"ẻ":{"ha":810,"x_min":58,"x_max":765,"o":"m 415 -14 q 274 16 339 -14 q 160 98 208 46 q 85 219 113 150 q 58 364 58 288 q 104 550 58 467 q 231 684 150 633 q 411 735 311 735 q 593 683 514 735 q 719 548 672 632 q 765 364 765 464 q 765 347 765 356 q 764 333 765 339 l 131 333 q 176 185 136 251 q 280 80 217 118 q 418 42 343 42 q 560 81 493 42 q 653 181 626 119 l 714 164 q 648 72 693 113 q 542 9 603 32 q 415 -14 482 -14 m 128 388 l 699 388 q 654 538 693 472 q 552 640 615 603 q 413 678 489 678 q 274 640 336 678 q 172 538 211 603 q 128 388 133 472 m 344 956 l 314 986 q 362 1019 339 1007 q 415 1032 385 1032 q 480 1008 457 1032 q 503 947 503 983 q 486 895 503 919 q 438 840 469 871 l 414 867 q 447 908 436 890 q 457 942 457 925 q 445 975 457 961 q 410 989 433 989 q 378 981 392 989 q 344 956 364 974 z "},"ȇ":{"ha":810,"x_min":58,"x_max":765,"o":"m 415 -14 q 274 16 339 -14 q 160 98 208 46 q 85 219 113 150 q 58 364 58 288 q 104 550 58 467 q 231 684 150 633 q 411 735 311 735 q 593 683 514 735 q 719 548 672 632 q 765 364 765 464 q 765 347 765 356 q 764 333 765 339 l 131 333 q 176 185 136 251 q 280 80 217 118 q 418 42 343 42 q 560 81 493 42 q 653 181 626 119 l 714 164 q 648 72 693 113 q 542 9 603 32 q 415 -14 482 -14 m 128 388 l 699 388 q 654 538 693 472 q 552 640 615 603 q 413 678 489 678 q 274 640 336 678 q 172 538 211 603 q 128 388 133 472 m 410 975 q 356 948 379 975 q 332 886 332 921 l 286 886 q 322 976 286 939 q 410 1014 358 1014 q 497 976 460 1014 q 533 886 533 939 l 488 886 q 460 949 483 924 q 410 975 438 975 z "},"ē":{"ha":810,"x_min":58,"x_max":765,"o":"m 415 -14 q 274 16 339 -14 q 160 98 208 46 q 85 219 113 150 q 58 364 58 288 q 104 550 58 467 q 231 684 150 633 q 411 735 311 735 q 593 683 514 735 q 719 548 672 632 q 765 364 765 464 q 765 347 765 356 q 764 333 765 339 l 131 333 q 176 185 136 251 q 280 80 217 118 q 418 42 343 42 q 560 81 493 42 q 653 181 626 119 l 714 164 q 648 72 693 113 q 542 9 603 32 q 415 -14 482 -14 m 128 388 l 699 388 q 654 538 693 472 q 552 640 615 603 q 413 678 489 678 q 274 640 336 678 q 172 538 211 603 q 128 388 133 472 m 213 933 l 213 985 l 608 985 l 608 933 l 213 933 z "},"ḗ":{"ha":810,"x_min":58,"x_max":765,"o":"m 415 -14 q 274 16 339 -14 q 160 98 208 46 q 85 219 113 150 q 58 364 58 288 q 104 550 58 467 q 231 684 150 633 q 411 735 311 735 q 593 683 514 735 q 719 548 672 632 q 765 364 765 464 q 765 347 765 356 q 764 333 765 339 l 131 333 q 176 185 136 251 q 280 80 217 118 q 418 42 343 42 q 560 81 493 42 q 653 181 626 119 l 714 164 q 648 72 693 113 q 542 9 603 32 q 415 -14 482 -14 m 128 388 l 699 388 q 654 538 693 472 q 552 640 615 603 q 413 678 489 678 q 274 640 336 678 q 172 538 211 603 q 128 388 133 472 m 213 933 l 213 985 l 608 985 l 608 933 l 213 933 m 435 1135 l 386 1157 l 471 1275 l 551 1275 l 435 1135 z "},"ḕ":{"ha":810,"x_min":58,"x_max":765,"o":"m 415 -14 q 274 16 339 -14 q 160 98 208 46 q 85 219 113 150 q 58 364 58 288 q 104 550 58 467 q 231 684 150 633 q 411 735 311 735 q 593 683 514 735 q 719 548 672 632 q 765 364 765 464 q 765 347 765 356 q 764 333 765 339 l 131 333 q 176 185 136 251 q 280 80 217 118 q 418 42 343 42 q 560 81 493 42 q 653 181 626 119 l 714 164 q 648 72 693 113 q 542 9 603 32 q 415 -14 482 -14 m 128 388 l 699 388 q 654 538 693 472 q 552 640 615 603 q 413 678 489 678 q 274 640 336 678 q 172 538 211 603 q 128 388 133 472 m 213 933 l 213 985 l 608 985 l 608 933 l 213 933 m 294 1276 l 374 1276 l 460 1158 l 413 1136 l 294 1276 z "},"ę":{"ha":810,"x_min":58,"x_max":765,"o":"m 415 -14 q 274 16 339 -14 q 160 98 208 46 q 85 219 113 150 q 58 364 58 288 q 104 550 58 467 q 231 684 150 633 q 411 735 311 735 q 593 683 514 735 q 719 548 672 632 q 765 364 765 464 q 765 347 765 356 q 764 333 765 339 l 131 333 q 176 185 136 251 q 280 80 217 118 q 418 42 343 42 q 560 81 493 42 q 653 181 626 119 l 714 164 q 648 72 693 113 q 542 9 603 32 q 415 -14 482 -14 m 128 388 l 699 388 q 654 538 693 472 q 552 640 615 603 q 413 678 489 678 q 274 640 336 678 q 172 538 211 603 q 128 388 133 472 m 351 -143 q 381 -62 351 -101 q 472 21 411 -22 l 490 21 l 511 0 q 429 -74 454 -43 q 404 -133 404 -106 q 429 -174 404 -161 q 507 -196 454 -187 l 486 -243 q 403 -222 433 -236 q 363 -187 374 -207 q 351 -143 351 -167 z "},"ẽ":{"ha":810,"x_min":58,"x_max":765,"o":"m 415 -14 q 274 16 339 -14 q 160 98 208 46 q 85 219 113 150 q 58 364 58 288 q 104 550 58 467 q 231 684 150 633 q 411 735 311 735 q 593 683 514 735 q 719 548 672 632 q 765 364 765 464 q 765 347 765 356 q 764 333 765 339 l 131 333 q 176 185 136 251 q 280 80 217 118 q 418 42 343 42 q 560 81 493 42 q 653 181 626 119 l 714 164 q 648 72 693 113 q 542 9 603 32 q 415 -14 482 -14 m 128 388 l 699 388 q 654 538 693 472 q 552 640 615 603 q 413 678 489 678 q 274 640 336 678 q 172 538 211 603 q 128 388 133 472 m 493 899 q 423 913 451 899 q 370 940 394 926 q 317 954 346 954 q 272 939 286 954 q 252 907 257 924 q 247 888 247 890 l 200 888 q 204 911 200 893 q 221 950 208 929 q 256 987 233 971 q 317 1003 279 1003 q 381 989 354 1003 q 433 961 407 975 q 493 947 458 947 q 547 963 531 947 q 567 994 563 978 q 572 1014 572 1011 l 621 1014 q 616 990 621 1008 q 597 950 611 971 q 558 914 583 929 q 493 899 533 899 z "},"ə":{"ha":810,"x_min":43,"x_max":751,"o":"m 400 -14 q 218 37 299 -14 q 91 172 138 88 q 43 360 44 257 q 44 373 43 365 q 44 386 44 381 l 679 386 q 633 536 672 471 q 530 640 593 601 q 392 678 467 678 q 249 640 315 678 q 156 540 183 601 l 94 557 q 162 649 117 608 q 267 712 207 689 q 394 735 328 735 q 536 705 471 735 q 649 623 601 675 q 724 502 697 571 q 751 356 751 433 q 706 170 751 254 q 581 36 660 86 q 400 -14 501 -14 m 400 42 q 538 80 476 42 q 638 185 599 118 q 681 335 676 251 l 113 335 q 158 184 118 250 q 261 80 197 118 q 400 42 325 42 z "},"f":{"ha":442,"x_min":39,"x_max":489,"o":"m 140 0 l 140 665 l 39 665 l 39 722 l 140 722 l 140 746 q 165 897 140 833 q 236 994 190 961 q 344 1028 282 1028 q 425 1015 386 1028 q 489 982 464 1003 l 464 932 q 417 958 446 949 q 357 967 388 967 q 248 910 286 967 q 210 747 210 854 l 210 722 l 415 722 l 415 665 l 210 665 l 210 0 l 140 0 z "},"g":{"ha":850,"x_min":58,"x_max":742,"o":"m 400 -11 q 263 19 326 -11 q 155 103 200 50 q 84 223 110 157 q 58 360 58 289 q 83 501 58 433 q 152 622 107 569 q 258 704 197 674 q 394 735 319 735 q 559 685 489 735 q 678 565 629 636 l 678 722 l 742 722 l 742 -14 q 694 -178 742 -111 q 569 -277 647 -244 q 401 -310 492 -310 q 201 -264 275 -310 q 81 -143 126 -218 l 128 -111 q 244 -218 171 -183 q 401 -253 318 -253 q 537 -226 475 -253 q 635 -145 599 -199 q 672 -14 672 -92 l 672 144 q 555 31 629 74 q 400 -11 481 -11 m 417 49 q 506 65 463 49 q 585 110 549 82 q 644 174 621 139 q 672 243 668 208 l 672 481 q 609 580 651 536 q 514 648 567 624 q 406 672 461 672 q 289 644 340 672 q 202 572 238 617 q 148 470 167 526 q 129 358 129 414 q 151 240 129 296 q 213 141 174 185 q 305 73 253 97 q 417 49 357 49 z "},"ğ":{"ha":850,"x_min":58,"x_max":742,"o":"m 400 -11 q 263 19 326 -11 q 155 103 200 50 q 84 223 110 157 q 58 360 58 289 q 83 501 58 433 q 152 622 107 569 q 258 704 197 674 q 394 735 319 735 q 559 685 489 735 q 678 565 629 636 l 678 722 l 742 722 l 742 -14 q 694 -178 742 -111 q 569 -277 647 -244 q 401 -310 492 -310 q 201 -264 275 -310 q 81 -143 126 -218 l 128 -111 q 244 -218 171 -183 q 401 -253 318 -253 q 537 -226 475 -253 q 635 -145 599 -199 q 672 -14 672 -92 l 672 144 q 555 31 629 74 q 400 -11 481 -11 m 417 49 q 506 65 463 49 q 585 110 549 82 q 644 174 621 139 q 672 243 668 208 l 672 481 q 609 580 651 536 q 514 648 567 624 q 406 672 461 672 q 289 644 340 672 q 202 572 238 617 q 148 470 167 526 q 129 358 129 414 q 151 240 129 296 q 213 141 174 185 q 305 73 253 97 q 417 49 357 49 m 418 925 q 469 951 446 925 q 496 1014 492 976 l 542 1014 q 505 924 542 961 q 418 886 468 886 q 331 924 367 886 q 294 1014 294 961 l 340 1014 q 364 953 340 981 q 418 925 388 925 z "},"ǧ":{"ha":850,"x_min":58,"x_max":742,"o":"m 400 -11 q 263 19 326 -11 q 155 103 200 50 q 84 223 110 157 q 58 360 58 289 q 83 501 58 433 q 152 622 107 569 q 258 704 197 674 q 394 735 319 735 q 559 685 489 735 q 678 565 629 636 l 678 722 l 742 722 l 742 -14 q 694 -178 742 -111 q 569 -277 647 -244 q 401 -310 492 -310 q 201 -264 275 -310 q 81 -143 126 -218 l 128 -111 q 244 -218 171 -183 q 401 -253 318 -253 q 537 -226 475 -253 q 635 -145 599 -199 q 672 -14 672 -92 l 672 144 q 555 31 629 74 q 400 -11 481 -11 m 417 49 q 506 65 463 49 q 585 110 549 82 q 644 174 621 139 q 672 243 668 208 l 672 481 q 609 580 651 536 q 514 648 567 624 q 406 672 461 672 q 289 644 340 672 q 202 572 238 617 q 148 470 167 526 q 129 358 129 414 q 151 240 129 296 q 213 141 174 185 q 305 73 253 97 q 417 49 357 49 m 300 1014 l 418 926 l 536 1014 l 578 990 l 443 878 l 392 878 l 258 990 l 300 1014 z "},"ĝ":{"ha":850,"x_min":58,"x_max":742,"o":"m 400 -11 q 263 19 326 -11 q 155 103 200 50 q 84 223 110 157 q 58 360 58 289 q 83 501 58 433 q 152 622 107 569 q 258 704 197 674 q 394 735 319 735 q 559 685 489 735 q 678 565 629 636 l 678 722 l 742 722 l 742 -14 q 694 -178 742 -111 q 569 -277 647 -244 q 401 -310 492 -310 q 201 -264 275 -310 q 81 -143 126 -218 l 128 -111 q 244 -218 171 -183 q 401 -253 318 -253 q 537 -226 475 -253 q 635 -145 599 -199 q 672 -14 672 -92 l 672 144 q 555 31 629 74 q 400 -11 481 -11 m 417 49 q 506 65 463 49 q 585 110 549 82 q 644 174 621 139 q 672 243 668 208 l 672 481 q 609 580 651 536 q 514 648 567 624 q 406 672 461 672 q 289 644 340 672 q 202 572 238 617 q 148 470 167 526 q 129 358 129 414 q 151 240 129 296 q 213 141 174 185 q 305 73 253 97 q 417 49 357 49 m 258 901 l 392 1014 l 443 1014 l 578 901 l 536 878 l 418 965 l 300 878 l 258 901 z "},"ģ":{"ha":850,"x_min":58,"x_max":742,"o":"m 400 -11 q 263 19 326 -11 q 155 103 200 50 q 84 223 110 157 q 58 360 58 289 q 83 501 58 433 q 152 622 107 569 q 258 704 197 674 q 394 735 319 735 q 559 685 489 735 q 678 565 629 636 l 678 722 l 742 722 l 742 -14 q 694 -178 742 -111 q 569 -277 647 -244 q 401 -310 492 -310 q 201 -264 275 -310 q 81 -143 126 -218 l 128 -111 q 244 -218 171 -183 q 401 -253 318 -253 q 537 -226 475 -253 q 635 -145 599 -199 q 672 -14 672 -92 l 672 144 q 555 31 629 74 q 400 -11 481 -11 m 417 49 q 506 65 463 49 q 585 110 549 82 q 644 174 621 139 q 672 243 668 208 l 672 481 q 609 580 651 536 q 514 648 567 624 q 406 672 461 672 q 289 644 340 672 q 202 572 238 617 q 148 470 167 526 q 129 358 129 414 q 151 240 129 296 q 213 141 174 185 q 305 73 253 97 q 417 49 357 49 m 449 1014 l 428 928 l 450 928 l 450 836 l 382 836 l 382 928 l 411 1014 l 449 1014 z "},"ġ":{"ha":850,"x_min":58,"x_max":742,"o":"m 400 -11 q 263 19 326 -11 q 155 103 200 50 q 84 223 110 157 q 58 360 58 289 q 83 501 58 433 q 152 622 107 569 q 258 704 197 674 q 394 735 319 735 q 559 685 489 735 q 678 565 629 636 l 678 722 l 742 722 l 742 -14 q 694 -178 742 -111 q 569 -277 647 -244 q 401 -310 492 -310 q 201 -264 275 -310 q 81 -143 126 -218 l 128 -111 q 244 -218 171 -183 q 401 -253 318 -253 q 537 -226 475 -253 q 635 -145 599 -199 q 672 -14 672 -92 l 672 144 q 555 31 629 74 q 400 -11 481 -11 m 417 49 q 506 65 463 49 q 585 110 549 82 q 644 174 621 139 q 672 243 668 208 l 672 481 q 609 580 651 536 q 514 648 567 624 q 406 672 461 672 q 289 644 340 672 q 202 572 238 617 q 148 470 167 526 q 129 358 129 414 q 151 240 129 296 q 213 141 174 185 q 305 73 253 97 q 417 49 357 49 m 386 889 l 386 1014 l 450 1014 l 450 889 l 386 889 z "},"ḡ":{"ha":850,"x_min":58,"x_max":742,"o":"m 400 -11 q 263 19 326 -11 q 155 103 200 50 q 84 223 110 157 q 58 360 58 289 q 83 501 58 433 q 152 622 107 569 q 258 704 197 674 q 394 735 319 735 q 559 685 489 735 q 678 565 629 636 l 678 722 l 742 722 l 742 -14 q 694 -178 742 -111 q 569 -277 647 -244 q 401 -310 492 -310 q 201 -264 275 -310 q 81 -143 126 -218 l 128 -111 q 244 -218 171 -183 q 401 -253 318 -253 q 537 -226 475 -253 q 635 -145 599 -199 q 672 -14 672 -92 l 672 144 q 555 31 629 74 q 400 -11 481 -11 m 417 49 q 506 65 463 49 q 585 110 549 82 q 644 174 621 139 q 672 243 668 208 l 672 481 q 609 580 651 536 q 514 648 567 624 q 406 672 461 672 q 289 644 340 672 q 202 572 238 617 q 148 470 167 526 q 129 358 129 414 q 151 240 129 296 q 213 141 174 185 q 305 73 253 97 q 417 49 357 49 m 221 933 l 221 985 l 617 985 l 617 933 l 221 933 z "},"h":{"ha":800,"x_min":108,"x_max":699,"o":"m 699 0 l 629 0 l 629 403 q 583 603 629 536 q 450 671 538 671 q 336 642 393 671 q 238 562 279 613 q 178 447 196 511 l 178 0 l 108 0 l 108 1014 l 178 1014 l 178 550 q 301 685 222 635 q 469 735 381 735 q 574 713 531 735 q 644 649 617 690 q 685 549 672 607 q 699 415 699 490 l 699 0 z "},"ħ":{"ha":800,"x_min":17,"x_max":699,"o":"m 17 865 l 17 915 l 351 915 l 351 865 l 17 865 m 699 0 l 629 0 l 629 403 q 583 603 629 536 q 450 671 538 671 q 336 642 393 671 q 238 562 279 613 q 178 447 196 511 l 178 0 l 108 0 l 108 1014 l 178 1014 l 178 550 q 301 685 222 635 q 469 735 381 735 q 574 713 531 735 q 644 649 617 690 q 685 549 672 607 q 699 415 699 490 l 699 0 z "},"ḫ":{"ha":800,"x_min":108,"x_max":699,"o":"m 699 0 l 629 0 l 629 403 q 583 603 629 536 q 450 671 538 671 q 336 642 393 671 q 238 562 279 613 q 178 447 196 511 l 178 0 l 108 0 l 108 1014 l 178 1014 l 178 550 q 301 685 222 635 q 469 735 381 735 q 574 713 531 735 q 644 649 617 690 q 685 549 672 607 q 699 415 699 490 l 699 0 m 401 -154 q 452 -129 429 -154 q 479 -67 475 -104 l 525 -67 q 488 -157 525 -119 q 401 -194 451 -194 q 314 -157 350 -194 q 278 -67 278 -119 l 324 -67 q 347 -127 324 -100 q 401 -154 371 -154 z "},"ĥ":{"ha":800,"x_min":108,"x_max":699,"o":"m 699 0 l 629 0 l 629 403 q 583 603 629 536 q 450 671 538 671 q 336 642 393 671 q 238 562 279 613 q 178 447 196 511 l 178 0 l 108 0 l 108 1014 l 178 1014 l 178 550 q 301 685 222 635 q 469 735 381 735 q 574 713 531 735 q 644 649 617 690 q 685 549 672 607 q 699 415 699 490 l 699 0 m 272 1165 l 406 1278 l 457 1278 l 592 1165 l 550 1142 l 432 1229 l 314 1142 l 272 1165 z "},"ḥ":{"ha":800,"x_min":108,"x_max":699,"o":"m 699 0 l 629 0 l 629 403 q 583 603 629 536 q 450 671 538 671 q 336 642 393 671 q 238 562 279 613 q 178 447 196 511 l 178 0 l 108 0 l 108 1014 l 178 1014 l 178 550 q 301 685 222 635 q 469 735 381 735 q 574 713 531 735 q 644 649 617 690 q 685 549 672 607 q 699 415 699 490 l 699 0 m 368 -212 l 368 -89 l 432 -89 l 432 -212 l 368 -212 z "},"i":{"ha":288,"x_min":108,"x_max":178,"o":"m 108 0 l 108 722 l 178 722 l 178 0 l 108 0 m 108 886 l 108 1014 l 178 1014 l 178 886 l 108 886 z "},"ı":{"ha":288,"x_min":108,"x_max":178,"o":"m 108 0 l 108 722 l 178 722 l 178 0 l 108 0 z "},"í":{"ha":288,"x_min":108,"x_max":285,"o":"m 108 0 l 108 722 l 178 722 l 178 0 l 108 0 m 168 874 l 119 896 l 204 1014 l 285 1014 l 168 874 z "},"ĭ":{"ha":288,"x_min":19,"x_max":267,"o":"m 108 0 l 108 722 l 178 722 l 178 0 l 108 0 m 144 925 q 195 951 172 925 q 222 1014 218 976 l 268 1014 q 231 924 268 961 q 144 886 194 886 q 57 924 93 886 q 21 1014 21 961 l 67 1014 q 90 953 67 981 q 144 925 114 925 z "},"î":{"ha":288,"x_min":-17,"x_max":303,"o":"m 108 0 l 108 722 l 178 722 l 178 0 l 108 0 m -17 901 l 117 1014 l 168 1014 l 303 901 l 261 878 l 143 965 l 25 878 l -17 901 z "},"ȉ":{"ha":288,"x_min":-57,"x_max":260,"o":"m 108 0 l 108 722 l 178 722 l 178 0 l 108 0 m 104 1014 l 176 1014 l 260 896 l 219 874 l 104 1014 m -57 1014 l 17 1014 l 99 896 l 58 874 l -57 1014 z "},"ï":{"ha":288,"x_min":18,"x_max":268,"o":"m 108 0 l 108 722 l 178 722 l 178 0 l 108 0 m 18 889 l 18 1011 l 79 1011 l 79 889 l 18 889 m 207 889 l 207 1011 l 268 1011 l 268 889 l 207 889 z "},"ḯ":{"ha":288,"x_min":18,"x_max":285,"o":"m 108 0 l 108 722 l 178 722 l 178 0 l 108 0 m 18 889 l 18 1011 l 79 1011 l 79 889 l 18 889 m 207 889 l 207 1011 l 268 1011 l 268 889 l 207 889 m 168 1151 l 119 1174 l 204 1292 l 285 1292 l 168 1151 z "},"ị":{"ha":288,"x_min":108,"x_max":178,"o":"m 108 0 l 108 722 l 178 722 l 178 0 l 108 0 m 108 886 l 108 1014 l 178 1014 l 178 886 l 108 886 m 111 -212 l 111 -89 l 175 -89 l 175 -212 l 111 -212 z "},"ì":{"ha":288,"x_min":26,"x_max":193,"o":"m 108 0 l 108 722 l 178 722 l 178 0 l 108 0 m 26 1014 l 106 1014 l 192 896 l 144 874 l 26 1014 z "},"ỉ":{"ha":288,"x_min":19,"x_max":210,"o":"m 108 0 l 108 722 l 178 722 l 178 0 l 108 0 m 50 915 l 19 946 q 67 979 44 967 q 121 992 90 992 q 185 967 163 992 q 208 907 208 943 q 192 855 208 879 q 143 800 175 831 l 119 826 q 152 867 142 850 q 163 901 163 885 q 151 935 163 921 q 115 949 139 949 q 83 941 97 949 q 50 915 69 933 z "},"ȋ":{"ha":288,"x_min":19,"x_max":267,"o":"m 108 0 l 108 722 l 178 722 l 178 0 l 108 0 m 144 975 q 90 948 114 975 q 67 886 67 921 l 21 886 q 57 976 21 939 q 144 1014 93 1014 q 231 976 194 1014 q 268 886 268 939 l 222 886 q 195 949 218 924 q 144 975 172 975 z "},"ī":{"ha":288,"x_min":-54,"x_max":342,"o":"m 108 0 l 108 722 l 178 722 l 178 0 l 108 0 m -54 933 l -54 985 l 342 985 l 342 933 l -54 933 z "},"į":{"ha":288,"x_min":19,"x_max":178,"o":"m 108 0 l 108 722 l 178 722 l 178 0 l 108 0 m 108 886 l 108 1014 l 178 1014 l 178 886 l 108 886 m 19 -143 q 49 -62 19 -101 q 140 21 79 -22 l 158 21 l 179 0 q 97 -74 122 -43 q 72 -133 72 -106 q 97 -174 72 -161 q 175 -196 122 -187 l 154 -243 q 72 -222 101 -236 q 31 -187 42 -207 q 19 -143 19 -167 z "},"ĩ":{"ha":288,"x_min":-68,"x_max":354,"o":"m 108 0 l 108 722 l 178 722 l 178 0 l 108 0 m 226 899 q 156 913 185 899 q 103 940 128 926 q 50 954 79 954 q 5 939 19 954 q -15 907 -10 924 q -19 888 -19 890 l -67 888 q -62 911 -67 893 q -46 950 -58 929 q -10 987 -33 971 q 50 1003 13 1003 q 114 989 88 1003 q 166 961 140 975 q 226 947 192 947 q 280 963 264 947 q 301 994 296 978 q 306 1014 306 1011 l 354 1014 q 349 990 354 1008 q 331 950 344 971 q 292 914 317 929 q 226 899 267 899 z "},"j":{"ha":297,"x_min":-165,"x_max":189,"o":"m -14 -246 q -96 -234 -57 -246 q -165 -194 -135 -222 l -128 -149 q -77 -175 -106 -168 q -21 -182 -49 -182 q 46 -164 14 -182 q 99 -114 78 -146 q 119 -42 119 -82 l 119 722 l 189 722 l 189 -39 q 159 -146 189 -99 q 83 -219 129 -193 q -14 -246 36 -246 m 119 886 l 119 1014 l 189 1014 l 189 886 l 119 886 z "},"ȷ":{"ha":288,"x_min":-175,"x_max":178,"o":"m -25 -246 q -107 -234 -68 -246 q -175 -194 -146 -222 l -137 -149 q -87 -175 -115 -168 q -31 -182 -58 -182 q 36 -164 4 -182 q 88 -114 68 -146 q 108 -42 108 -82 l 108 722 l 178 722 l 178 -39 q 148 -146 178 -99 q 72 -219 118 -193 q -25 -246 26 -246 z "},"ĵ":{"ha":288,"x_min":-175,"x_max":303,"o":"m -25 -246 q -107 -234 -68 -246 q -175 -194 -146 -222 l -137 -149 q -87 -175 -115 -168 q -31 -182 -58 -182 q 36 -164 4 -182 q 88 -114 68 -146 q 108 -42 108 -82 l 108 722 l 178 722 l 178 -39 q 148 -146 178 -99 q 72 -219 118 -193 q -25 -246 26 -246 m -17 901 l 117 1014 l 168 1014 l 303 901 l 261 878 l 143 965 l 25 878 l -17 901 z "},"k":{"ha":725,"x_min":108,"x_max":707,"o":"m 631 0 l 349 386 l 178 229 l 178 0 l 108 0 l 108 1014 l 178 1014 l 178 307 l 618 721 l 697 721 l 396 428 l 707 0 l 631 0 z "},"ķ":{"ha":725,"x_min":108,"x_max":707,"o":"m 631 0 l 349 386 l 178 229 l 178 0 l 108 0 l 108 1014 l 178 1014 l 178 307 l 618 721 l 697 721 l 396 428 l 707 0 l 631 0 m 340 -260 l 361 -165 l 339 -165 l 339 -68 l 407 -68 l 407 -165 l 378 -260 l 340 -260 z "},"ĸ":{"ha":725,"x_min":108,"x_max":707,"o":"m 631 0 l 349 386 l 178 229 l 178 0 l 108 0 l 108 722 l 178 722 l 178 306 l 617 721 l 697 721 l 396 428 l 707 0 l 631 0 z "},"l":{"ha":360,"x_min":114,"x_max":361,"o":"m 114 1014 l 185 1014 l 185 143 q 206 74 185 93 q 260 56 226 56 q 306 60 282 56 q 347 71 329 64 l 361 14 q 303 -1 338 6 q 243 -8 268 -8 q 149 27 185 -8 q 114 122 114 63 l 114 1014 z "},"ĺ":{"ha":360,"x_min":114,"x_max":361,"o":"m 114 1014 l 185 1014 l 185 143 q 206 74 185 93 q 260 56 226 56 q 306 60 282 56 q 347 71 329 64 l 361 14 q 303 -1 338 6 q 243 -8 268 -8 q 149 27 185 -8 q 114 122 114 63 l 114 1014 m 174 1138 l 125 1160 l 210 1278 l 290 1278 l 174 1138 z "},"ľ":{"ha":360,"x_min":114,"x_max":415,"o":"m 114 1014 l 185 1014 l 185 143 q 206 74 185 93 q 260 56 226 56 q 306 60 282 56 q 347 71 329 64 l 361 14 q 303 -1 338 6 q 243 -8 268 -8 q 149 27 185 -8 q 114 122 114 63 l 114 1014 m 299 874 l 250 896 l 335 1014 l 415 1014 l 299 874 z "},"ļ":{"ha":360,"x_min":114,"x_max":361,"o":"m 114 1014 l 185 1014 l 185 143 q 206 74 185 93 q 260 56 226 56 q 306 60 282 56 q 347 71 329 64 l 361 14 q 303 -1 338 6 q 243 -8 268 -8 q 149 27 185 -8 q 114 122 114 63 l 114 1014 m 199 -260 l 219 -165 l 197 -165 l 197 -68 l 265 -68 l 265 -165 l 236 -260 l 199 -260 z "},"ŀ":{"ha":406,"x_min":114,"x_max":381,"o":"m 114 1014 l 185 1014 l 185 143 q 206 74 185 93 q 260 56 226 56 q 306 60 282 56 q 347 71 329 64 l 361 14 q 303 -1 338 6 q 243 -8 268 -8 q 149 27 185 -8 q 114 122 114 63 l 114 1014 m 321 344 l 321 485 l 382 485 l 382 344 l 321 344 z "},"ḷ":{"ha":360,"x_min":114,"x_max":361,"o":"m 114 1014 l 185 1014 l 185 143 q 206 74 185 93 q 260 56 226 56 q 306 60 282 56 q 347 71 329 64 l 361 14 q 303 -1 338 6 q 243 -8 268 -8 q 149 27 185 -8 q 114 122 114 63 l 114 1014 m 203 -212 l 203 -89 l 267 -89 l 267 -212 l 203 -212 z "},"ḻ":{"ha":360,"x_min":38,"x_max":433,"o":"m 114 1014 l 185 1014 l 185 143 q 206 74 185 93 q 260 56 226 56 q 306 60 282 56 q 347 71 329 64 l 361 14 q 303 -1 338 6 q 243 -8 268 -8 q 149 27 185 -8 q 114 122 114 63 l 114 1014 m 38 -161 l 38 -110 l 433 -110 l 433 -161 l 38 -161 z "},"ł":{"ha":385,"x_min":17,"x_max":385,"o":"m 44 410 l 17 450 l 333 722 l 361 681 l 44 410 m 139 1014 l 208 1014 l 208 143 q 229 74 208 93 q 285 56 250 56 q 329 60 306 56 q 371 71 353 64 l 385 14 q 326 -1 361 6 q 267 -8 292 -8 q 174 27 208 -8 q 139 122 139 63 l 139 1014 z "},"m":{"ha":1271,"x_min":108,"x_max":1169,"o":"m 1169 0 l 1100 0 l 1100 403 q 1058 606 1100 540 q 928 671 1015 671 q 770 608 839 671 q 674 446 701 544 l 674 0 l 604 0 l 604 403 q 563 606 604 542 q 433 671 521 671 q 276 609 344 671 q 178 447 207 547 l 178 0 l 108 0 l 108 722 l 174 722 l 174 550 q 292 687 219 639 q 450 735 364 735 q 598 681 540 735 q 667 539 656 628 q 789 685 718 636 q 950 735 860 735 q 1051 713 1010 735 q 1119 651 1092 692 q 1158 550 1146 610 q 1169 415 1169 490 l 1169 0 z "},"ṃ":{"ha":1271,"x_min":108,"x_max":1169,"o":"m 1169 0 l 1100 0 l 1100 403 q 1058 606 1100 540 q 928 671 1015 671 q 770 608 839 671 q 674 446 701 544 l 674 0 l 604 0 l 604 403 q 563 606 604 542 q 433 671 521 671 q 276 609 344 671 q 178 447 207 547 l 178 0 l 108 0 l 108 722 l 174 722 l 174 550 q 292 687 219 639 q 450 735 364 735 q 598 681 540 735 q 667 539 656 628 q 789 685 718 636 q 950 735 860 735 q 1051 713 1010 735 q 1119 651 1092 692 q 1158 550 1146 610 q 1169 415 1169 490 l 1169 0 m 603 -212 l 603 -89 l 667 -89 l 667 -212 l 603 -212 z "},"n":{"ha":800,"x_min":108,"x_max":699,"o":"m 699 0 l 629 0 l 629 403 q 590 606 629 542 q 464 671 550 671 q 344 642 403 671 q 241 562 285 613 q 178 447 197 511 l 178 0 l 108 0 l 108 722 l 174 722 l 174 550 q 251 647 203 606 q 360 711 300 688 q 483 735 419 735 q 584 713 543 735 q 651 651 625 692 q 688 551 676 611 q 699 415 699 492 l 699 0 z "},"ń":{"ha":800,"x_min":108,"x_max":699,"o":"m 699 0 l 629 0 l 629 403 q 590 606 629 542 q 464 671 550 671 q 344 642 403 671 q 241 562 285 613 q 178 447 197 511 l 178 0 l 108 0 l 108 722 l 174 722 l 174 550 q 251 647 203 606 q 360 711 300 688 q 483 735 419 735 q 584 713 543 735 q 651 651 625 692 q 688 551 676 611 q 699 415 699 492 l 699 0 m 428 874 l 379 896 l 464 1014 l 544 1014 l 428 874 z "},"ň":{"ha":800,"x_min":108,"x_max":699,"o":"m 699 0 l 629 0 l 629 403 q 590 606 629 542 q 464 671 550 671 q 344 642 403 671 q 241 562 285 613 q 178 447 197 511 l 178 0 l 108 0 l 108 722 l 174 722 l 174 550 q 251 647 203 606 q 360 711 300 688 q 483 735 419 735 q 584 713 543 735 q 651 651 625 692 q 688 551 676 611 q 699 415 699 492 l 699 0 m 285 1014 l 403 926 l 521 1014 l 563 990 l 428 878 l 376 878 l 243 990 l 285 1014 z "},"ņ":{"ha":800,"x_min":108,"x_max":699,"o":"m 699 0 l 629 0 l 629 403 q 590 606 629 542 q 464 671 550 671 q 344 642 403 671 q 241 562 285 613 q 178 447 197 511 l 178 0 l 108 0 l 108 722 l 174 722 l 174 550 q 251 647 203 606 q 360 711 300 688 q 483 735 419 735 q 584 713 543 735 q 651 651 625 692 q 688 551 676 611 q 699 415 699 492 l 699 0 m 361 -260 l 382 -165 l 360 -165 l 360 -68 l 428 -68 l 428 -165 l 399 -260 l 361 -260 z "},"ṅ":{"ha":800,"x_min":108,"x_max":699,"o":"m 699 0 l 629 0 l 629 403 q 590 606 629 542 q 464 671 550 671 q 344 642 403 671 q 241 562 285 613 q 178 447 197 511 l 178 0 l 108 0 l 108 722 l 174 722 l 174 550 q 251 647 203 606 q 360 711 300 688 q 483 735 419 735 q 584 713 543 735 q 651 651 625 692 q 688 551 676 611 q 699 415 699 492 l 699 0 m 371 889 l 371 1014 l 435 1014 l 435 889 l 371 889 z "},"ṇ":{"ha":800,"x_min":108,"x_max":699,"o":"m 699 0 l 629 0 l 629 403 q 590 606 629 542 q 464 671 550 671 q 344 642 403 671 q 241 562 285 613 q 178 447 197 511 l 178 0 l 108 0 l 108 722 l 174 722 l 174 550 q 251 647 203 606 q 360 711 300 688 q 483 735 419 735 q 584 713 543 735 q 651 651 625 692 q 688 551 676 611 q 699 415 699 492 l 699 0 m 365 -212 l 365 -89 l 429 -89 l 429 -212 l 365 -212 z "},"ŋ":{"ha":800,"x_min":108,"x_max":699,"o":"m 497 -246 q 414 -234 453 -246 q 346 -194 375 -222 l 383 -149 q 434 -175 406 -168 q 490 -182 463 -182 q 557 -164 525 -182 q 609 -114 589 -146 q 629 -42 629 -82 l 629 403 q 590 606 629 542 q 464 671 550 671 q 344 642 403 671 q 241 562 285 613 q 178 447 197 511 l 178 0 l 108 0 l 108 722 l 174 722 l 174 550 q 251 647 203 606 q 360 711 300 688 q 483 735 419 735 q 584 713 543 735 q 651 651 625 692 q 688 551 676 611 q 699 415 699 492 l 699 -39 q 669 -146 699 -99 q 593 -219 639 -193 q 497 -246 547 -246 z "},"ṉ":{"ha":800,"x_min":108,"x_max":699,"o":"m 699 0 l 629 0 l 629 403 q 590 606 629 542 q 464 671 550 671 q 344 642 403 671 q 241 562 285 613 q 178 447 197 511 l 178 0 l 108 0 l 108 722 l 174 722 l 174 550 q 251 647 203 606 q 360 711 300 688 q 483 735 419 735 q 584 713 543 735 q 651 651 625 692 q 688 551 676 611 q 699 415 699 492 l 699 0 m 200 -161 l 200 -110 l 596 -110 l 596 -161 l 200 -161 z "},"ñ":{"ha":800,"x_min":108,"x_max":699,"o":"m 699 0 l 629 0 l 629 403 q 590 606 629 542 q 464 671 550 671 q 344 642 403 671 q 241 562 285 613 q 178 447 197 511 l 178 0 l 108 0 l 108 722 l 174 722 l 174 550 q 251 647 203 606 q 360 711 300 688 q 483 735 419 735 q 584 713 543 735 q 651 651 625 692 q 688 551 676 611 q 699 415 699 492 l 699 0 m 486 899 q 416 913 444 899 q 363 940 388 926 q 310 954 339 954 q 265 939 279 954 q 245 907 250 924 q 240 888 240 890 l 193 888 q 197 911 193 893 q 214 950 201 929 q 249 987 226 971 q 310 1003 272 1003 q 374 989 347 1003 q 426 961 400 975 q 486 947 451 947 q 540 963 524 947 q 560 994 556 978 q 565 1014 565 1011 l 614 1014 q 609 990 614 1008 q 590 950 604 971 q 551 914 576 929 q 486 899 526 899 z "},"o":{"ha":822,"x_min":58,"x_max":764,"o":"m 411 -14 q 270 15 335 -14 q 158 97 206 44 q 85 217 111 149 q 58 360 58 285 q 85 503 58 436 q 159 623 111 571 q 272 705 207 675 q 411 735 336 735 q 550 705 486 735 q 663 623 614 675 q 738 503 711 571 q 764 360 764 436 q 738 217 764 285 q 663 97 711 149 q 551 15 615 44 q 411 -14 486 -14 m 128 357 q 166 202 128 272 q 268 90 204 132 q 410 49 332 49 q 552 91 488 49 q 655 205 617 133 q 693 361 693 276 q 655 517 693 446 q 552 630 617 588 q 411 672 488 672 q 269 629 333 672 q 167 515 206 586 q 128 357 128 444 z "},"ó":{"ha":822,"x_min":58,"x_max":764,"o":"m 411 -14 q 270 15 335 -14 q 158 97 206 44 q 85 217 111 149 q 58 360 58 285 q 85 503 58 436 q 159 623 111 571 q 272 705 207 675 q 411 735 336 735 q 550 705 486 735 q 663 623 614 675 q 738 503 711 571 q 764 360 764 436 q 738 217 764 285 q 663 97 711 149 q 551 15 615 44 q 411 -14 486 -14 m 128 357 q 166 202 128 272 q 268 90 204 132 q 410 49 332 49 q 552 91 488 49 q 655 205 617 133 q 693 361 693 276 q 655 517 693 446 q 552 630 617 588 q 411 672 488 672 q 269 629 333 672 q 167 515 206 586 q 128 357 128 444 m 435 874 l 386 896 l 471 1014 l 551 1014 l 435 874 z "},"ŏ":{"ha":822,"x_min":58,"x_max":764,"o":"m 411 -14 q 270 15 335 -14 q 158 97 206 44 q 85 217 111 149 q 58 360 58 285 q 85 503 58 436 q 159 623 111 571 q 272 705 207 675 q 411 735 336 735 q 550 705 486 735 q 663 623 614 675 q 738 503 711 571 q 764 360 764 436 q 738 217 764 285 q 663 97 711 149 q 551 15 615 44 q 411 -14 486 -14 m 128 357 q 166 202 128 272 q 268 90 204 132 q 410 49 332 49 q 552 91 488 49 q 655 205 617 133 q 693 361 693 276 q 655 517 693 446 q 552 630 617 588 q 411 672 488 672 q 269 629 333 672 q 167 515 206 586 q 128 357 128 444 m 411 925 q 462 951 439 925 q 489 1014 485 976 l 535 1014 q 498 924 535 961 q 411 886 461 886 q 324 924 360 886 q 288 1014 288 961 l 333 1014 q 357 953 333 981 q 411 925 381 925 z "},"ô":{"ha":822,"x_min":58,"x_max":764,"o":"m 411 -14 q 270 15 335 -14 q 158 97 206 44 q 85 217 111 149 q 58 360 58 285 q 85 503 58 436 q 159 623 111 571 q 272 705 207 675 q 411 735 336 735 q 550 705 486 735 q 663 623 614 675 q 738 503 711 571 q 764 360 764 436 q 738 217 764 285 q 663 97 711 149 q 551 15 615 44 q 411 -14 486 -14 m 128 357 q 166 202 128 272 q 268 90 204 132 q 410 49 332 49 q 552 91 488 49 q 655 205 617 133 q 693 361 693 276 q 655 517 693 446 q 552 630 617 588 q 411 672 488 672 q 269 629 333 672 q 167 515 206 586 q 128 357 128 444 m 251 901 l 385 1014 l 436 1014 l 571 901 l 529 878 l 411 965 l 293 878 l 251 901 z "},"ố":{"ha":822,"x_min":58,"x_max":764,"o":"m 411 -14 q 270 15 335 -14 q 158 97 206 44 q 85 217 111 149 q 58 360 58 285 q 85 503 58 436 q 159 623 111 571 q 272 705 207 675 q 411 735 336 735 q 550 705 486 735 q 663 623 614 675 q 738 503 711 571 q 764 360 764 436 q 738 217 764 285 q 663 97 711 149 q 551 15 615 44 q 411 -14 486 -14 m 128 357 q 166 202 128 272 q 268 90 204 132 q 410 49 332 49 q 552 91 488 49 q 655 205 617 133 q 693 361 693 276 q 655 517 693 446 q 552 630 617 588 q 411 672 488 672 q 269 629 333 672 q 167 515 206 586 q 128 357 128 444 z "},"ộ":{"ha":822,"x_min":58,"x_max":764,"o":"m 411 -14 q 270 15 335 -14 q 158 97 206 44 q 85 217 111 149 q 58 360 58 285 q 85 503 58 436 q 159 623 111 571 q 272 705 207 675 q 411 735 336 735 q 550 705 486 735 q 663 623 614 675 q 738 503 711 571 q 764 360 764 436 q 738 217 764 285 q 663 97 711 149 q 551 15 615 44 q 411 -14 486 -14 m 128 357 q 166 202 128 272 q 268 90 204 132 q 410 49 332 49 q 552 91 488 49 q 655 205 617 133 q 693 361 693 276 q 655 517 693 446 q 552 630 617 588 q 411 672 488 672 q 269 629 333 672 q 167 515 206 586 q 128 357 128 444 m 378 -212 l 378 -89 l 442 -89 l 442 -212 l 378 -212 m 251 901 l 385 1014 l 436 1014 l 571 901 l 529 878 l 411 965 l 293 878 l 251 901 z "},"ồ":{"ha":822,"x_min":58,"x_max":764,"o":"m 411 -14 q 270 15 335 -14 q 158 97 206 44 q 85 217 111 149 q 58 360 58 285 q 85 503 58 436 q 159 623 111 571 q 272 705 207 675 q 411 735 336 735 q 550 705 486 735 q 663 623 614 675 q 738 503 711 571 q 764 360 764 436 q 738 217 764 285 q 663 97 711 149 q 551 15 615 44 q 411 -14 486 -14 m 128 357 q 166 202 128 272 q 268 90 204 132 q 410 49 332 49 q 552 91 488 49 q 655 205 617 133 q 693 361 693 276 q 655 517 693 446 q 552 630 617 588 q 411 672 488 672 q 269 629 333 672 q 167 515 206 586 q 128 357 128 444 z "},"ổ":{"ha":822,"x_min":58,"x_max":764,"o":"m 411 -14 q 270 15 335 -14 q 158 97 206 44 q 85 217 111 149 q 58 360 58 285 q 85 503 58 436 q 159 623 111 571 q 272 705 207 675 q 411 735 336 735 q 550 705 486 735 q 663 623 614 675 q 738 503 711 571 q 764 360 764 436 q 738 217 764 285 q 663 97 711 149 q 551 15 615 44 q 411 -14 486 -14 m 128 357 q 166 202 128 272 q 268 90 204 132 q 410 49 332 49 q 552 91 488 49 q 655 205 617 133 q 693 361 693 276 q 655 517 693 446 q 552 630 617 588 q 411 672 488 672 q 269 629 333 672 q 167 515 206 586 q 128 357 128 444 z "},"ỗ":{"ha":822,"x_min":58,"x_max":764,"o":"m 411 -14 q 270 15 335 -14 q 158 97 206 44 q 85 217 111 149 q 58 360 58 285 q 85 503 58 436 q 159 623 111 571 q 272 705 207 675 q 411 735 336 735 q 550 705 486 735 q 663 623 614 675 q 738 503 711 571 q 764 360 764 436 q 738 217 764 285 q 663 97 711 149 q 551 15 615 44 q 411 -14 486 -14 m 128 357 q 166 202 128 272 q 268 90 204 132 q 410 49 332 49 q 552 91 488 49 q 655 205 617 133 q 693 361 693 276 q 655 517 693 446 q 552 630 617 588 q 411 672 488 672 q 269 629 333 672 q 167 515 206 586 q 128 357 128 444 z "},"ȍ":{"ha":822,"x_min":58,"x_max":764,"o":"m 411 -14 q 270 15 335 -14 q 158 97 206 44 q 85 217 111 149 q 58 360 58 285 q 85 503 58 436 q 159 623 111 571 q 272 705 207 675 q 411 735 336 735 q 550 705 486 735 q 663 623 614 675 q 738 503 711 571 q 764 360 764 436 q 738 217 764 285 q 663 97 711 149 q 551 15 615 44 q 411 -14 486 -14 m 128 357 q 166 202 128 272 q 268 90 204 132 q 410 49 332 49 q 552 91 488 49 q 655 205 617 133 q 693 361 693 276 q 655 517 693 446 q 552 630 617 588 q 411 672 488 672 q 269 629 333 672 q 167 515 206 586 q 128 357 128 444 m 371 1014 l 443 1014 l 526 896 l 486 874 l 371 1014 m 210 1014 l 283 1014 l 365 896 l 325 874 l 210 1014 z "},"ö":{"ha":822,"x_min":58,"x_max":764,"o":"m 411 -14 q 270 15 335 -14 q 158 97 206 44 q 85 217 111 149 q 58 360 58 285 q 85 503 58 436 q 159 623 111 571 q 272 705 207 675 q 411 735 336 735 q 550 705 486 735 q 663 623 614 675 q 738 503 711 571 q 764 360 764 436 q 738 217 764 285 q 663 97 711 149 q 551 15 615 44 q 411 -14 486 -14 m 128 357 q 166 202 128 272 q 268 90 204 132 q 410 49 332 49 q 552 91 488 49 q 655 205 617 133 q 693 361 693 276 q 655 517 693 446 q 552 630 617 588 q 411 672 488 672 q 269 629 333 672 q 167 515 206 586 q 128 357 128 444 m 286 889 l 286 1011 l 347 1011 l 347 889 l 286 889 m 475 889 l 475 1011 l 536 1011 l 536 889 l 475 889 z "},"ȫ":{"ha":822,"x_min":58,"x_max":764,"o":"m 411 -14 q 270 15 335 -14 q 158 97 206 44 q 85 217 111 149 q 58 360 58 285 q 85 503 58 436 q 159 623 111 571 q 272 705 207 675 q 411 735 336 735 q 550 705 486 735 q 663 623 614 675 q 738 503 711 571 q 764 360 764 436 q 738 217 764 285 q 663 97 711 149 q 551 15 615 44 q 411 -14 486 -14 m 128 357 q 166 202 128 272 q 268 90 204 132 q 410 49 332 49 q 552 91 488 49 q 655 205 617 133 q 693 361 693 276 q 655 517 693 446 q 552 630 617 588 q 411 672 488 672 q 269 629 333 672 q 167 515 206 586 q 128 357 128 444 m 286 889 l 286 1011 l 347 1011 l 347 889 l 286 889 m 475 889 l 475 1011 l 536 1011 l 536 889 l 475 889 m 214 1211 l 214 1263 l 610 1263 l 610 1211 l 214 1211 z "},"ȱ":{"ha":822,"x_min":58,"x_max":764,"o":"m 411 -14 q 270 15 335 -14 q 158 97 206 44 q 85 217 111 149 q 58 360 58 285 q 85 503 58 436 q 159 623 111 571 q 272 705 207 675 q 411 735 336 735 q 550 705 486 735 q 663 623 614 675 q 738 503 711 571 q 764 360 764 436 q 738 217 764 285 q 663 97 711 149 q 551 15 615 44 q 411 -14 486 -14 m 128 357 q 166 202 128 272 q 268 90 204 132 q 410 49 332 49 q 552 91 488 49 q 655 205 617 133 q 693 361 693 276 q 655 517 693 446 q 552 630 617 588 q 411 672 488 672 q 269 629 333 672 q 167 515 206 586 q 128 357 128 444 m 378 889 l 378 1014 l 442 1014 l 442 889 l 378 889 m 214 1225 l 214 1276 l 610 1276 l 610 1225 l 214 1225 z "},"ọ":{"ha":822,"x_min":58,"x_max":764,"o":"m 411 -14 q 270 15 335 -14 q 158 97 206 44 q 85 217 111 149 q 58 360 58 285 q 85 503 58 436 q 159 623 111 571 q 272 705 207 675 q 411 735 336 735 q 550 705 486 735 q 663 623 614 675 q 738 503 711 571 q 764 360 764 436 q 738 217 764 285 q 663 97 711 149 q 551 15 615 44 q 411 -14 486 -14 m 128 357 q 166 202 128 272 q 268 90 204 132 q 410 49 332 49 q 552 91 488 49 q 655 205 617 133 q 693 361 693 276 q 655 517 693 446 q 552 630 617 588 q 411 672 488 672 q 269 629 333 672 q 167 515 206 586 q 128 357 128 444 m 378 -212 l 378 -89 l 442 -89 l 442 -212 l 378 -212 z "},"ò":{"ha":822,"x_min":58,"x_max":764,"o":"m 411 -14 q 270 15 335 -14 q 158 97 206 44 q 85 217 111 149 q 58 360 58 285 q 85 503 58 436 q 159 623 111 571 q 272 705 207 675 q 411 735 336 735 q 550 705 486 735 q 663 623 614 675 q 738 503 711 571 q 764 360 764 436 q 738 217 764 285 q 663 97 711 149 q 551 15 615 44 q 411 -14 486 -14 m 128 357 q 166 202 128 272 q 268 90 204 132 q 410 49 332 49 q 552 91 488 49 q 655 205 617 133 q 693 361 693 276 q 655 517 693 446 q 552 630 617 588 q 411 672 488 672 q 269 629 333 672 q 167 515 206 586 q 128 357 128 444 m 294 1014 l 374 1014 l 460 896 l 413 874 l 294 1014 z "},"ỏ":{"ha":822,"x_min":58,"x_max":764,"o":"m 411 -14 q 270 15 335 -14 q 158 97 206 44 q 85 217 111 149 q 58 360 58 285 q 85 503 58 436 q 159 623 111 571 q 272 705 207 675 q 411 735 336 735 q 550 705 486 735 q 663 623 614 675 q 738 503 711 571 q 764 360 764 436 q 738 217 764 285 q 663 97 711 149 q 551 15 615 44 q 411 -14 486 -14 m 128 357 q 166 202 128 272 q 268 90 204 132 q 410 49 332 49 q 552 91 488 49 q 655 205 617 133 q 693 361 693 276 q 655 517 693 446 q 552 630 617 588 q 411 672 488 672 q 269 629 333 672 q 167 515 206 586 q 128 357 128 444 m 346 956 l 315 986 q 363 1019 340 1007 q 417 1032 386 1032 q 481 1008 458 1032 q 504 947 504 983 q 488 895 504 919 q 439 840 471 871 l 415 867 q 448 908 438 890 q 458 942 458 925 q 447 975 458 961 q 411 989 435 989 q 379 981 393 989 q 346 956 365 974 z "},"ơ":{"ha":822,"x_min":58,"x_max":764,"o":"m 411 -14 q 270 15 335 -14 q 158 97 206 44 q 85 217 111 149 q 58 360 58 285 q 85 503 58 436 q 159 623 111 571 q 272 705 207 675 q 411 735 336 735 q 550 705 486 735 q 663 623 614 675 q 738 503 711 571 q 764 360 764 436 q 738 217 764 285 q 663 97 711 149 q 551 15 615 44 q 411 -14 486 -14 m 128 357 q 166 202 128 272 q 268 90 204 132 q 410 49 332 49 q 552 91 488 49 q 655 205 617 133 q 693 361 693 276 q 655 517 693 446 q 552 630 617 588 q 411 672 488 672 q 269 629 333 672 q 167 515 206 586 q 128 357 128 444 m 496 669 l 497 724 q 567 732 539 724 q 608 756 594 740 q 626 791 621 771 q 632 840 631 811 l 693 840 q 688 794 692 815 q 677 756 685 774 q 654 721 669 738 q 616 692 640 704 q 560 675 592 681 q 496 669 529 669 z "},"ớ":{"ha":822,"x_min":58,"x_max":764,"o":"m 411 -14 q 270 15 335 -14 q 158 97 206 44 q 85 217 111 149 q 58 360 58 285 q 85 503 58 436 q 159 623 111 571 q 272 705 207 675 q 411 735 336 735 q 550 705 486 735 q 663 623 614 675 q 738 503 711 571 q 764 360 764 436 q 738 217 764 285 q 663 97 711 149 q 551 15 615 44 q 411 -14 486 -14 m 128 357 q 166 202 128 272 q 268 90 204 132 q 410 49 332 49 q 552 91 488 49 q 655 205 617 133 q 693 361 693 276 q 655 517 693 446 q 552 630 617 588 q 411 672 488 672 q 269 629 333 672 q 167 515 206 586 q 128 357 128 444 m 496 669 l 497 724 q 567 732 539 724 q 608 756 594 740 q 626 791 621 771 q 632 840 631 811 l 693 840 q 688 794 692 815 q 677 756 685 774 q 654 721 669 738 q 616 692 640 704 q 560 675 592 681 q 496 669 529 669 m 435 874 l 386 896 l 471 1014 l 551 1014 l 435 874 z "},"ợ":{"ha":822,"x_min":58,"x_max":764,"o":"m 411 -14 q 270 15 335 -14 q 158 97 206 44 q 85 217 111 149 q 58 360 58 285 q 85 503 58 436 q 159 623 111 571 q 272 705 207 675 q 411 735 336 735 q 550 705 486 735 q 663 623 614 675 q 738 503 711 571 q 764 360 764 436 q 738 217 764 285 q 663 97 711 149 q 551 15 615 44 q 411 -14 486 -14 m 128 357 q 166 202 128 272 q 268 90 204 132 q 410 49 332 49 q 552 91 488 49 q 655 205 617 133 q 693 361 693 276 q 655 517 693 446 q 552 630 617 588 q 411 672 488 672 q 269 629 333 672 q 167 515 206 586 q 128 357 128 444 m 496 669 l 497 724 q 567 732 539 724 q 608 756 594 740 q 626 791 621 771 q 632 840 631 811 l 693 840 q 688 794 692 815 q 677 756 685 774 q 654 721 669 738 q 616 692 640 704 q 560 675 592 681 q 496 669 529 669 m 378 -212 l 378 -89 l 442 -89 l 442 -212 l 378 -212 z "},"ờ":{"ha":822,"x_min":58,"x_max":764,"o":"m 411 -14 q 270 15 335 -14 q 158 97 206 44 q 85 217 111 149 q 58 360 58 285 q 85 503 58 436 q 159 623 111 571 q 272 705 207 675 q 411 735 336 735 q 550 705 486 735 q 663 623 614 675 q 738 503 711 571 q 764 360 764 436 q 738 217 764 285 q 663 97 711 149 q 551 15 615 44 q 411 -14 486 -14 m 128 357 q 166 202 128 272 q 268 90 204 132 q 410 49 332 49 q 552 91 488 49 q 655 205 617 133 q 693 361 693 276 q 655 517 693 446 q 552 630 617 588 q 411 672 488 672 q 269 629 333 672 q 167 515 206 586 q 128 357 128 444 m 496 669 l 497 724 q 567 732 539 724 q 608 756 594 740 q 626 791 621 771 q 632 840 631 811 l 693 840 q 688 794 692 815 q 677 756 685 774 q 654 721 669 738 q 616 692 640 704 q 560 675 592 681 q 496 669 529 669 m 294 1014 l 374 1014 l 460 896 l 413 874 l 294 1014 z "},"ở":{"ha":822,"x_min":58,"x_max":764,"o":"m 411 -14 q 270 15 335 -14 q 158 97 206 44 q 85 217 111 149 q 58 360 58 285 q 85 503 58 436 q 159 623 111 571 q 272 705 207 675 q 411 735 336 735 q 550 705 486 735 q 663 623 614 675 q 738 503 711 571 q 764 360 764 436 q 738 217 764 285 q 663 97 711 149 q 551 15 615 44 q 411 -14 486 -14 m 128 357 q 166 202 128 272 q 268 90 204 132 q 410 49 332 49 q 552 91 488 49 q 655 205 617 133 q 693 361 693 276 q 655 517 693 446 q 552 630 617 588 q 411 672 488 672 q 269 629 333 672 q 167 515 206 586 q 128 357 128 444 m 496 669 l 497 724 q 567 732 539 724 q 608 756 594 740 q 626 791 621 771 q 632 840 631 811 l 693 840 q 688 794 692 815 q 677 756 685 774 q 654 721 669 738 q 616 692 640 704 q 560 675 592 681 q 496 669 529 669 m 346 956 l 315 986 q 363 1019 340 1007 q 417 1032 386 1032 q 481 1008 458 1032 q 504 947 504 983 q 488 895 504 919 q 439 840 471 871 l 415 867 q 448 908 438 890 q 458 942 458 925 q 447 975 458 961 q 411 989 435 989 q 379 981 393 989 q 346 956 365 974 z "},"ỡ":{"ha":822,"x_min":58,"x_max":764,"o":"m 411 -14 q 270 15 335 -14 q 158 97 206 44 q 85 217 111 149 q 58 360 58 285 q 85 503 58 436 q 159 623 111 571 q 272 705 207 675 q 411 735 336 735 q 550 705 486 735 q 663 623 614 675 q 738 503 711 571 q 764 360 764 436 q 738 217 764 285 q 663 97 711 149 q 551 15 615 44 q 411 -14 486 -14 m 128 357 q 166 202 128 272 q 268 90 204 132 q 410 49 332 49 q 552 91 488 49 q 655 205 617 133 q 693 361 693 276 q 655 517 693 446 q 552 630 617 588 q 411 672 488 672 q 269 629 333 672 q 167 515 206 586 q 128 357 128 444 m 496 669 l 497 724 q 567 732 539 724 q 608 756 594 740 q 626 791 621 771 q 632 840 631 811 l 693 840 q 688 794 692 815 q 677 756 685 774 q 654 721 669 738 q 616 692 640 704 q 560 675 592 681 q 496 669 529 669 m 493 899 q 423 913 451 899 q 370 940 394 926 q 317 954 346 954 q 272 939 286 954 q 252 907 257 924 q 247 888 247 890 l 200 888 q 204 911 200 893 q 221 950 208 929 q 256 987 233 971 q 317 1003 279 1003 q 381 989 354 1003 q 433 961 407 975 q 493 947 458 947 q 547 963 531 947 q 567 994 563 978 q 572 1014 572 1011 l 621 1014 q 616 990 621 1008 q 597 950 611 971 q 558 914 583 929 q 493 899 533 899 z "},"ő":{"ha":822,"x_min":58,"x_max":764,"o":"m 411 -14 q 270 15 335 -14 q 158 97 206 44 q 85 217 111 149 q 58 360 58 285 q 85 503 58 436 q 159 623 111 571 q 272 705 207 675 q 411 735 336 735 q 550 705 486 735 q 663 623 614 675 q 738 503 711 571 q 764 360 764 436 q 738 217 764 285 q 663 97 711 149 q 551 15 615 44 q 411 -14 486 -14 m 128 357 q 166 202 128 272 q 268 90 204 132 q 410 49 332 49 q 552 91 488 49 q 655 205 617 133 q 693 361 693 276 q 655 517 693 446 q 552 630 617 588 q 411 672 488 672 q 269 629 333 672 q 167 515 206 586 q 128 357 128 444 m 322 874 l 282 896 l 364 1014 l 438 1014 l 322 874 m 483 874 l 442 896 l 525 1014 l 599 1014 l 483 874 z "},"ȏ":{"ha":822,"x_min":58,"x_max":764,"o":"m 411 -14 q 270 15 335 -14 q 158 97 206 44 q 85 217 111 149 q 58 360 58 285 q 85 503 58 436 q 159 623 111 571 q 272 705 207 675 q 411 735 336 735 q 550 705 486 735 q 663 623 614 675 q 738 503 711 571 q 764 360 764 436 q 738 217 764 285 q 663 97 711 149 q 551 15 615 44 q 411 -14 486 -14 m 128 357 q 166 202 128 272 q 268 90 204 132 q 410 49 332 49 q 552 91 488 49 q 655 205 617 133 q 693 361 693 276 q 655 517 693 446 q 552 630 617 588 q 411 672 488 672 q 269 629 333 672 q 167 515 206 586 q 128 357 128 444 m 411 975 q 357 948 381 975 q 333 886 333 921 l 288 886 q 324 976 288 939 q 411 1014 360 1014 q 498 976 461 1014 q 535 886 535 939 l 489 886 q 462 949 485 924 q 411 975 439 975 z "},"ō":{"ha":822,"x_min":58,"x_max":764,"o":"m 411 -14 q 270 15 335 -14 q 158 97 206 44 q 85 217 111 149 q 58 360 58 285 q 85 503 58 436 q 159 623 111 571 q 272 705 207 675 q 411 735 336 735 q 550 705 486 735 q 663 623 614 675 q 738 503 711 571 q 764 360 764 436 q 738 217 764 285 q 663 97 711 149 q 551 15 615 44 q 411 -14 486 -14 m 128 357 q 166 202 128 272 q 268 90 204 132 q 410 49 332 49 q 552 91 488 49 q 655 205 617 133 q 693 361 693 276 q 655 517 693 446 q 552 630 617 588 q 411 672 488 672 q 269 629 333 672 q 167 515 206 586 q 128 357 128 444 m 214 933 l 214 985 l 610 985 l 610 933 l 214 933 z "},"ṓ":{"ha":822,"x_min":58,"x_max":764,"o":"m 411 -14 q 270 15 335 -14 q 158 97 206 44 q 85 217 111 149 q 58 360 58 285 q 85 503 58 436 q 159 623 111 571 q 272 705 207 675 q 411 735 336 735 q 550 705 486 735 q 663 623 614 675 q 738 503 711 571 q 764 360 764 436 q 738 217 764 285 q 663 97 711 149 q 551 15 615 44 q 411 -14 486 -14 m 128 357 q 166 202 128 272 q 268 90 204 132 q 410 49 332 49 q 552 91 488 49 q 655 205 617 133 q 693 361 693 276 q 655 517 693 446 q 552 630 617 588 q 411 672 488 672 q 269 629 333 672 q 167 515 206 586 q 128 357 128 444 m 214 933 l 214 985 l 610 985 l 610 933 l 214 933 m 435 1135 l 386 1157 l 471 1275 l 551 1275 l 435 1135 z "},"ṑ":{"ha":822,"x_min":58,"x_max":764,"o":"m 411 -14 q 270 15 335 -14 q 158 97 206 44 q 85 217 111 149 q 58 360 58 285 q 85 503 58 436 q 159 623 111 571 q 272 705 207 675 q 411 735 336 735 q 550 705 486 735 q 663 623 614 675 q 738 503 711 571 q 764 360 764 436 q 738 217 764 285 q 663 97 711 149 q 551 15 615 44 q 411 -14 486 -14 m 128 357 q 166 202 128 272 q 268 90 204 132 q 410 49 332 49 q 552 91 488 49 q 655 205 617 133 q 693 361 693 276 q 655 517 693 446 q 552 630 617 588 q 411 672 488 672 q 269 629 333 672 q 167 515 206 586 q 128 357 128 444 m 214 933 l 214 985 l 610 985 l 610 933 l 214 933 m 294 1276 l 374 1276 l 460 1158 l 413 1136 l 294 1276 z "},"ǫ":{"ha":822,"x_min":58,"x_max":764,"o":"m 411 -14 q 270 15 335 -14 q 158 97 206 44 q 85 217 111 149 q 58 360 58 285 q 85 503 58 436 q 159 623 111 571 q 272 705 207 675 q 411 735 336 735 q 550 705 486 735 q 663 623 614 675 q 738 503 711 571 q 764 360 764 436 q 738 217 764 285 q 663 97 711 149 q 551 15 615 44 q 411 -14 486 -14 m 128 357 q 166 202 128 272 q 268 90 204 132 q 410 49 332 49 q 552 91 488 49 q 655 205 617 133 q 693 361 693 276 q 655 517 693 446 q 552 630 617 588 q 411 672 488 672 q 269 629 333 672 q 167 515 206 586 q 128 357 128 444 m 339 -143 q 369 -62 339 -101 q 460 21 399 -22 l 478 21 l 499 0 q 417 -74 442 -43 q 392 -133 392 -106 q 417 -174 392 -161 q 494 -196 442 -187 l 474 -243 q 391 -222 421 -236 q 350 -187 361 -207 q 339 -143 339 -167 z "},"ø":{"ha":822,"x_min":58,"x_max":764,"o":"m 411 -14 q 270 15 335 -14 q 158 97 206 44 q 85 217 111 149 q 58 360 58 285 q 85 503 58 436 q 159 623 111 571 q 272 705 207 675 q 411 735 336 735 q 550 705 486 735 q 663 623 614 675 q 738 503 711 571 q 764 360 764 436 q 738 217 764 285 q 663 97 711 149 q 551 15 615 44 q 411 -14 486 -14 m 410 49 q 552 91 488 49 q 655 205 617 133 q 693 361 693 276 q 655 517 693 446 q 552 630 617 588 q 411 672 488 672 q 269 629 333 672 q 167 515 206 586 q 128 357 128 444 q 166 202 128 272 q 268 90 204 132 q 410 49 332 49 m 135 -1 l 207 97 l 251 68 l 200 -1 l 135 -1 m 257 74 l 214 100 l 567 650 l 614 626 l 257 74 m 621 629 l 572 654 l 621 724 l 688 724 l 621 629 z "},"ǿ":{"ha":822,"x_min":58,"x_max":764,"o":"m 411 -14 q 270 15 335 -14 q 158 97 206 44 q 85 217 111 149 q 58 360 58 285 q 85 503 58 436 q 159 623 111 571 q 272 705 207 675 q 411 735 336 735 q 550 705 486 735 q 663 623 614 675 q 738 503 711 571 q 764 360 764 436 q 738 217 764 285 q 663 97 711 149 q 551 15 615 44 q 411 -14 486 -14 m 410 49 q 552 91 488 49 q 655 205 617 133 q 693 361 693 276 q 655 517 693 446 q 552 630 617 588 q 411 672 488 672 q 269 629 333 672 q 167 515 206 586 q 128 357 128 444 q 166 202 128 272 q 268 90 204 132 q 410 49 332 49 m 135 -1 l 207 97 l 251 68 l 200 -1 l 135 -1 m 257 74 l 214 100 l 567 650 l 614 626 l 257 74 m 621 629 l 572 654 l 621 724 l 688 724 l 621 629 m 360 874 l 311 896 l 396 1014 l 476 1014 l 360 874 z "},"õ":{"ha":822,"x_min":58,"x_max":764,"o":"m 411 -14 q 270 15 335 -14 q 158 97 206 44 q 85 217 111 149 q 58 360 58 285 q 85 503 58 436 q 159 623 111 571 q 272 705 207 675 q 411 735 336 735 q 550 705 486 735 q 663 623 614 675 q 738 503 711 571 q 764 360 764 436 q 738 217 764 285 q 663 97 711 149 q 551 15 615 44 q 411 -14 486 -14 m 128 357 q 166 202 128 272 q 268 90 204 132 q 410 49 332 49 q 552 91 488 49 q 655 205 617 133 q 693 361 693 276 q 655 517 693 446 q 552 630 617 588 q 411 672 488 672 q 269 629 333 672 q 167 515 206 586 q 128 357 128 444 m 493 899 q 423 913 451 899 q 370 940 394 926 q 317 954 346 954 q 272 939 286 954 q 252 907 257 924 q 247 888 247 890 l 200 888 q 204 911 200 893 q 221 950 208 929 q 256 987 233 971 q 317 1003 279 1003 q 381 989 354 1003 q 433 961 407 975 q 493 947 458 947 q 547 963 531 947 q 567 994 563 978 q 572 1014 572 1011 l 621 1014 q 616 990 621 1008 q 597 950 611 971 q 558 914 583 929 q 493 899 533 899 z "},"ṍ":{"ha":822,"x_min":58,"x_max":764,"o":"m 411 -14 q 270 15 335 -14 q 158 97 206 44 q 85 217 111 149 q 58 360 58 285 q 85 503 58 436 q 159 623 111 571 q 272 705 207 675 q 411 735 336 735 q 550 705 486 735 q 663 623 614 675 q 738 503 711 571 q 764 360 764 436 q 738 217 764 285 q 663 97 711 149 q 551 15 615 44 q 411 -14 486 -14 m 128 357 q 166 202 128 272 q 268 90 204 132 q 410 49 332 49 q 552 91 488 49 q 655 205 617 133 q 693 361 693 276 q 655 517 693 446 q 552 630 617 588 q 411 672 488 672 q 269 629 333 672 q 167 515 206 586 q 128 357 128 444 m 493 899 q 423 913 451 899 q 370 940 394 926 q 317 954 346 954 q 272 939 286 954 q 252 907 257 924 q 247 888 247 890 l 200 888 q 204 911 200 893 q 221 950 208 929 q 256 987 233 971 q 317 1003 279 1003 q 381 989 354 1003 q 433 961 407 975 q 493 947 458 947 q 547 963 531 947 q 567 994 563 978 q 572 1014 572 1011 l 621 1014 q 616 990 621 1008 q 597 950 611 971 q 558 914 583 929 q 493 899 533 899 m 435 1165 l 386 1188 l 471 1306 l 551 1306 l 435 1165 z "},"ṏ":{"ha":822,"x_min":58,"x_max":764,"o":"m 411 -14 q 270 15 335 -14 q 158 97 206 44 q 85 217 111 149 q 58 360 58 285 q 85 503 58 436 q 159 623 111 571 q 272 705 207 675 q 411 735 336 735 q 550 705 486 735 q 663 623 614 675 q 738 503 711 571 q 764 360 764 436 q 738 217 764 285 q 663 97 711 149 q 551 15 615 44 q 411 -14 486 -14 m 128 357 q 166 202 128 272 q 268 90 204 132 q 410 49 332 49 q 552 91 488 49 q 655 205 617 133 q 693 361 693 276 q 655 517 693 446 q 552 630 617 588 q 411 672 488 672 q 269 629 333 672 q 167 515 206 586 q 128 357 128 444 m 493 899 q 423 913 451 899 q 370 940 394 926 q 317 954 346 954 q 272 939 286 954 q 252 907 257 924 q 247 888 247 890 l 200 888 q 204 911 200 893 q 221 950 208 929 q 256 987 233 971 q 317 1003 279 1003 q 381 989 354 1003 q 433 961 407 975 q 493 947 458 947 q 547 963 531 947 q 567 994 563 978 q 572 1014 572 1011 l 621 1014 q 616 990 621 1008 q 597 950 611 971 q 558 914 583 929 q 493 899 533 899 m 286 1181 l 286 1303 l 347 1303 l 347 1181 l 286 1181 m 475 1181 l 475 1303 l 536 1303 l 536 1181 l 475 1181 z "}}}
